{
classes = (
{
automatic = 1;
code = "A Aacute Abreve Acircumflex Adieresis Agrave Amacron Aogonek Aring Atilde AE AEacute B C Cacute Ccaron Ccedilla Ccircumflex Cdotaccent D Eth Dcaron Dcroat E Eacute Ebreve Ecaron Ecircumflex Edieresis Edotaccent Egrave Emacron Eogonek F G Gbreve Gcaron Gcircumflex Gdotaccent H Hbar Hcircumflex I IJ Iacute Icircumflex Idieresis Idotaccent Igrave Imacron Iogonek Itilde J Jcircumflex K L Lacute Lcaron Ldot Lslash M N Nacute Ncaron Ntilde O Oacute Ocircumflex Odieresis Ograve Ohorn Ohungarumlaut Omacron Oslash Otilde OE P Thorn Q R Racute Rcaron S Sacute Scaron Scircumflex uni1E9E uni018F T Tbar Tcaron U Uacute Ubreve Ucircumflex Udieresis Ugrave Uhorn Uhungarumlaut Umacron Uogonek Uring Utilde V W Wacute Wcircumflex Wdieresis Wgrave X Y Yacute Ycircumflex Ydieresis Ygrave Z Zacute Zcaron Zdotaccent uni0122 uni012C uni0136 uni013B uni0145 uni014E uni0156 uni015E uni0162 uni01C4 uni01C5 uni01C7 uni01C8 uni01CA uni01CB uni01CD uni01CF uni01D1 uni01D3 uni01D5 uni01D7 uni01D9 uni01DB uni01EA uni01F1 uni01F2 uni0218 uni021A uni0243 uni1E02 uni1E0A uni1E0C uni1E0E uni1E1E uni1E20 uni1E24 uni1E2A uni1E36 uni1E38 uni1E3A uni1E40 uni1E42 uni1E44 uni1E46 uni1E48 uni1E56 uni1E5A uni1E5C uni1E5E uni1E60 uni1E62 uni1E6A uni1E6C uni1E6E uni1E8E uni1E92 uni1EA0 uni1EA2 uni1EA4 uni1EA6 uni1EA8 uni1EAA uni1EAC uni1EAE uni1EB0 uni1EB2 uni1EB4 uni1EB6 uni1EB8 uni1EBA uni1EBC uni1EBE uni1EC0 uni1EC2 uni1EC4 uni1EC6 uni1EC8 uni1ECA uni1ECC uni1ECE uni1ED0 uni1ED2 uni1ED4 uni1ED6 uni1ED8 uni1EDA uni1EDC uni1EDE uni1EE0 uni1EE2 uni1EE4 uni1EE6 uni1EE8 uni1EEA uni1EEC uni1EEE uni1EF0 uni1EF4 uni1EF6 uni1EF8";
name = Uppercase;
},
{
automatic = 1;
code = "iMatra-deva iMatra-deva.0 iMatra-deva.01 iMatra-deva.02 iMatra-deva.03 iMatra-deva.05 iMatra-deva.08 iMatra-deva.10 iMatra-deva.15 iMatra-deva.20 iMatra-deva.25 iMatra-deva.30 iMatra-deva.35";
name = DevaIMatras;
},
{
automatic = 1;

glyphs = (
{
color = (255,153,153,1);
glyphname = A;
lastChange = "2015-01-16 19:50:31 +0000";
layers = (
{
anchors = (
{
name = top;
position = "{564, 800}";
}
);
hints = (
{
horizontal = 1;
origin = "{0, 0}";
target = "{0, 0}";
type = Tag;
name = hr00;
}
);
layerId = "C4389747-BECF-4D47-A11A-92B8AD605B66";
name = Bold;
paths = (
{
closed = 1;
nodes = (
"330 375 LINE",
"790 375 LINE",
"901 0 LINE",
"1134 0 LINE",
"692 1340 LINE",
"436 1340 LINE",
"-5 0 LINE",
"219 0 LINE"
);
},
{
closed = 1;
nodes = (
"604 1018 OFFCURVE",
"644 866 OFFCURVE",
"688 723 CURVE",
"740 549 LINE",
"380 549 LINE",
"434 723 LINE",
"477 866 OFFCURVE",
"518 1017 OFFCURVE",
"556 1167 CURVE",
"564 1167 LINE"
);
}
);
width = 1128;
}
);
unicode = 0041;
userData = {
com.adobe.type.autohint = "ICA8aGludFNldExpc3Q+CiAgICA8aGludHNldCBw";
com.typemytype.robofont.mark = (
1,
0.6,
0.6,
1
);
};
},
{
glyphname = Aogonek;
lastChange = "2015-01-16 19:51:49 +0000";
layers = (
{
anchors = (
{
name = mark0;
position = "{564, 1386}";
}
);
hints = (
{
horizontal = 1;
origin = "{0, 0}";
target = "{0, 0}";
type = Tag;
name = hr00;
}
);
layerId = "C4389747-BECF-4D47-A11A-92B8AD605B66";
name = Bold;
paths = (
{
closed = 1;
nodes = (
"1189 -380 CURVE",
"1134 -265 LINE",
"1111 -282 OFFCURVE",
"1084 -294 OFFCURVE",
"1050 -294 CURVE SMOOTH",
"1004 -294 OFFCURVE",
"961 -265 OFFCURVE",
"961 -206 CURVE SMOOTH",
"961 -121 OFFCURVE",
"1033 -28 OFFCURVE",
"1134 0 CURVE",
"692 1340 LINE",
"436 1340 LINE",
"-5 0 LINE",
"219 0 LINE",
"330 375 LINE",
"790 375 LINE",
"901 0 LINE",
"955 0 LINE",
"886 -44 OFFCURVE",
"797 -142 OFFCURVE",
"797 -259 CURVE SMOOTH",
"797 -378 OFFCURVE",
"890 -443 OFFCURVE",
"1007 -443 CURVE SMOOTH",
"1068 -443 OFFCURVE",
"1145 -415 OFFCURVE"
);
},
{
closed = 1;
nodes = (
"688 723 CURVE",
"740 549 LINE",
"380 549 LINE",
"434 723 LINE",
"477 866 OFFCURVE",
"518 1017 OFFCURVE",
"556 1167 CURVE",
"564 1167 LINE",
"604 1018 OFFCURVE",
"644 866 OFFCURVE"
);
}
);
width = 1128;
}
);
unicode = 0104;
userData = {
com.adobe.type.autohint = "ICA8aGludFNldExpc3Q+CiAgICA8aGludHNldCBw";
};
},
{
color = (255,153,153,1);
glyphname = AE;
lastChange = "2015-01-16 19:50:31 +0000";
layers = (
{
anchors = (
{
name = mark0;
position = "{1130, 1421}";
},
{
name = top;
position = "{1127, 800}";
}
);
hints = (
{
horizontal = 1;
origin = "{0, 0}";
target = "{0, 0}";
type = Tag;
name = hr01;
},
{
horizontal = 1;
origin = "{1, 0}";
target = "{0, 0}";
type = Tag;
name = hr02;
}
);
layerId = "C4389747-BECF-4D47-A11A-92B8AD605B66";
name = Bold;
paths = (
{
closed = 1;
nodes = (
"1595 0 LINE",
"1595 187 LINE",
"1027 187 LINE",
"1027 606 LINE",
"1486 606 LINE",
"1486 791 LINE",
"1027 791 LINE",
"1027 1155 LINE",
"1575 1155 LINE",
"1575 1340 LINE",
"674 1340 LINE",
"-4 0 LINE",
"226 0 LINE",
"404 358 LINE",
"806 358 LINE",
"806 0 LINE"
);
},
{
closed = 1;
nodes = (
"806 1170 LINE",
"806 532 LINE",
"489 532 LINE",
"599 754 LINE",
"664 889 OFFCURVE",
"732 1030 OFFCURVE",
"798 1170 CURVE"
);
}
);
width = 1694;
}
);
unicode = 00C6;
userData = {
com.adobe.type.autohint = "ICA8aGludFNldExpc3Q+CiAgICA8aGludHNldCBw";
com.typemytype.robofont.mark = (
1,
0.6,
0.6,
1
);
};
},
{
color = (255,153,153,1);
glyphname = B;
lastChange = "2015-01-16 19:50:31 +0000";
layers = (
{
anchors = (
{
name = mark0;
position = "{625, -45}";
},
{
name = top;
position = "{573, 800}";
}
);
hints = (
{
horizontal = 1;
origin = "{0, 0}";
target = "{0, 0}";
type = Tag;
name = hr01;
},
{
horizontal = 1;
origin = "{0, 6}";
target = "{0, 0}";
type = Tag;
name = hr02;
},
{
horizontal = 1;
origin = "{0, 13}";
target = "{0, 0}";
type = Tag;
name = hr03;
},
{
horizontal = 1;
origin = "{2, 0}";
target = "{0, 0}";
type = Tag;
name = hr04;
}
);
layerId = "C4389747-BECF-4D47-A11A-92B8AD605B66";
name = Bold;
paths = (
{
closed = 1;
nodes = (
"600 1340 CURVE",
"170 1340 LINE",
"170 0 LINE",
"632 0 LINE SMOOTH",
"928 0 OFFCURVE",
"1137 124 OFFCURVE",
"1137 397 CURVE SMOOTH",
"1137 581 OFFCURVE",
"1028 694 OFFCURVE",
"834 712 CURVE",
"834 720 LINE",
"1001 757 OFFCURVE",
"1065 886 OFFCURVE",
"1065 1016 CURVE SMOOTH",
"1065 1263 OFFCURVE",
"879 1340 OFFCURVE"
);
},
{
closed = 1;
nodes = (
"575 780 CURVE",
"392 780 LINE",
"392 1168 LINE",
"587 1168 LINE SMOOTH",
"768 1168 OFFCURVE",
"849 1119 OFFCURVE",
"849 989 CURVE SMOOTH",
"849 856 OFFCURVE",
"772 780 OFFCURVE"
);
},
{
closed = 1;
nodes = (
"608 172 CURVE",
"392 172 LINE",
"392 620 LINE",
"612 620 LINE SMOOTH",
"821 620 OFFCURVE",
"921 559 OFFCURVE",
"921 411 CURVE SMOOTH",
"921 246 OFFCURVE",
"812 172 OFFCURVE"
);
}
);
width = 1210;
}
);
unicode = 0042;
userData = {
com.adobe.type.autohint = "ICA8aGludFNldExpc3Q+CiAgICA8aGludHNldCBw";
com.typemytype.robofont.mark = (
1,
0.6,
0.6,
1
);
};
},
{
color = (255,153,153,1);
glyphname = C;
lastChange = "2015-01-16 19:50:31 +0000";
layers = (
{
anchors = (
{
name = mark0;
position = "{704, -45}";
},
{
name = top;
position = "{705, 800}";
}
);
hints = (
{
horizontal = 1;
origin = "{0, 0}";
target = "{0, 0}";
type = Tag;
name = hr00;
}
);
layerId = "C4389747-BECF-4D47-A11A-92B8AD605B66";
name = Bold;
paths = (
{
closed = 1;
nodes = (
"704 1365 CURVE SMOOTH",
"360 1365 OFFCURVE",
"97 1116 OFFCURVE",
"97 667 CURVE SMOOTH",
"97 213 OFFCURVE",
"354 -25 OFFCURVE",
"695 -25 CURVE SMOOTH",
"863 -25 OFFCURVE",
"1004 44 OFFCURVE",
"1111 169 CURVE",
"988 303 LINE",
"909 216 OFFCURVE",
"820 167 OFFCURVE",
"699 167 CURVE SMOOTH",
"466 167 OFFCURVE",
"324 352 OFFCURVE",
"324 675 CURVE SMOOTH",
"324 992 OFFCURVE",
"478 1174 OFFCURVE",
"707 1174 CURVE SMOOTH",
"811 1174 OFFCURVE",
"896 1131 OFFCURVE",
"966 1061 CURVE",
"1089 1199 LINE",
"1005 1289 OFFCURVE",
"866 1365 OFFCURVE"
);
}
);
width = 1170;
}
);
unicode = 0043;
userData = {
com.adobe.type.autohint = "ICA8aGludFNldExpc3Q+CiAgICA8aGludHNldCBw";
com.typemytype.robofont.mark = (
1,
0.6,
0.6,
1
);
};
},
{
glyphname = Ccedilla;
lastChange = "2015-01-16 19:50:31 +0000";
layers = (
{
hints = (
{
horizontal = 1;
origin = "{0, 0}";
target = "{0, 0}";
type = Tag;
name = hr00;
}
);
layerId = "C4389747-BECF-4D47-A11A-92B8AD605B66";
name = Bold;
paths = (
{
closed = 1;
nodes = (
"1116 171 CURVE",
"993 305 LINE",
"914 218 OFFCURVE",
"827 167 OFFCURVE",
"706 167 CURVE SMOOTH",
"473 167 OFFCURVE",
"324 360 OFFCURVE",
"324 674 CURVE SMOOTH",
"324 983 OFFCURVE",
"485 1174 OFFCURVE",
"714 1174 CURVE SMOOTH",
"818 1174 OFFCURVE",
"896 1128 OFFCURVE",
"966 1058 CURVE",
"1089 1196 LINE",
"1005 1285 OFFCURVE",
"873 1365 OFFCURVE",
"711 1365 CURVE SMOOTH",
"367 1365 OFFCURVE",
"97 1103 OFFCURVE",
"97 667 CURVE SMOOTH",
"97 254 OFFCURVE",
"327 9 OFFCURVE",
"635 -21 CURVE",
"567 -155 LINE",
"654 -176 OFFCURVE",
"694 -203 OFFCURVE",
"694 -249 CURVE SMOOTH",
"694 -304 OFFCURVE",
"620 -332 OFFCURVE",
"516 -344 CURVE",
"535 -442 LINE",
"705 -430 OFFCURVE",
"857 -372 OFFCURVE",
"857 -245 CURVE SMOOTH",
"857 -161 OFFCURVE",
"803 -120 OFFCURVE",
"736 -97 CURVE",
"772 -19 LINE",
"910 -3 OFFCURVE",
"1025 63 OFFCURVE"
);
}
);
width = 1170;
}
);
unicode = 00C7;
userData = {
com.adobe.type.autohint = "ICA8aGludFNldExpc3Q+CiAgICA8aGludHNldCBw";
};
},
{
color = (255,153,153,1);
glyphname = D;
lastChange = "2015-01-16 19:50:31 +0000";
layers = (
{
anchors = (
{
name = mark0;
position = "{626, -45}";
},
{
name = top;
position = "{587, 800}";
}
);
hints = (
{
horizontal = 1;
origin = "{0, 0}";
target = "{0, 0}";
type = Tag;
name = hr00;
}
);
layerId = "C4389747-BECF-4D47-A11A-92B8AD605B66";
name = Bold;
paths = (
{
closed = 1;
nodes = (
"534 1340 CURVE",
"170 1340 LINE",
"170 0 LINE",
"540 0 LINE SMOOTH",
"940 0 OFFCURVE",
"1169 235 OFFCURVE",
"1169 678 CURVE SMOOTH",
"1169 1127 OFFCURVE",
"950 1340 OFFCURVE"
);
},
{
closed = 1;
nodes = (
"514 179 CURVE",
"392 179 LINE",
"392 1161 LINE",
"520 1161 LINE SMOOTH",
"805 1161 OFFCURVE",
"943 1018 OFFCURVE",
"943 678 CURVE SMOOTH",
"943 341 OFFCURVE",
"795 179 OFFCURVE"
);
}
);
width = 1270;
}
);
unicode = 0044;
userData = {
com.adobe.type.autohint = "ICA8aGludFNldExpc3Q+CiAgICA8aGludHNldCBw";
com.typemytype.robofont.mark = (
1,
0.6,
0.6,
1
);
};
},
{
color = (255,153,153,1);
glyphname = Eth;
lastChange = "2015-01-16 19:50:31 +0000";
layers = (
{
anchors = (
{
name = top;
position = "{636, 800}";
}
);
hints = (
{
horizontal = 1;
origin = "{0, 0}";
target = "{0, 0}";
type = Tag;
name = hr00;
}
);
layerId = "C4389747-BECF-4D47-A11A-92B8AD605B66";
name = Bold;
paths = (
{
closed = 1;
nodes = (
"566 1340 CURVE",
"214 1340 LINE",
"214 757 LINE",
"58 748 LINE",
"58 641 LINE",
"214 641 LINE",
"214 0 LINE",
"577 0 LINE SMOOTH",
"977 0 OFFCURVE",
"1214 237 OFFCURVE",
"1214 676 CURVE SMOOTH",
"1214 1115 OFFCURVE",
"977 1340 OFFCURVE"
);
},
{
closed = 1;
nodes = (
"551 179 CURVE",
"434 179 LINE",
"434 641 LINE",
"725 641 LINE",
"725 757 LINE",
"434 757 LINE",
"434 1161 LINE",
"551 1161 LINE SMOOTH",
"831 1161 OFFCURVE",
"987 1007 OFFCURVE",
"987 676 CURVE SMOOTH",
"987 344 OFFCURVE",
"831 179 OFFCURVE"
);
}
);
width = 1313;
}
);
unicode = 00D0;
userData = {
com.adobe.type.autohint = "ICA8aGludFNldExpc3Q+CiAgICA8aGludHNldCBw";
com.typemytype.robofont.mark = (
1,
0.6,
0.6,
1
);
};
},
{
color = (255,153,153,1);
glyphname = E;
lastChange = "2015-01-16 19:50:31 +0000";
layers = (
{
anchors = (
{
name = top;
position = "{562, 800}";
}
);
hints = (
{
horizontal = 1;
origin = "{0, 0}";
target = "{0, 0}";
type = Tag;
name = hr00;
}
);
layerId = "C4389747-BECF-4D47-A11A-92B8AD605B66";
name = Bold;
paths = (
{
closed = 1;
nodes = (
"968 1340 LINE",
"170 1340 LINE",
"170 0 LINE",
"989 0 LINE",
"989 187 LINE",
"392 187 LINE",
"392 606 LINE",
"879 606 LINE",
"879 791 LINE",
"392 791 LINE",
"392 1155 LINE",
"968 1155 LINE"
);
}
);
width = 1088;
}
);
unicode = 0045;
userData = {
com.adobe.type.autohint = "ICA8aGludFNldExpc3Q+CiAgICA8aGludHNldCBw";
com.typemytype.robofont.mark = (
1,
0.6,
0.6,
1
);
};
},
{
glyphname = Eogonek;
lastChange = "2015-01-16 19:51:49 +0000";
layers = (
{
anchors = (
{
name = mark0;
position = "{583, 1386}";
}
);
hints = (
{
horizontal = 1;
origin = "{0, 0}";
target = "{0, 0}";
type = Tag;
name = hr00;
}
);
layerId = "C4389747-BECF-4D47-A11A-92B8AD605B66";
name = Bold;
paths = (
{
closed = 1;
nodes = (
"968 1340 LINE",
"170 1340 LINE",
"170 0 LINE",
"788 0 LINE",
"713 -47 OFFCURVE",
"631 -141 OFFCURVE",
"631 -259 CURVE SMOOTH",
"631 -378 OFFCURVE",
"725 -443 OFFCURVE",
"841 -443 CURVE SMOOTH",
"902 -443 OFFCURVE",
"980 -415 OFFCURVE",
"1025 -380 CURVE",
"968 -265 LINE",
"946 -282 OFFCURVE",
"920 -294 OFFCURVE",
"890 -294 CURVE SMOOTH",
"843 -294 OFFCURVE",
"796 -266 OFFCURVE",
"796 -206 CURVE SMOOTH",
"796 -105 OFFCURVE",
"887 -9 OFFCURVE",
"980 0 CURVE",
"989 0 LINE",
"989 187 LINE",
"392 187 LINE",
"392 606 LINE",
"879 606 LINE",
"879 791 LINE",
"392 791 LINE",
"392 1155 LINE",
"968 1155 LINE"
);
}
);
width = 1088;
}
);
unicode = 0118;
userData = {
com.adobe.type.autohint = "ICA8aGludFNldExpc3Q+CiAgICA8aGludHNldCBw";
};
},
{
color = (255,153,153,1);
glyphname = F;
lastChange = "2015-01-16 19:50:31 +0000";
layers = (
{
anchors = (
{
name = mark0;
position = "{292, -45}";
},
{
name = top;
position = "{570, 800}";
}
);
hints = (
{
horizontal = 1;
origin = "{0, 0}";
target = "{0, 0}";
type = Tag;
name = hr00;
}
);
layerId = "C4389747-BECF-4D47-A11A-92B8AD605B66";
name = Bold;
paths = (
{
closed = 1;
nodes = (
"971 1340 LINE",
"170 1340 LINE",
"170 0 LINE",
"392 0 LINE",
"392 570 LINE",
"884 570 LINE",
"884 755 LINE",
"392 755 LINE",
"392 1155 LINE",
"971 1155 LINE"
);
}
);
width = 1028;
}
);
unicode = 0046;
userData = {
com.adobe.type.autohint = "ICA8aGludFNldExpc3Q+CiAgICA8aGludHNldCBw";
com.typemytype.robofont.mark = (
1,
0.6,
0.6,
1
);
};
},
{
color = (255,153,153,1);
glyphname = G;
lastChange = "2015-01-16 19:50:31 +0000";
layers = (
{
anchors = (
{
name = mark0;
position = "{720, -45}";
},
{
name = top;
position = "{717, 800}";
}
);
hints = (
{
horizontal = 1;
origin = "{0, 0}";
target = "{0, 0}";
type = Tag;
name = hr00;
}
);
layerId = "C4389747-BECF-4D47-A11A-92B8AD605B66";
name = Bold;
paths = (
{
closed = 1;
nodes = (
"731 1365 CURVE SMOOTH",
"368 1365 OFFCURVE",
"97 1128 OFFCURVE",
"97 665 CURVE SMOOTH",
"97 207 OFFCURVE",
"360 -25 OFFCURVE",
"717 -25 CURVE SMOOTH",
"900 -25 OFFCURVE",
"1056 48 OFFCURVE",
"1147 133 CURVE",
"1147 717 LINE",
"694 717 LINE",
"694 536 LINE",
"949 536 LINE",
"949 232 LINE",
"903 192 OFFCURVE",
"822 167 OFFCURVE",
"743 167 CURVE SMOOTH",
"468 167 OFFCURVE",
"324 347 OFFCURVE",
"324 671 CURVE SMOOTH",
"324 999 OFFCURVE",
"486 1174 OFFCURVE",
"734 1174 CURVE SMOOTH",
"859 1174 OFFCURVE",
"937 1131 OFFCURVE",
"1005 1064 CURVE",
"1129 1202 LINE",
"1045 1287 OFFCURVE",
"915 1365 OFFCURVE"
);
}
);
width = 1272;
}
);
unicode = 0047;
userData = {
com.adobe.type.autohint = "ICA8aGludFNldExpc3Q+CiAgICA8aGludHNldCBw";
com.typemytype.robofont.mark = (
1,
0.6,
0.6,
1
);
};
},
{
color = (255,153,153,1);
glyphname = H;
lastChange = "2015-01-16 19:50:31 +0000";
layers = (
{
anchors = (
{
name = mark0;
position = "{669, -45}";
},
{
name = top;
position = "{672, 800}";
}
);
hints = (
{
horizontal = 1;
origin = "{0, 0}";
target = "{0, 0}";
type = Tag;
name = hr00;
}
);
layerId = "C4389747-BECF-4D47-A11A-92B8AD605B66";
name = Bold;
paths = (
{
closed = 1;
nodes = (
"392 1340 LINE",
"170 1340 LINE",
"170 0 LINE",
"392 0 LINE",
"392 604 LINE",
"954 604 LINE",
"954 0 LINE",
"1174 0 LINE",
"1174 1340 LINE",
"954 1340 LINE",
"954 796 LINE",
"392 796 LINE"
);
}
);
width = 1344;
}
);
unicode = 0048;
userData = {
com.adobe.type.autohint = "ICA8aGludFNldExpc3Q+CiAgICA8aGludHNldCBw";
com.typemytype.robofont.mark = (
1,
0.6,
0.6,
1
);
};
},
{
glyphname = Hbar;
lastChange = "2015-01-16 19:50:31 +0000";
layers = (
{
hints = (
{
horizontal = 1;
origin = "{0, 0}";
target = "{0, 0}";
type = Tag;
name = hr01;
},
{
horizontal = 1;
origin = "{0, 4}";
target = "{0, 0}";
type = Tag;
name = hr02;
},
{
horizontal = 1;
origin = "{0, 6}";
target = "{0, 0}";
type = Tag;
name = hr03;
},
{
horizontal = 1;
origin = "{0, 8}";
target = "{0, 0}";
type = Tag;
name = hr04;
},
{
horizontal = 1;
origin = "{0, 10}";
target = "{0, 0}";
type = Tag;
name = hr05;
}
);
layerId = "C4389747-BECF-4D47-A11A-92B8AD605B66";
name = Bold;
paths = (
{
closed = 1;
nodes = (
"1212 1003 LINE",
"1362 1003 LINE",
"1362 1118 LINE",
"1212 1118 LINE",
"1212 1340 LINE",
"990 1340 LINE",
"990 1118 LINE",
"428 1118 LINE",
"428 1340 LINE",
"208 1340 LINE",
"208 1118 LINE",
"56 1107 LINE",
"56 1003 LINE",
"208 1003 LINE",
"208 0 LINE",
"428 0 LINE",
"428 604 LINE",
"990 604 LINE",
"990 0 LINE",
"1212 0 LINE"
);
},
{
closed = 1;
nodes = (
"428 1003 LINE",
"990 1003 LINE",
"990 796 LINE",
"428 796 LINE"
);
}
);
width = 1420;
}
);
unicode = 0126;
userData = {
com.adobe.type.autohint = "ICA8aGludFNldExpc3Q+CiAgICA8aGludHNldCBw";
};
},
{
color = (255,153,153,1);
glyphname = I;
lastChange = "2015-01-16 19:50:31 +0000";
layers = (
{
anchors = (
{
name = mark0;
position = "{236, 0}";
},
{
name = top;
position = "{281, 800}";
}
);
hints = (
{
horizontal = 1;
origin = "{0, 0}";
target = "{0, 0}";
type = Tag;
name = hr00;
}
);
layerId = "C4389747-BECF-4D47-A11A-92B8AD605B66";
name = Bold;
paths = (
{
closed = 1;
nodes = (
"392 1340 LINE",
"170 1340 LINE",
"170 0 LINE",
"392 0 LINE"
);
}
);
width = 561;
}
);
unicode = 0049;
userData = {
com.adobe.type.autohint = "ICA8aGludFNldExpc3Q+CiAgICA8aGludHNldCBw";
com.typemytype.robofont.mark = (
1,
0.6,
0.6,
1
);
};
},
{
glyphname = Iogonek;
lastChange = "2015-01-16 19:51:49 +0000";
layers = (
{
anchors = (
{
name = mark0;
position = "{280, 1386}";
}
);
hints = (
{
horizontal = 1;
origin = "{0, 0}";
target = "{0, 0}";
type = Tag;
name = hr01;
},
{
horizontal = 1;
origin = "{0, 6}";
target = "{0, 0}";
type = Tag;
name = hr02;
},
{
horizontal = 1;
origin = "{0, 22}";
target = "{0, 0}";
type = Tag;
name = hr03;
}
);
layerId = "C4389747-BECF-4D47-A11A-92B8AD605B66";
name = Bold;
paths = (
{
closed = 1;
nodes = (
"392 1340 LINE",
"170 1340 LINE",
"170 0 LINE",
"226 0 LINE",
"163 -53 OFFCURVE",
"85 -137 OFFCURVE",
"85 -259 CURVE SMOOTH",
"85 -378 OFFCURVE",
"177 -443 OFFCURVE",
"294 -443 CURVE SMOOTH",
"356 -443 OFFCURVE",
"433 -415 OFFCURVE",
"477 -380 CURVE",
"422 -265 LINE",
"400 -282 OFFCURVE",
"373 -294 OFFCURVE",
"342 -294 CURVE SMOOTH",
"296 -294 OFFCURVE",
"249 -266 OFFCURVE",
"249 -206 CURVE SMOOTH",
"249 -127 OFFCURVE",
"296 -58 OFFCURVE",
"392 0 CURVE"
);
}
);
width = 561;
}
);
unicode = 012E;
userData = {
com.adobe.type.autohint = "ICA8aGludFNldExpc3Q+CiAgICA8aGludHNldCBw";
};
},
{
color = (255,153,153,1);
glyphname = J;
lastChange = "2015-01-16 19:50:31 +0000";
layers = (
{
anchors = (
{
name = mark0;
position = "{528, -45}";
},
{
name = top;
position = "{686, 800}";
}
);
hints = (
{
horizontal = 1;
origin = "{0, 0}";
target = "{0, 0}";
type = Tag;
name = hr00;
}
);
layerId = "C4389747-BECF-4D47-A11A-92B8AD605B66";
name = Bold;
paths = (
{
closed = 1;
nodes = (
"201 311 CURVE",
"48 200 LINE",
"132 51 OFFCURVE",
"260 -25 OFFCURVE",
"443 -25 CURVE SMOOTH",
"719 -25 OFFCURVE",
"834 165 OFFCURVE",
"834 406 CURVE SMOOTH",
"834 1340 LINE",
"613 1340 LINE",
"613 426 LINE SMOOTH",
"613 231 OFFCURVE",
"549 167 OFFCURVE",
"419 167 CURVE SMOOTH",
"333 167 OFFCURVE",
"259 212 OFFCURVE"
);
}
);
width = 997;
}
);
unicode = 004A;
userData = {
com.adobe.type.autohint = "ICA8aGludFNldExpc3Q+CiAgICA8aGludHNldCBw";
com.typemytype.robofont.mark = (
1,
0.6,
0.6,
1
);
};
},
{
color = (255,153,153,1);
glyphname = K;
lastChange = "2015-01-16 19:50:31 +0000";
layers = (
{
anchors = (
{
name = mark0;
position = "{671, -45}";
},
{
name = top;
position = "{673, 800}";
}
);
hints = (
{
horizontal = 1;
origin = "{0, 0}";
target = "{0, 0}";
type = Tag;
name = hr00;
}
);
layerId = "C4389747-BECF-4D47-A11A-92B8AD605B66";
name = Bold;
paths = (
{
closed = 1;
nodes = (
"392 1340 LINE",
"170 1340 LINE",
"170 0 LINE",
"392 0 LINE",
"392 400 LINE",
"593 646 LINE",
"965 0 LINE",
"1209 0 LINE",
"726 820 LINE",
"1141 1340 LINE",
"894 1340 LINE",
"396 711 LINE",
"392 711 LINE"
);
}
);
width = 1206;
}
);
unicode = 004B;
userData = {
com.adobe.type.autohint = "ICA8aGludFNldExpc3Q+CiAgICA8aGludHNldCBw";
com.typemytype.robofont.mark = (
1,
0.6,
0.6,
1
);
};
},
{
color = (255,153,153,1);
glyphname = L;
lastChange = "2015-01-16 19:50:31 +0000";
layers = (
{
anchors = (
{
name = mark0;
position = "{590, -45}";
},
{
name = top;
position = "{562, 800}";
}
);
hints = (
{
horizontal = 1;
origin = "{0, 0}";
target = "{0, 0}";
type = Tag;
name = hr00;
}
);
layerId = "C4389747-BECF-4D47-A11A-92B8AD605B66";
name = Bold;
paths = (
{
closed = 1;
nodes = (
"392 1340 LINE",
"170 1340 LINE",
"170 0 LINE",
"955 0 LINE",
"955 187 LINE",
"392 187 LINE"
);
}
);
width = 1012;
}
);
unicode = 004C;
userData = {
com.adobe.type.autohint = "ICA8aGludFNldExpc3Q+CiAgICA8aGludHNldCBw";
com.typemytype.robofont.mark = (
1,
0.6,
0.6,
1
);
};
},
{
glyphname = Lslash;
lastChange = "2015-01-16 19:50:31 +0000";
layers = (
{
hints = (
{
horizontal = 1;
origin = "{0, 0}";
target = "{0, 0}";
type = Tag;
name = hr00;
}
);
layerId = "C4389747-BECF-4D47-A11A-92B8AD605B66";
name = Bold;
paths = (
{
closed = 1;
nodes = (
"963 0 LINE",
"963 187 LINE",
"400 187 LINE",
"400 568 LINE",
"774 769 LINE",
"774 944 LINE",
"400 742 LINE",
"400 1340 LINE",
"179 1340 LINE",
"179 634 LINE",
"20 550 LINE",
"20 376 LINE",
"179 460 LINE",
"179 0 LINE"
);
}
);
width = 1022;
}
);
unicode = 0141;
userData = {
com.adobe.type.autohint = "ICA8aGludFNldExpc3Q+CiAgICA8aGludHNldCBw";
};
},
{
color = (255,153,153,1);
glyphname = M;
lastChange = "2015-01-16 19:50:31 +0000";
layers = (
{
anchors = (
{
name = mark0;
position = "{757, -45}";
},
{
name = top;
position = "{754, 800}";
}
);
hints = (
{
horizontal = 1;
origin = "{0, 0}";
target = "{0, 0}";
type = Tag;
name = hr01;
},
{
horizontal = 1;
origin = "{0, 7}";
target = "{0, 0}";
type = Tag;
name = hr02;
}
);
layerId = "C4389747-BECF-4D47-A11A-92B8AD605B66";
name = Bold;
paths = (
{
closed = 1;
nodes = (
"417 1340 LINE",
"180 1340 LINE",
"160 0 LINE",
"363 0 LINE",
"363 644 LINE SMOOTH",
"363 768 OFFCURVE",
"357 941 OFFCURVE",
"346 1063 CURVE",
"354 1063 LINE",
"461 761 LINE",
"698 128 LINE",
"805 128 LINE",
"1042 761 LINE",
"1150 1063 LINE",
"1158 1063 LINE",
"1147 941 OFFCURVE",
"1139 768 OFFCURVE",
"1139 644 CURVE SMOOTH",
"1141 0 LINE",
"1349 0 LINE",
"1327 1340 LINE",
"1091 1340 LINE",
"850 666 LINE",
"761 407 LINE",
"753 407 LINE",
"663 666 LINE"
);
}
);
width = 1510;
}
);
unicode = 004D;
userData = {
com.adobe.type.autohint = "ICA8aGludFNldExpc3Q+CiAgICA8aGludHNldCBw";
com.typemytype.robofont.mark = (
1,
0.6,
0.6,
1
);
};
},
{
color = (255,153,153,1);
glyphname = N;
lastChange = "2015-01-16 19:50:31 +0000";
layers = (
{
anchors = (
{
name = mark0;
position = "{680, -45}";
},
{
name = top;
position = "{665, 800}";
}
);
hints = (
{
horizontal = 1;
origin = "{0, 0}";
target = "{0, 0}";
type = Tag;
name = hr00;
}
);
layerId = "C4389747-BECF-4D47-A11A-92B8AD605B66";
name = Bold;
paths = (
{
closed = 1;
nodes = (
"396 1340 LINE",
"170 1340 LINE",
"170 0 LINE",
"380 0 LINE",
"380 615 LINE SMOOTH",
"380 763 OFFCURVE",
"363 919 OFFCURVE",
"352 1059 CURVE",
"361 1059 LINE",
"500 777 LINE",
"933 0 LINE",
"1161 0 LINE",
"1161 1340 LINE",
"951 1340 LINE",
"951 731 LINE SMOOTH",
"951 584 OFFCURVE",
"969 418 OFFCURVE",
"979 281 CURVE",
"971 281 LINE",
"831 566 LINE"
);
}
);
width = 1332;
}
);
unicode = 004E;
userData = {
com.adobe.type.autohint = "ICA8aGludFNldExpc3Q+CiAgICA8aGludHNldCBw";
com.typemytype.robofont.mark = (
1,
0.6,
0.6,
1
);
};
},
{
color = (255,153,153,1);
glyphname = O;
lastChange = "2015-01-16 19:51:49 +0000";
layers = (
{
anchors = (
{
name = top;
position = "{683, 800}";
}
);
hints = (
{
horizontal = 1;
origin = "{0, 2}";
target = "{0, 0}";
type = Tag;
name = hr00;
}
);
layerId = "C4389747-BECF-4D47-A11A-92B8AD605B66";
name = Bold;
paths = (
{
closed = 1;
nodes = (
"326 1365 OFFCURVE",
"97 1120 OFFCURVE",
"97 675 CURVE SMOOTH",
"97 228 OFFCURVE",
"326 -25 OFFCURVE",
"683 -25 CURVE SMOOTH",
"1040 -25 OFFCURVE",
"1270 228 OFFCURVE",
"1270 675 CURVE SMOOTH",
"1270 1118 OFFCURVE",
"1040 1365 OFFCURVE",
"683 1365 CURVE SMOOTH"
);
},
{
closed = 1;
nodes = (
"908 1174 OFFCURVE",
"1043 992 OFFCURVE",
"1043 675 CURVE SMOOTH",
"1043 355 OFFCURVE",
"908 167 OFFCURVE",
"683 167 CURVE SMOOTH",
"456 167 OFFCURVE",
"324 355 OFFCURVE",
"324 675 CURVE SMOOTH",
"324 992 OFFCURVE",
"456 1174 OFFCURVE",
"683 1174 CURVE SMOOTH"
);
}
);
width = 1369;
}
);
unicode = 004F;
userData = {
com.adobe.type.autohint = "ICA8aGludFNldExpc3Q+CiAgICA8aGludHNldCBw";
com.typemytype.robofont.mark = (
1,
0.6,
0.6,
1
);
};
},
{
glyphname = Ohorn;
lastChange = "2015-01-16 19:51:49 +0000";
layers = (
{
hints = (
{
horizontal = 1;
origin = "{0, 2}";
target = "{0, 0}";
type = Tag;
name = hr01;
},
{
horizontal = 1;
origin = "{0, 21}";
target = "{0, 0}";
type = Tag;
name = hr02;
},
{
horizontal = 1;
origin = "{0, 27}";
target = "{0, 0}";
type = Tag;
name = hr03;
},
{
horizontal = 1;
origin = "{1, 2}";
target = "{0, 0}";
type = Tag;
name = hr04;
}
);
layerId = "C4389747-BECF-4D47-A11A-92B8AD605B66";
name = Bold;
paths = (
{
closed = 1;
nodes = (
"1282 1504 OFFCURVE",
"1259 1555 OFFCURVE",
"1231 1592 CURVE",
"1077 1521 LINE",
"1094 1495 OFFCURVE",
"1107 1465 OFFCURVE",
"1107 1433 CURVE SMOOTH",
"1107 1357 OFFCURVE",
"1058 1320 OFFCURVE",
"958 1300 CURVE",
"878 1343 OFFCURVE",
"786 1365 OFFCURVE",
"684 1365 CURVE SMOOTH",
"339 1365 OFFCURVE",
"97 1109 OFFCURVE",
"97 676 CURVE SMOOTH",
"97 243 OFFCURVE",
"339 -25 OFFCURVE",
"684 -25 CURVE SMOOTH",
"1030 -25 OFFCURVE",
"1270 243 OFFCURVE",
"1270 676 CURVE SMOOTH",
"1270 916 OFFCURVE",
"1195 1101 OFFCURVE",
"1070 1220 CURVE",
"1199 1253 OFFCURVE",
"1282 1324 OFFCURVE",
"1282 1447 CURVE SMOOTH"
);
},
{
closed = 1;
nodes = (
"902 1174 OFFCURVE",
"1043 985 OFFCURVE",
"1043 676 CURVE SMOOTH",
"1043 366 OFFCURVE",
"902 167 OFFCURVE",
"684 167 CURVE SMOOTH",
"466 167 OFFCURVE",
"324 366 OFFCURVE",
"324 676 CURVE SMOOTH",
"324 985 OFFCURVE",
"466 1174 OFFCURVE",
"684 1174 CURVE SMOOTH"
);
}
);
width = 1369;
}
);
unicode = 01A0;
userData = {
com.adobe.type.autohint = "ICA8aGludFNldExpc3Q+CiAgICA8aGludHNldCBw";
};
},
{
glyphname = Oslash;
lastChange = "2015-01-16 19:51:49 +0000";
layers = (
{
anchors = (
{
name = mark0;
position = "{693, 1386}";
}
);
hints = (
{
horizontal = 1;
origin = "{0, 0}";
target = "{0, 0}";
type = Tag;
name = hr00;
}
);
layerId = "C4389747-BECF-4D47-A11A-92B8AD605B66";
name = Bold;
paths = (
{
closed = 1;
nodes = (
"1147 1129 CURVE",
"1297 1320 LINE",
"1177 1410 LINE",
"1046 1241 LINE",
"949 1322 OFFCURVE",
"825 1365 OFFCURVE",
"684 1365 CURVE SMOOTH",
"339 1365 OFFCURVE",
"97 1109 OFFCURVE",
"97 676 CURVE SMOOTH",
"97 481 OFFCURVE",
"146 320 OFFCURVE",
"232 202 CURVE",
"90 21 LINE",
"210 -70 LINE",
"335 92 LINE",
"432 15 OFFCURVE",
"549 -25 OFFCURVE",
"684 -25 CURVE SMOOTH",
"1030 -25 OFFCURVE",
"1270 243 OFFCURVE",
"1270 676 CURVE SMOOTH",
"1270 862 OFFCURVE",
"1226 1015 OFFCURVE"
);
},
{
closed = 1;
nodes = (
"915 1076 CURVE",
"379 388 LINE",
"343 466 OFFCURVE",
"324 564 OFFCURVE",
"324 676 CURVE SMOOTH",
"324 985 OFFCURVE",
"466 1174 OFFCURVE",
"684 1174 CURVE SMOOTH",
"776 1174 OFFCURVE",
"855 1140 OFFCURVE"
);
},
{
closed = 1;
nodes = (
"465 255 CURVE",
"997 939 LINE",
"1027 867 OFFCURVE",
"1043 778 OFFCURVE",
"1043 676 CURVE SMOOTH",
"1043 366 OFFCURVE",
"902 167 OFFCURVE",
"684 167 CURVE SMOOTH",
"597 167 OFFCURVE",
"523 199 OFFCURVE"
);
}
);
width = 1369;
}
);
unicode = 00D8;
userData = {
com.adobe.type.autohint = "ICA8aGludFNldExpc3Q+CiAgICA8aGludHNldCBw";
};
},
{
color = (255,153,153,1);
glyphname = OE;
lastChange = "2015-01-16 19:51:49 +0000";
layers = (
{
anchors = (
{
name = mark0;
position = "{1082, 1386}";
},
{
name = top;
position = "{872, 800}";
}
);
hints = (
{
horizontal = 1;
origin = "{0, 0}";
target = "{0, 0}";
type = Tag;
name = hr01;
},
{
horizontal = 1;
origin = "{1, 0}";
target = "{0, 0}";
type = Tag;
name = hr02;
}
);
layerId = "C4389747-BECF-4D47-A11A-92B8AD605B66";
name = Bold;
paths = (
{
closed = 1;
nodes = (
"1627 1340 LINE",
"766 1340 LINE SMOOTH",
"358 1340 OFFCURVE",
"97 1115 OFFCURVE",
"97 676 CURVE SMOOTH",
"97 237 OFFCURVE",
"358 0 OFFCURVE",
"755 0 CURVE SMOOTH",
"1647 0 LINE",
"1647 187 LINE",
"1081 187 LINE",
"1081 606 LINE",
"1539 606 LINE",
"1539 791 LINE",
"1081 791 LINE",
"1081 1155 LINE",
"1627 1155 LINE"
);
},
{
closed = 1;
nodes = (
"860 179 LINE",
"780 179 LINE SMOOTH",
"491 179 OFFCURVE",
"324 341 OFFCURVE",
"324 676 CURVE SMOOTH",
"324 1009 OFFCURVE",
"491 1161 OFFCURVE",
"780 1161 CURVE SMOOTH",
"860 1161 LINE"
);
}
);
width = 1745;
}
);
unicode = 0152;
userData = {
com.adobe.type.autohint = "ICA8aGludFNldExpc3Q+CiAgICA8aGludHNldCBw";
com.typemytype.robofont.mark = (
1,
0.6,
0.6,
1
);
};
},
{
color = (255,153,153,1);
glyphname = P;
lastChange = "2015-01-16 19:50:31 +0000";
layers = (
{
anchors = (
{
name = mark0;
position = "{296, -45}";
},
{
name = top;
position = "{599, 800}";
}
);
hints = (
{
horizontal = 1;
origin = "{0, 0}";
target = "{0, 0}";
type = Tag;
name = hr00;
}
);
layerId = "C4389747-BECF-4D47-A11A-92B8AD605B66";
name = Bold;
paths = (
{
closed = 1;
nodes = (
"621 1340 CURVE",
"170 1340 LINE",
"170 0 LINE",
"392 0 LINE",
"392 485 LINE",
"623 485 LINE SMOOTH",
"920 485 OFFCURVE",
"1117 632 OFFCURVE",
"1117 925 CURVE SMOOTH",
"1117 1232 OFFCURVE",
"928 1340 OFFCURVE"
);
},
{
closed = 1;
nodes = (
"602 663 CURVE",
"392 663 LINE",
"392 1164 LINE",
"604 1164 LINE SMOOTH",
"815 1164 OFFCURVE",
"900 1099 OFFCURVE",
"900 925 CURVE SMOOTH",
"900 755 OFFCURVE",
"818 663 OFFCURVE"
);
}
);
width = 1196;
}
);
unicode = 0050;
userData = {
com.adobe.type.autohint = "ICA8aGludFNldExpc3Q+CiAgICA8aGludHNldCBw";
com.typemytype.robofont.mark = (
1,
0.6,
0.6,
1
);
};
},
{
color = (255,153,153,1);
glyphname = Thorn;
lastChange = "2015-01-16 19:51:49 +0000";
layers = (
{
anchors = (
{
name = top;
position = "{648, 800}";
}
);
hints = (
{
horizontal = 1;
origin = "{0, 0}";
target = "{0, 0}";
type = Tag;
name = hr00;
}
);
layerId = "C4389747-BECF-4D47-A11A-92B8AD605B66";
name = Bold;
paths = (
{
closed = 1;
nodes = (
"395 1340 LINE",
"175 1340 LINE",
"175 0 LINE",
"395 0 LINE",
"395 286 LINE",
"615 286 LINE SMOOTH",
"906 286 OFFCURVE",
"1122 419 OFFCURVE",
"1122 716 CURVE SMOOTH",
"1122 1021 OFFCURVE",
"910 1124 OFFCURVE",
"615 1124 CURVE SMOOTH",
"395 1124 LINE"
);
},
{
closed = 1;
nodes = (
"596 464 CURVE",
"395 464 LINE",
"395 946 LINE",
"596 946 LINE SMOOTH",
"800 946 OFFCURVE",
"904 888 OFFCURVE",
"904 716 CURVE SMOOTH",
"904 543 OFFCURVE",
"804 464 OFFCURVE"
);
}
);
width = 1223;
}
);
unicode = 00DE;
userData = {
com.adobe.type.autohint = "ICA8aGludFNldExpc3Q+CiAgICA8aGludHNldCBw";
com.typemytype.robofont.mark = (
1,
0.6,
0.6,
1
);
};
},
{
color = (255,153,153,1);
glyphname = Q;
lastChange = "2015-01-16 19:50:31 +0000";
layers = (
{
anchors = (
{
name = mark0;
position = "{690, 1397}";
},
{
name = top;
position = "{702, 800}";
}
);
hints = (
{
horizontal = 1;
origin = "{0, 0}";
target = "{0, 0}";
type = Tag;
name = hr00;
}
);
layerId = "C4389747-BECF-4D47-A11A-92B8AD605B66";
name = Bold;
paths = (
{
closed = 1;
nodes = (
"1311 -311 CURVE",
"1270 -145 LINE",
"1233 -156 OFFCURVE",
"1177 -167 OFFCURVE",
"1118 -167 CURVE SMOOTH",
"985 -167 OFFCURVE",
"851 -119 OFFCURVE",
"811 -10 CURVE",
"1086 49 OFFCURVE",
"1266 289 OFFCURVE",
"1266 676 CURVE SMOOTH",
"1266 1117 OFFCURVE",
"1036 1365 OFFCURVE",
"679 1365 CURVE SMOOTH",
"323 1365 OFFCURVE",
"93 1119 OFFCURVE",
"93 676 CURVE SMOOTH",
"93 278 OFFCURVE",
"285 33 OFFCURVE",
"575 -15 CURVE",
"644 -214 OFFCURVE",
"832 -347 OFFCURVE",
"1093 -347 CURVE SMOOTH",
"1182 -347 OFFCURVE",
"1267 -329 OFFCURVE"
);
},
{
closed = 1;
nodes = (
"679 167 CURVE SMOOTH",
"455 167 OFFCURVE",
"320 358 OFFCURVE",
"320 676 CURVE SMOOTH",
"320 992 OFFCURVE",
"455 1174 OFFCURVE",
"679 1174 CURVE SMOOTH",
"903 1174 OFFCURVE",
"1038 992 OFFCURVE",
"1038 676 CURVE SMOOTH",
"1038 358 OFFCURVE",
"903 167 OFFCURVE"
);
}
);
width = 1369;
}
);
unicode = 0051;
userData = {
com.adobe.type.autohint = "ICA8aGludFNldExpc3Q+CiAgICA8aGludHNldCBw";
com.typemytype.robofont.mark = (
1,
0.6,
0.6,
1
);
};
},
{
color = (255,153,153,1);
glyphname = R;
lastChange = "2015-01-16 19:50:31 +0000";
layers = (
{
anchors = (
{
name = mark0;
position = "{645, -45}";
},
{
name = top;
position = "{622, 800}";
}
);
hints = (
{
horizontal = 1;
origin = "{0, 0}";
target = "{0, 0}";
type = Tag;
name = hr00;
}
);
layerId = "C4389747-BECF-4D47-A11A-92B8AD605B66";
name = Bold;
paths = (
{
closed = 1;
nodes = (
"613 534 LINE",
"901 0 LINE",
"1151 0 LINE",
"834 567 LINE",
"1000 620 OFFCURVE",
"1101 736 OFFCURVE",
"1101 952 CURVE SMOOTH",
"1101 1252 OFFCURVE",
"906 1340 OFFCURVE",
"630 1340 CURVE SMOOTH",
"170 1340 LINE",
"170 0 LINE",
"392 0 LINE",
"392 534 LINE"
);
},
{
closed = 1;
nodes = (
"601 712 CURVE",
"392 712 LINE",
"392 1164 LINE",
"605 1164 LINE SMOOTH",
"794 1164 OFFCURVE",
"883 1117 OFFCURVE",
"883 952 CURVE SMOOTH",
"883 782 OFFCURVE",
"791 712 OFFCURVE"
);
}
);
width = 1211;
}
);
unicode = 0052;
userData = {
com.adobe.type.autohint = "ICA8aGludFNldExpc3Q+CiAgICA8aGludHNldCBw";
com.typemytype.robofont.mark = (
1,
0.6,
0.6,
1
);
};
},
{
color = (255,153,153,1);
glyphname = S;
lastChange = "2015-01-16 19:50:31 +0000";
layers = (
{
anchors = (
{
name = mark0;
position = "{561, -45}";
},
{
name = top;
position = "{563, 800}";
}
);
hints = (
{
horizontal = 1;
origin = "{0, 0}";
target = "{0, 0}";
type = Tag;
name = hr00;
}
);
layerId = "C4389747-BECF-4D47-A11A-92B8AD605B66";
name = Bold;
paths = (
{
closed = 1;
nodes = (
"209 316 CURVE",
"80 163 LINE",
"205 40 OFFCURVE",
"371 -25 OFFCURVE",
"556 -25 CURVE SMOOTH",
"855 -25 OFFCURVE",
"1032 152 OFFCURVE",
"1032 368 CURVE SMOOTH",
"1032 563 OFFCURVE",
"913 663 OFFCURVE",
"755 730 CURVE SMOOTH",
"571 807 LINE SMOOTH",
"462 853 OFFCURVE",
"357 904 OFFCURVE",
"357 1015 CURVE SMOOTH",
"357 1119 OFFCURVE",
"445 1174 OFFCURVE",
"578 1174 CURVE SMOOTH",
"697 1174 OFFCURVE",
"789 1135 OFFCURVE",
"873 1062 CURVE",
"987 1202 LINE",
"884 1307 OFFCURVE",
"739 1365 OFFCURVE",
"580 1365 CURVE SMOOTH",
"321 1365 OFFCURVE",
"134 1212 OFFCURVE",
"134 1001 CURVE SMOOTH",
"134 804 OFFCURVE",
"273 694 OFFCURVE",
"404 640 CURVE",
"588 560 LINE",
"711 505 OFFCURVE",
"806 467 OFFCURVE",
"806 350 CURVE SMOOTH",
"806 239 OFFCURVE",
"721 167 OFFCURVE",
"560 167 CURVE SMOOTH",
"429 167 OFFCURVE",
"305 223 OFFCURVE"
);
}
);
width = 1103;
}
);
unicode = 0053;
userData = {
com.adobe.type.autohint = "ICA8aGludFNldExpc3Q+CiAgICA8aGludHNldCBw";
com.typemytype.robofont.mark = (
1,
0.6,
0.6,
1
);
};
},
{
color = (255,153,153,1);
glyphname = uni1E9E;
lastChange = "2015-01-16 19:50:31 +0000";
layers = (
{
anchors = (
{
name = top;
position = "{740, 800}";
}
);
hints = (
{
horizontal = 1;
origin = "{0, 0}";
target = "{0, 0}";
type = Tag;
name = hr01;
},
{
horizontal = 1;
origin = "{0, 1}";
target = "{0, 0}";
type = Tag;
name = hr02;
},
{
horizontal = 1;
origin = "{0, 17}";
target = "{0, 0}";
type = Tag;
name = hr03;
}
);
layerId = "C4389747-BECF-4D47-A11A-92B8AD605B66";
name = Bold;
paths = (
{
closed = 1;
nodes = (
"175 848 CURVE",
"175 0 LINE",
"395 0 LINE",
"395 813 LINE SMOOTH",
"395 1066 OFFCURVE",
"510 1185 OFFCURVE",
"711 1185 CURVE SMOOTH",
"839 1185 OFFCURVE",
"921 1116 OFFCURVE",
"962 1035 CURVE",
"703 743 LINE",
"718 608 LINE",
"998 559 OFFCURVE",
"1080 466 OFFCURVE",
"1080 356 CURVE SMOOTH",
"1080 239 OFFCURVE",
"1006 157 OFFCURVE",
"884 157 CURVE SMOOTH",
"801 157 OFFCURVE",
"726 189 OFFCURVE",
"653 267 CURVE",
"533 128 LINE",
"613 42 OFFCURVE",
"743 -25 OFFCURVE",
"907 -25 CURVE SMOOTH",
"1156 -25 OFFCURVE",
"1306 140 OFFCURVE",
"1306 356 CURVE SMOOTH",
"1306 553 OFFCURVE",
"1180 679 OFFCURVE",
"928 739 CURVE",
"1187 1027 LINE",
"1118 1230 OFFCURVE",
"961 1365 OFFCURVE",
"718 1365 CURVE SMOOTH",
"344 1365 OFFCURVE",
"175 1139 OFFCURVE"
);
}
);
width = 1389;
}
);
unicode = 1E9E;
userData = {
com.adobe.type.autohint = "ICA8aGludFNldExpc3Q+CiAgICA8aGludHNldCBw";
com.typemytype.robofont.mark = (
1,
0.6,
0.6,
1
);
};
},
{
glyphname = uni018F;
lastChange = "2015-01-16 19:50:31 +0000";
layers = (
{
anchors = (
{
name = mark0;
position = "{742, -45}";
}
);
hints = (
{
horizontal = 1;
origin = "{0, 0}";
target = "{0, 0}";
type = Tag;
name = hr00;
}
);
layerId = "C4389747-BECF-4D47-A11A-92B8AD605B66";
name = Bold;
paths = (
{
closed = 1;
nodes = (
"1060 569 LINE",
"1031 314 OFFCURVE",
"892 163 OFFCURVE",
"702 163 CURVE SMOOTH",
"515 163 OFFCURVE",
"380 313 OFFCURVE",
"361 569 CURVE"
);
},
{
closed = 1;
nodes = (
"375 1053 LINE",
"451 1123 OFFCURVE",
"559 1178 OFFCURVE",
"688 1178 CURVE SMOOTH",
"916 1178 OFFCURVE",
"1049 1015 OFFCURVE",
"1064 734 CURVE",
"141 734 LINE",
"138 709 OFFCURVE",
"136 685 OFFCURVE",
"136 664 CURVE SMOOTH",
"136 243 OFFCURVE",
"362 -25 OFFCURVE",
"702 -25 CURVE SMOOTH",
"1043 -25 OFFCURVE",
"1284 241 OFFCURVE",
"1284 674 CURVE SMOOTH",
"1284 1106 OFFCURVE",
"1055 1365 OFFCURVE",
"710 1365 CURVE SMOOTH",
"518 1365 OFFCURVE",
"374 1298 OFFCURVE",
"275 1204 CURVE"
);
}
);
width = 1387;
}
);
unicode = 018F;
userData = {
com.adobe.type.autohint = "ICA8aGludFNldExpc3Q+CiAgICA8aGludHNldCBw";
};
},
{
color = (255,153,153,1);
glyphname = T;
lastChange = "2015-01-16 19:50:31 +0000";
layers = (
{
anchors = (
{
name = mark0;
position = "{553, -45}";
},
{
name = top;
position = "{552, 800}";
}
);
hints = (
{
horizontal = 1;
origin = "{0, 0}";
target = "{0, 0}";
type = Tag;
name = hr00;
}
);
layerId = "C4389747-BECF-4D47-A11A-92B8AD605B66";
name = Bold;
paths = (
{
closed = 1;
nodes = (
"50 1155 LINE",
"443 1155 LINE",
"443 0 LINE",
"663 0 LINE",
"663 1155 LINE",
"1055 1155 LINE",
"1055 1340 LINE",
"50 1340 LINE"
);
}
);
width = 1106;
}
);
unicode = 0054;
userData = {
com.adobe.type.autohint = "ICA8aGludFNldExpc3Q+CiAgICA8aGludHNldCBw";
com.typemytype.robofont.mark = (
1,
0.6,
0.6,
1
);
};
},
{
glyphname = Tbar;
lastChange = "2015-01-16 19:50:31 +0000";
layers = (
{
components = (
{
name = T;
transform = "{1, 0, 0, 1, 0, 0}";
}
);
hints = (
{
horizontal = 1;
origin = "{0, 0}";
target = "{0, 0}";
type = Tag;
name = hr00;
}
);
layerId = "C4389747-BECF-4D47-A11A-92B8AD605B66";
name = Bold;
paths = (
{
closed = 1;
nodes = (
"859 661 LINE",
"236 661 LINE",
"236 486 LINE",
"859 486 LINE"
);
}
);
width = 1106;
}
);
unicode = 0166;
userData = {
com.adobe.type.autohint = "ICA8aGludFNldExpc3Q+CiAgICA8aGludHNldCBw";
};
},
{
color = (255,153,153,1);
glyphname = U;
lastChange = "2015-01-16 19:50:31 +0000";
layers = (
{
anchors = (
{
name = top;
position = "{665, 800}";
}
);
hints = (
{
horizontal = 1;
origin = "{0, 0}";
target = "{0, 0}";
type = Tag;
name = hr00;
}
);
layerId = "C4389747-BECF-4D47-A11A-92B8AD605B66";
name = Bold;
paths = (
{
closed = 1;
nodes = (
"385 1340 LINE",
"164 1340 LINE",
"164 571 LINE SMOOTH",
"164 136 OFFCURVE",
"364 -25 OFFCURVE",
"665 -25 CURVE SMOOTH",
"967 -25 OFFCURVE",
"1166 134 OFFCURVE",
"1166 571 CURVE SMOOTH",
"1166 1340 LINE",
"954 1340 LINE",
"954 557 LINE SMOOTH",
"954 258 OFFCURVE",
"833 167 OFFCURVE",
"665 167 CURVE SMOOTH",
"500 167 OFFCURVE",
"385 259 OFFCURVE",
"385 557 CURVE SMOOTH"
);
}
);
width = 1329;
}
);
unicode = 0055;
userData = {
com.adobe.type.autohint = "ICA8aGludFNldExpc3Q+CiAgICA8aGludHNldCBw";
com.typemytype.robofont.mark = (
1,
0.6,
0.6,
1
);
};
},
{
glyphname = Uhorn;
lastChange = "2015-01-16 19:51:49 +0000";
layers = (
{
anchors = (
{
name = mark0;
position = "{664, -45}";
}
);
hints = (
{
horizontal = 1;
origin = "{0, 0}";
target = "{0, 0}";
type = Tag;
name = hr00;
}
);
layerId = "C4389747-BECF-4D47-A11A-92B8AD605B66";
name = Bold;
paths = (
{
closed = 1;
nodes = (
"1350 1633 CURVE",
"1196 1562 LINE",
"1213 1536 OFFCURVE",
"1227 1506 OFFCURVE",
"1227 1474 CURVE SMOOTH",
"1227 1375 OFFCURVE",
"1150 1351 OFFCURVE",
"1053 1340 CURVE",
"954 1340 LINE",
"954 565 LINE SMOOTH",
"954 265 OFFCURVE",
"833 167 OFFCURVE",
"665 167 CURVE SMOOTH",
"500 167 OFFCURVE",
"385 265 OFFCURVE",
"385 565 CURVE SMOOTH",
"385 1340 LINE",
"164 1340 LINE",
"164 579 LINE SMOOTH",
"164 141 OFFCURVE",
"364 -25 OFFCURVE",
"665 -25 CURVE SMOOTH",
"967 -25 OFFCURVE",
"1166 141 OFFCURVE",
"1166 579 CURVE SMOOTH",
"1166 1253 LINE",
"1295 1279 OFFCURVE",
"1402 1346 OFFCURVE",
"1402 1488 CURVE SMOOTH",
"1402 1545 OFFCURVE",
"1378 1596 OFFCURVE"
);
}
);
width = 1360;
}
);
unicode = 01AF;
userData = {
com.adobe.type.autohint = "ICA8aGludFNldExpc3Q+CiAgICA8aGludHNldCBw";
};
},
{
glyphname = Uogonek;
lastChange = "2015-01-16 19:51:49 +0000";
layers = (
{
anchors = (
{
name = mark0;
position = "{664, 1386}";
}
);
hints = (
{
horizontal = 1;
origin = "{0, 0}";
target = "{0, 0}";
type = Tag;
name = hr00;
}
);
layerId = "C4389747-BECF-4D47-A11A-92B8AD605B66";
name = Bold;
paths = (
{
closed = 1;
nodes = (
"385 1340 LINE",
"164 1340 LINE",
"164 579 LINE SMOOTH",
"164 163 OFFCURVE",
"346 -11 OFFCURVE",
"639 -22 CURVE",
"594 -66 OFFCURVE",
"508 -141 OFFCURVE",
"508 -259 CURVE SMOOTH",
"508 -378 OFFCURVE",
"602 -443 OFFCURVE",
"718 -443 CURVE SMOOTH",
"779 -443 OFFCURVE",
"857 -415 OFFCURVE",
"901 -380 CURVE",
"845 -265 LINE",
"822 -282 OFFCURVE",
"797 -294 OFFCURVE",
"766 -294 CURVE SMOOTH",
"720 -294 OFFCURVE",
"673 -266 OFFCURVE",
"673 -206 CURVE SMOOTH",
"673 -143 OFFCURVE",
"726 -63 OFFCURVE",
"830 -12 CURVE",
"1043 86 OFFCURVE",
"1166 211 OFFCURVE",
"1166 579 CURVE SMOOTH",
"1166 1340 LINE",
"954 1340 LINE",
"954 565 LINE SMOOTH",
"954 265 OFFCURVE",
"833 167 OFFCURVE",
"665 167 CURVE SMOOTH",
"500 167 OFFCURVE",
"385 265 OFFCURVE",
"385 565 CURVE SMOOTH"
);
}
);
width = 1329;
}
);
unicode = 0172;
userData = {
com.adobe.type.autohint = "ICA8aGludFNldExpc3Q+CiAgICA8aGludHNldCBw";
};
},
{
color = (255,153,153,1);
glyphname = V;
lastChange = "2015-01-16 19:50:31 +0000";
layers = (
{
anchors = (
{
name = mark0;
position = "{538, -45}";
},
{
name = top;
position = "{540, 800}";
}
);
hints = (
{
horizontal = 1;
origin = "{0, 0}";
target = "{0, 0}";
type = Tag;
name = hr01;
},
{
horizontal = 1;
origin = "{0, 9}";
target = "{0, 0}";
type = Tag;
name = hr02;
}
);
layerId = "C4389747-BECF-4D47-A11A-92B8AD605B66";
name = Bold;
paths = (
{
closed = 1;
nodes = (
"224 1340 LINE",
"-9 1340 LINE",
"410 0 LINE",
"671 0 LINE",
"1089 1340 LINE",
"863 1340 LINE",
"669 654 LINE",
"627 500 OFFCURVE",
"596 370 OFFCURVE",
"549 216 CURVE",
"541 216 LINE",
"495 370 OFFCURVE",
"464 500 OFFCURVE",
"420 654 CURVE SMOOTH"
);
}
);
width = 1079;
}
);
unicode = 0056;
userData = {
com.adobe.type.autohint = "ICA8aGludFNldExpc3Q+CiAgICA8aGludHNldCBw";
com.typemytype.robofont.mark = (
1,
0.6,
0.6,
1
);
};
},
{
color = (255,153,153,1);
glyphname = W;
lastChange = "2015-01-16 19:50:31 +0000";
layers = (
{
anchors = (
{
name = mark0;
position = "{818, -45}";
},
{
name = top;
position = "{811, 800}";
}
);
hints = (
{
horizontal = 1;
origin = "{0, 0}";
target = "{0, 0}";
type = Tag;
name = hr00;
}
);
layerId = "C4389747-BECF-4D47-A11A-92B8AD605B66";
name = Bold;
paths = (
{
closed = 1;
nodes = (
"262 1340 LINE",
"36 1340 LINE",
"306 0 LINE",
"573 0 LINE",
"746 732 LINE",
"768 835 OFFCURVE",
"788 936 OFFCURVE",
"808 1038 CURVE",
"817 1038 LINE",
"833 936 OFFCURVE",
"854 835 OFFCURVE",
"876 732 CURVE",
"1052 0 LINE",
"1324 0 LINE",
"1587 1340 LINE",
"1375 1340 LINE",
"1251 650 LINE",
"1230 509 OFFCURVE",
"1207 365 OFFCURVE",
"1185 220 CURVE",
"1176 220 LINE",
"1146 365 OFFCURVE",
"1116 511 OFFCURVE",
"1086 650 CURVE",
"916 1340 LINE",
"722 1340 LINE",
"552 650 LINE",
"521 508 OFFCURVE",
"491 364 OFFCURVE",
"464 220 CURVE",
"455 220 LINE",
"432 364 OFFCURVE",
"408 507 OFFCURVE",
"385 650 CURVE"
);
}
);
width = 1623;
}
);
unicode = 0057;
userData = {
com.adobe.type.autohint = "ICA8aGludFNldExpc3Q+CiAgICA8aGludHNldCBw";
com.typemytype.robofont.mark = (
1,
0.6,
0.6,
1
);
};
},
{
color = (255,153,153,1);
glyphname = X;
lastChange = "2015-01-16 19:50:31 +0000";
layers = (
{
anchors = (
{
name = mark0;
position = "{529, -45}";
},
{
name = top;
position = "{543, 800}";
}
);
hints = (
{
horizontal = 1;
origin = "{0, 0}";
target = "{0, 0}";
type = Tag;
name = hr00;
}
);
layerId = "C4389747-BECF-4D47-A11A-92B8AD605B66";
name = Bold;
paths = (
{
closed = 1;
nodes = (
"48 1340 LINE",
"408 691 LINE",
"25 0 LINE",
"258 0 LINE",
"426 328 LINE",
"459 395 OFFCURVE",
"490 463 OFFCURVE",
"527 545 CURVE",
"535 545 LINE",
"575 463 OFFCURVE",
"610 395 OFFCURVE",
"645 328 CURVE SMOOTH",
"817 0 LINE",
"1062 0 LINE",
"680 681 LINE",
"1037 1340 LINE",
"803 1340 LINE",
"652 1031 LINE",
"621 970 OFFCURVE",
"596 909 OFFCURVE",
"562 829 CURVE",
"553 829 LINE",
"512 909 OFFCURVE",
"483 970 OFFCURVE",
"451 1031 CURVE",
"294 1340 LINE"
);
}
);
width = 1085;
}
);
unicode = 0058;
userData = {
com.adobe.type.autohint = "ICA8aGludFNldExpc3Q+CiAgICA8aGludHNldCBw";
com.typemytype.robofont.mark = (
1,
0.6,
0.6,
1
);
};
},
{
color = (255,153,153,1);
glyphname = Y;
lastChange = "2015-01-16 19:50:31 +0000";
layers = (
{
anchors = (
{
name = top;
position = "{502, 800}";
}
);
hints = (
{
horizontal = 1;
origin = "{0, 0}";
target = "{0, 0}";
type = Tag;
name = hr00;
}
);
layerId = "C4389747-BECF-4D47-A11A-92B8AD605B66";
name = Bold;
paths = (
{
closed = 1;
nodes = (
"-11 1340 LINE",
"392 503 LINE",
"392 0 LINE",
"612 0 LINE",
"612 503 LINE",
"1016 1340 LINE",
"787 1340 LINE",
"634 989 LINE",
"595 890 OFFCURVE",
"550 796 OFFCURVE",
"508 695 CURVE",
"500 695 LINE",
"456 796 OFFCURVE",
"418 890 OFFCURVE",
"378 989 CURVE",
"225 1340 LINE"
);
}
);
width = 1006;
}
);
unicode = 0059;
userData = {
com.adobe.type.autohint = "ICA8aGludFNldExpc3Q+CiAgICA8aGludHNldCBw";
com.typemytype.robofont.mark = (
1,
0.6,
0.6,
1
);
};
},
{
color = (255,153,153,1);
glyphname = Z;
lastChange = "2015-01-16 19:50:31 +0000";
layers = (
{
anchors = (
{
name = mark0;
position = "{573, -45}";
},
{
name = top;
position = "{551, 800}";
}
);
hints = (
{
horizontal = 1;
origin = "{0, 0}";
target = "{0, 0}";
type = Tag;
name = hr00;
}
);
layerId = "C4389747-BECF-4D47-A11A-92B8AD605B66";
name = Bold;
paths = (
{
closed = 1;
nodes = (
"744 1155 LINE",
"81 133 LINE",
"81 0 LINE",
"1022 0 LINE",
"1022 187 LINE",
"353 187 LINE",
"1017 1209 LINE",
"1017 1340 LINE",
"141 1340 LINE",
"141 1155 LINE"
);
}
);
width = 1099;
}
);
unicode = 005A;
userData = {
com.adobe.type.autohint = "ICA8aGludFNldExpc3Q+CiAgICA8aGludHNldCBw";
com.typemytype.robofont.mark = (
1,
0.6,
0.6,
1
);
};
},
{
glyphname = uni015E;
lastChange = "2015-01-16 19:50:31 +0000";
layers = (
{
hints = (
{
horizontal = 1;
origin = "{0, 0}";
target = "{0, 0}";
type = Tag;
name = hr00;
}
);
layerId = "C4389747-BECF-4D47-A11A-92B8AD605B66";
name = Bold;
paths = (
{
closed = 1;
nodes = (
"760 730 CURVE",
"576 807 LINE SMOOTH",
"467 853 OFFCURVE",
"359 895 OFFCURVE",
"359 1006 CURVE SMOOTH",
"359 1109 OFFCURVE",
"448 1174 OFFCURVE",
"580 1174 CURVE SMOOTH",
"697 1174 OFFCURVE",
"791 1128 OFFCURVE",
"875 1054 CURVE",
"989 1195 LINE",
"886 1299 OFFCURVE",
"738 1365 OFFCURVE",
"580 1365 CURVE SMOOTH",
"324 1365 OFFCURVE",
"137 1204 OFFCURVE",
"137 993 CURVE SMOOTH",
"137 797 OFFCURVE",
"278 694 OFFCURVE",
"408 640 CURVE",
"593 560 LINE",
"716 505 OFFCURVE",
"806 469 OFFCURVE",
"806 352 CURVE SMOOTH",
"806 240 OFFCURVE",
"718 167 OFFCURVE",
"561 167 CURVE SMOOTH",
"432 167 OFFCURVE",
"303 231 OFFCURVE",
"207 324 CURVE",
"77 172 LINE",
"186 62 OFFCURVE",
"332 -7 OFFCURVE",
"491 -21 CURVE",
"424 -155 LINE",
"509 -176 OFFCURVE",
"548 -203 OFFCURVE",
"548 -249 CURVE SMOOTH",
"548 -304 OFFCURVE",
"476 -332 OFFCURVE",
"372 -344 CURVE",
"390 -442 LINE",
"560 -430 OFFCURVE",
"712 -372 OFFCURVE",
"712 -245 CURVE SMOOTH",
"712 -161 OFFCURVE",
"659 -120 OFFCURVE",
"592 -97 CURVE",
"627 -21 LINE",
"881 5 OFFCURVE",
"1032 171 OFFCURVE",
"1032 370 CURVE SMOOTH",
"1032 565 OFFCURVE",
"918 663 OFFCURVE"
);
}
);
width = 1103;
}
);
unicode = 015E;
userData = {
com.adobe.type.autohint = "ICA8aGludFNldExpc3Q+CiAgICA8aGludHNldCBw";
};
},
{
glyphname = uni0162;
lastChange = "2015-01-16 19:50:31 +0000";
layers = (
{
hints = (
{
horizontal = 1;
origin = "{0, 0}";
target = "{0, 0}";
type = Tag;
name = hr01;
},
{
horizontal = 1;
origin = "{0, 14}";
target = "{0, 0}";
type = Tag;
name = hr02;
}
);
layerId = "C4389747-BECF-4D47-A11A-92B8AD605B66";
name = Bold;
paths = (
{
closed = 1;
nodes = (
"582 -97 CURVE",
"627 0 LINE",
"663 0 LINE",
"663 1155 LINE",
"1055 1155 LINE",
"1055 1340 LINE",
"50 1340 LINE",
"50 1155 LINE",
"443 1155 LINE",
"443 0 LINE",
"492 0 LINE",
"414 -155 LINE",
"500 -176 OFFCURVE",
"539 -203 OFFCURVE",
"539 -249 CURVE SMOOTH",
"539 -304 OFFCURVE",
"466 -332 OFFCURVE",
"361 -344 CURVE",
"381 -442 LINE",
"551 -430 OFFCURVE",
"703 -372 OFFCURVE",
"703 -245 CURVE SMOOTH",
"703 -161 OFFCURVE",
"650 -120 OFFCURVE"
);
}
);
width = 1106;
}
);
unicode = 0162;
userData = {
com.adobe.type.autohint = "ICA8aGludFNldExpc3Q+CiAgICA8aGludHNldCBw";
};
},
{
glyphname = uni01EA;
lastChange = "2015-01-16 19:50:31 +0000";
layers = (
{
anchors = (
{
name = mark0;
position = "{682, 1386}";
}
);
hints = (
{
horizontal = 1;
origin = "{0, 0}";
target = "{0, 0}";
type = Tag;
name = hr00;
}
);
layerId = "C4389747-BECF-4D47-A11A-92B8AD605B66";
name = Bold;
paths = (
{
closed = 1;
nodes = (
"659 -22 CURVE",
"589 -79 OFFCURVE",
"530 -163 OFFCURVE",
"530 -259 CURVE SMOOTH",
"530 -378 OFFCURVE",
"625 -443 OFFCURVE",
"741 -443 CURVE SMOOTH",
"801 -443 OFFCURVE",
"879 -415 OFFCURVE",
"923 -380 CURVE",
"869 -265 LINE",
"846 -282 OFFCURVE",
"820 -294 OFFCURVE",
"789 -294 CURVE SMOOTH",
"744 -294 OFFCURVE",
"697 -266 OFFCURVE",
"697 -206 CURVE SMOOTH",
"697 -141 OFFCURVE",
"744 -60 OFFCURVE",
"850 -12 CURVE SMOOTH",
"1116 110 OFFCURVE",
"1270 306 OFFCURVE",
"1270 676 CURVE SMOOTH",
"1270 1107 OFFCURVE",
"1030 1365 OFFCURVE",
"684 1365 CURVE SMOOTH",
"339 1365 OFFCURVE",
"97 1109 OFFCURVE",
"97 676 CURVE SMOOTH",
"97 260 OFFCURVE",
"314 -7 OFFCURVE"
);
},
{
closed = 1;
nodes = (
"1043 676 CURVE SMOOTH",
"1043 366 OFFCURVE",
"902 167 OFFCURVE",
"684 167 CURVE SMOOTH",
"466 167 OFFCURVE",
"324 366 OFFCURVE",
"324 676 CURVE SMOOTH",
"324 985 OFFCURVE",
"466 1174 OFFCURVE",
"684 1174 CURVE SMOOTH",
"902 1174 OFFCURVE",
"1043 985 OFFCURVE"
);
}
);
width = 1369;
}
);
unicode = 01EA;
userData = {
com.adobe.type.autohint = "ICA8aGludFNldExpc3Q+CiAgICA8aGludHNldCBw";
};
},
{
glyphname = uni0243;
lastChange = "2015-01-16 19:50:31 +0000";
layers = (
{
hints = (
{
horizontal = 1;
origin = "{0, 0}";
target = "{0, 0}";
type = Tag;
name = hr01;
},
{
horizontal = 1;
origin = "{0, 4}";
target = "{0, 0}";
type = Tag;
name = hr02;
},
{
horizontal = 1;
origin = "{0, 17}";
target = "{0, 0}";
type = Tag;
name = hr03;
},
{
horizontal = 1;
origin = "{1, 0}";
target = "{0, 0}";
type = Tag;
name = hr04;
},
{
horizontal = 1;
origin = "{2, 0}";
target = "{0, 0}";
type = Tag;
name = hr05;
}
);
layerId = "C4389747-BECF-4D47-A11A-92B8AD605B66";
name = Bold;
paths = (
{
closed = 1;
nodes = (
"878 734 CURVE",
"878 742 LINE",
"1036 782 OFFCURVE",
"1108 894 OFFCURVE",
"1108 1018 CURVE SMOOTH",
"1108 1251 OFFCURVE",
"910 1340 OFFCURVE",
"636 1340 CURVE SMOOTH",
"214 1340 LINE",
"214 476 LINE",
"58 467 LINE",
"58 360 LINE",
"214 360 LINE",
"214 0 LINE",
"668 0 LINE SMOOTH",
"964 0 OFFCURVE",
"1181 129 OFFCURVE",
"1181 404 CURVE SMOOTH",
"1181 593 OFFCURVE",
"1072 701 OFFCURVE"
);
},
{
closed = 1;
nodes = (
"613 791 CURVE",
"434 791 LINE",
"434 1179 LINE",
"617 1179 LINE SMOOTH",
"800 1179 OFFCURVE",
"896 1125 OFFCURVE",
"896 997 CURVE SMOOTH",
"896 865 OFFCURVE",
"809 791 OFFCURVE"
);
},
{
closed = 1;
nodes = (
"644 162 CURVE",
"434 162 LINE",
"434 360 LINE",
"725 360 LINE",
"725 476 LINE",
"434 476 LINE",
"434 654 LINE",
"644 654 LINE SMOOTH",
"852 654 OFFCURVE",
"968 581 OFFCURVE",
"968 418 CURVE SMOOTH",
"968 246 OFFCURVE",
"849 162 OFFCURVE"
);
}
);
width = 1254;
}
);
unicode = 0243;
userData = {
com.adobe.type.autohint = "ICA8aGludFNldExpc3Q+CiAgICA8aGludHNldCBw";
};
},
{
color = (167,255,153,1);
glyphname = uni1E5A;
lastChange = "2015-01-18 15:45:13 +0000";
layers = (
{
background = {
paths = (
{
closed = 1;
nodes = (
"513 -312 CURVE SMOOTH",
"513 -388 OFFCURVE",
"569 -441 OFFCURVE",
"645 -441 CURVE SMOOTH",
"721 -441 OFFCURVE",
"777 -388 OFFCURVE",
"777 -312 CURVE SMOOTH",
"777 -238 OFFCURVE",
"721 -184 OFFCURVE",
"645 -184 CURVE",
"569 -184 OFFCURVE",
"513 -238 OFFCURVE"
);
}
);
};
components = (
{
name = R;
transform = "{1, 0, 0, 1, 0, 0}";
},
{
disableAlignment = 1;
name = dotaccent;
transform = "{1, 0, 0, 1, 85, -1624}";
}
);
layerId = "C4389747-BECF-4D47-A11A-92B8AD605B66";
name = Bold;
width = 1211;
}
);
unicode = 1E5A;
userData = {
com.typemytype.robofont.mark = (
0.656,
1,
0.6,
1
);
};
},
{
color = (167,255,153,1);
glyphname = uni1E5E;
lastChange = "2015-01-18 15:45:57 +0000";
layers = (
{
background = {
paths = (
{
closed = 1;
nodes = (
"831 -219 LINE",
"293 -219 LINE",
"293 -368 LINE",
"831 -368 LINE"
);
}
);
};
components = (
{
name = R;
transform = "{1, 0, 0, 1, 0, 0}";
},
{
disableAlignment = 1;
name = macron.cap;
transform = "{1, 0, 0, 1, 560, -1854}";
}
);
layerId = "C4389747-BECF-4D47-A11A-92B8AD605B66";
name = Bold;
width = 1211;
}
);
unicode = 1E5E;
userData = {
com.typemytype.robofont.mark = (
0.656,
1,
0.6,
1
);
};
},
{
color = (170,255,153,1);
glyphname = uni1E62;
lastChange = "2015-01-18 15:46:26 +0000";
layers = (
{
background = {
paths = (
{
closed = 1;
nodes = (
"552 -443 CURVE SMOOTH",
"633 -443 OFFCURVE",
"694 -389 OFFCURVE",
"694 -311 CURVE SMOOTH",
"694 -235 OFFCURVE",
"633 -181 OFFCURVE",
"552 -181 CURVE SMOOTH",
"471 -181 OFFCURVE",
"410 -235 OFFCURVE",
"410 -311 CURVE SMOOTH",
"410 -389 OFFCURVE",
"471 -443 OFFCURVE"
);
}
);
};
components = (
{
name = S;
transform = "{1, 0, 0, 1, 0, 0}";
},
{
disableAlignment = 1;
name = dotaccent.cap;
transform = "{1, 0, 0, 1, 554, -1890}";
}
);
layerId = "C4389747-BECF-4D47-A11A-92B8AD605B66";
name = Bold;
width = 1103;
}
);
unicode = 1E62;
userData = {
com.typemytype.robofont.mark = (
0.666,
1,
0.6,
1
);
};
},
{
color = (170,255,153,1);
glyphname = uni1E6C;
lastChange = "2015-01-18 15:46:52 +0000";
layers = (
{
background = {
paths = (
{
closed = 1;
nodes = (
"552 -443 CURVE SMOOTH",
"633 -443 OFFCURVE",
"694 -389 OFFCURVE",
"694 -311 CURVE SMOOTH",
"694 -235 OFFCURVE",
"633 -181 OFFCURVE",
"552 -181 CURVE SMOOTH",
"471 -181 OFFCURVE",
"410 -235 OFFCURVE",
"410 -311 CURVE SMOOTH",
"410 -389 OFFCURVE",
"471 -443 OFFCURVE"
);
}
);
};
components = (
{
name = T;
transform = "{1, 0, 0, 1, 0, 0}";
},
{
disableAlignment = 1;
name = dotaccent.cap;
transform = "{1, 0, 0, 1, 552, -1892}";
}
);
layerId = "C4389747-BECF-4D47-A11A-92B8AD605B66";
name = Bold;
width = 1106;
}
);
unicode = 1E6C;
userData = {
com.typemytype.robofont.mark = (
0.666,
1,
0.6,
1
);
};
},
{
color = (167,255,153,1);
glyphname = uni1E92;
lastChange = "2015-01-18 15:47:33 +0000";
layers = (
{
background = {
paths = (
{
closed = 1;
nodes = (
"443 -312 CURVE SMOOTH",
"443 -388 OFFCURVE",
"499 -441 OFFCURVE",
"575 -441 CURVE SMOOTH",
"651 -441 OFFCURVE",
"707 -388 OFFCURVE",
"707 -312 CURVE SMOOTH",
"707 -238 OFFCURVE",
"651 -184 OFFCURVE",
"575 -184 CURVE SMOOTH",
"499 -184 OFFCURVE",
"443 -238 OFFCURVE"
);
}
);
};
components = (
{
name = Z;
transform = "{1, 0, 0, 1, 0, 0}";
},
{
disableAlignment = 1;
name = dotaccent;
transform = "{1, 0, 0, 1, 15, -1626}";
}
);
layerId = "C4389747-BECF-4D47-A11A-92B8AD605B66";
name = Bold;
width = 1099;
}
);
unicode = 1E92;
userData = {
com.typemytype.robofont.mark = (
0.656,
1,
0.6,
1
);
};
},
{
color = (167,255,153,1);
glyphname = uni1EC6;
lastChange = "2015-01-18 15:49:29 +0000";
layers = (
{
background = {
paths = (
{
closed = 1;
nodes = (
"469 -312 CURVE SMOOTH",
"469 -388 OFFCURVE",
"525 -441 OFFCURVE",
"601 -441 CURVE SMOOTH",
"677 -441 OFFCURVE",
"733 -388 OFFCURVE",
"733 -312 CURVE SMOOTH",
"733 -238 OFFCURVE",
"677 -184 OFFCURVE",
"601 -184 CURVE SMOOTH",
"525 -184 OFFCURVE",
"469 -238 OFFCURVE"
);
}
);
};
components = (
{
name = E;
transform = "{1, 0, 0, 1, 0, 0}";
},
{
disableAlignment = 1;
name = dotaccent;
transform = "{1, 0, 0, 1, 37, -1631}";
},
{
name = circumflex.cap;
transform = "{1, 0, 0, 1, 562, 0}";
}
);
layerId = "C4389747-BECF-4D47-A11A-92B8AD605B66";
name = Bold;
width = 1088;
}
);
unicode = 1EC6;
userData = {
com.typemytype.robofont.mark = (
0.656,
1,
0.6,
1
);
};
},
{
color = (255,153,153,1);
glyphname = a;
lastChange = "2015-01-16 19:50:31 +0000";
layers = (
{
anchors = (
{
name = top;
position = "{535, 800}";
}
);
hints = (
{
horizontal = 1;
origin = "{0, 2}";
target = "{0, 0}";
type = Tag;
name = hr01;
},
{
horizontal = 1;
origin = "{0, 13}";
target = "{0, 0}";
type = Tag;
name = hr02;
}
);
layerId = "C4389747-BECF-4D47-A11A-92B8AD605B66";
name = Bold;
paths = (
{
closed = 1;
nodes = (
"662 850 OFFCURVE",
"707 779 OFFCURVE",
"707 634 CURVE",
"287 617 OFFCURVE",
"110 485 OFFCURVE",
"110 270 CURVE SMOOTH",
"110 94 OFFCURVE",
"232 -25 OFFCURVE",
"416 -25 CURVE SMOOTH",
"549 -25 OFFCURVE",
"631 36 OFFCURVE",
"723 113 CURVE",
"728 113 LINE",
"746 0 LINE",
"926 0 LINE",
"926 599 LINE SMOOTH",
"926 880 OFFCURVE",
"811 1028 OFFCURVE",
"557 1028 CURVE SMOOTH",
"397 1028 OFFCURVE",
"250 976 OFFCURVE",
"144 910 CURVE",
"226 762 LINE",
"312 817 OFFCURVE",
"412 850 OFFCURVE",
"517 850 CURVE SMOOTH"
);
},
{
closed = 1;
nodes = (
"631 190 OFFCURVE",
"567 148 OFFCURVE",
"481 148 CURVE SMOOTH",
"386 148 OFFCURVE",
"322 190 OFFCURVE",
"322 285 CURVE SMOOTH",
"322 393 OFFCURVE",
"407 492 OFFCURVE",
"707 501 CURVE",
"707 263 LINE"
);
}
);
width = 1066;
}
);
unicode = 0061;
userData = {
com.adobe.type.autohint = "ICA8aGludFNldExpc3Q+CiAgICA8aGludHNldCBw";
com.typemytype.robofont.mark = (
1,
0.6,
0.6,
1
);
};
},
{
glyphname = aogonek;
lastChange = "2015-01-16 19:51:49 +0000";
layers = (
{
anchors = (
{
name = mark0;
position = "{560, 1048}";
}
);
hints = (
{
horizontal = 1;
origin = "{0, 0}";
target = "{0, 0}";
type = Tag;
name = hr01;
},
{
horizontal = 1;
origin = "{0, 14}";
target = "{0, 0}";
type = Tag;
name = hr02;
},
{
horizontal = 1;
origin = "{0, 30}";
target = "{0, 0}";
type = Tag;
name = hr03;
}
);
layerId = "C4389747-BECF-4D47-A11A-92B8AD605B66";
name = Bold;
paths = (
{
closed = 1;
nodes = (
"707 639 CURVE",
"291 595 OFFCURVE",
"110 483 OFFCURVE",
"110 267 CURVE SMOOTH",
"110 92 OFFCURVE",
"232 -25 OFFCURVE",
"406 -25 CURVE SMOOTH",
"526 -25 OFFCURVE",
"631 36 OFFCURVE",
"723 113 CURVE",
"728 113 LINE",
"749 3 LINE",
"679 -41 OFFCURVE",
"593 -132 OFFCURVE",
"593 -246 CURVE SMOOTH",
"593 -364 OFFCURVE",
"680 -425 OFFCURVE",
"790 -425 CURVE SMOOTH",
"847 -425 OFFCURVE",
"924 -399 OFFCURVE",
"968 -365 CURVE",
"918 -262 LINE",
"895 -276 OFFCURVE",
"869 -287 OFFCURVE",
"839 -287 CURVE SMOOTH",
"792 -287 OFFCURVE",
"747 -260 OFFCURVE",
"747 -199 CURVE SMOOTH",
"747 -127 OFFCURVE",
"805 -42 OFFCURVE",
"926 0 CURVE",
"926 599 LINE SMOOTH",
"926 871 OFFCURVE",
"808 1028 OFFCURVE",
"558 1028 CURVE SMOOTH",
"398 1028 OFFCURVE",
"256 963 OFFCURVE",
"150 897 CURVE",
"232 749 LINE",
"318 804 OFFCURVE",
"415 850 OFFCURVE",
"519 850 CURVE SMOOTH",
"661 850 OFFCURVE",
"705 752 OFFCURVE"
);
},
{
closed = 1;
nodes = (
"475 148 CURVE SMOOTH",
"386 148 OFFCURVE",
"322 189 OFFCURVE",
"322 283 CURVE SMOOTH",
"322 392 OFFCURVE",
"418 466 OFFCURVE",
"707 502 CURVE",
"707 263 LINE",
"627 190 OFFCURVE",
"560 148 OFFCURVE"
);
}
);
width = 1066;
}
);
unicode = 0105;
userData = {
com.adobe.type.autohint = "ICA8aGludFNldExpc3Q+CiAgICA8aGludHNldCBw";
};
},
{
color = (255,153,153,1);
glyphname = ae;
lastChange = "2015-01-16 19:50:31 +0000";
layers = (
{
anchors = (
{
name = top;
position = "{821, 800}";
}
);
hints = (
{
horizontal = 1;
origin = "{0, 0}";
target = "{0, 0}";
type = Tag;
name = hr01;
},
{
horizontal = 1;
origin = "{0, 1}";
target = "{0, 0}";
type = Tag;
name = hr02;
},
{
horizontal = 1;
origin = "{0, 36}";
target = "{0, 0}";
type = Tag;
name = hr03;
},
{
horizontal = 1;
origin = "{2, 7}";
target = "{0, 0}";
type = Tag;
name = hr04;
}
);
layerId = "C4389747-BECF-4D47-A11A-92B8AD605B66";
name = Bold;
paths = (
{
closed = 1;
nodes = (
"150 908 CURVE",
"232 760 LINE",
"318 814 OFFCURVE",
"415 850 OFFCURVE",
"513 850 CURVE SMOOTH",
"657 850 OFFCURVE",
"696 748 OFFCURVE",
"698 636 CURVE",
"290 603 OFFCURVE",
"110 483 OFFCURVE",
"110 267 CURVE SMOOTH",
"110 92 OFFCURVE",
"232 -25 OFFCURVE",
"406 -25 CURVE SMOOTH",
"536 -25 OFFCURVE",
"668 32 OFFCURVE",
"806 151 CURVE",
"886 54 OFFCURVE",
"996 -25 OFFCURVE",
"1156 -25 CURVE SMOOTH",
"1285 -25 OFFCURVE",
"1400 21 OFFCURVE",
"1493 83 CURVE",
"1417 229 LINE",
"1343 183 OFFCURVE",
"1273 150 OFFCURVE",
"1185 150 CURVE SMOOTH",
"1033 150 OFFCURVE",
"914 261 OFFCURVE",
"901 443 CURVE",
"1523 443 LINE",
"1528 467 OFFCURVE",
"1532 506 OFFCURVE",
"1532 549 CURVE SMOOTH",
"1532 831 OFFCURVE",
"1409 1028 OFFCURVE",
"1155 1028 CURVE SMOOTH",
"1014 1028 OFFCURVE",
"906 956 OFFCURVE",
"825 839 CURVE",
"777 955 OFFCURVE",
"692 1028 OFFCURVE",
"542 1028 CURVE SMOOTH",
"394 1028 OFFCURVE",
"256 974 OFFCURVE"
);
},
{
closed = 1;
nodes = (
"1342 582 CURVE",
"901 582 LINE",
"918 757 OFFCURVE",
"1016 858 OFFCURVE",
"1149 858 CURVE SMOOTH",
"1285 858 OFFCURVE",
"1342 756 OFFCURVE"
);
},
{
closed = 1;
nodes = (
"475 148 CURVE SMOOTH",
"386 148 OFFCURVE",
"322 189 OFFCURVE",
"322 283 CURVE SMOOTH",
"322 392 OFFCURVE",
"427 467 OFFCURVE",
"697 498 CURVE",
"698 454 LINE SMOOTH",
"700 390 OFFCURVE",
"714 323 OFFCURVE",
"733 276 CURVE",
"657 195 OFFCURVE",
"558 148 OFFCURVE"
);
}
);
width = 1609;
}
);
unicode = 00E6;
userData = {
com.adobe.type.autohint = "ICA8aGludFNldExpc3Q+CiAgICA8aGludHNldCBw";
com.typemytype.robofont.mark = (
1,
0.6,
0.6,
1
);
};
},
{
color = (255,153,153,1);
glyphname = b;
lastChange = "2015-01-16 19:50:31 +0000";
layers = (
{
anchors = (
{
name = mark0;
position = "{589, -45}";
},
{
name = top;
position = "{607, 800}";
}
);
hints = (
{
horizontal = 1;
origin = "{0, 0}";
target = "{0, 0}";
type = Tag;
name = hr01;
},
{
horizontal = 1;
origin = "{0, 2}";
target = "{0, 0}";
type = Tag;
name = hr02;
},
{
horizontal = 1;
origin = "{0, 8}";
target = "{0, 0}";
type = Tag;
name = hr03;
}
);
layerId = "C4389747-BECF-4D47-A11A-92B8AD605B66";
name = Bold;
paths = (
{
closed = 1;
nodes = (
"373 1450 LINE",
"155 1450 LINE",
"155 0 LINE",
"328 0 LINE",
"346 101 LINE",
"353 101 LINE",
"438 20 OFFCURVE",
"536 -25 OFFCURVE",
"631 -25 CURVE SMOOTH",
"862 -25 OFFCURVE",
"1059 160 OFFCURVE",
"1059 517 CURVE SMOOTH",
"1059 838 OFFCURVE",
"926 1028 OFFCURVE",
"664 1028 CURVE SMOOTH",
"556 1028 OFFCURVE",
"453 975 OFFCURVE",
"368 899 CURVE",
"373 1069 LINE"
);
},
{
closed = 1;
nodes = (
"585 157 CURVE SMOOTH",
"523 157 OFFCURVE",
"448 180 OFFCURVE",
"373 246 CURVE",
"373 727 LINE",
"454 806 OFFCURVE",
"526 847 OFFCURVE",
"604 847 CURVE SMOOTH",
"773 847 OFFCURVE",
"833 724 OFFCURVE",
"833 514 CURVE SMOOTH",
"833 276 OFFCURVE",
"730 157 OFFCURVE"
);
}
);
width = 1151;
}
);
unicode = 0062;
userData = {
com.adobe.type.autohint = "ICA8aGludFNldExpc3Q+CiAgICA8aGludHNldCBw";
com.typemytype.robofont.mark = (
1,
0.6,
0.6,
1
);
};
},
{
color = (255,153,153,1);
glyphname = c;
lastChange = "2015-01-16 19:50:31 +0000";
layers = (
{
anchors = (
{
name = mark0;
position = "{556, -45}";
},
{
name = top;
position = "{584, 800}";
}
);
hints = (
{
horizontal = 1;
origin = "{0, 0}";
target = "{0, 0}";
type = Tag;
name = hr00;
}
);
layerId = "C4389747-BECF-4D47-A11A-92B8AD605B66";
name = Bold;
paths = (
{
closed = 1;
nodes = (
"581 1028 CURVE SMOOTH",
"316 1028 OFFCURVE",
"86 850 OFFCURVE",
"86 503 CURVE SMOOTH",
"86 159 OFFCURVE",
"292 -25 OFFCURVE",
"563 -25 CURVE SMOOTH",
"679 -25 OFFCURVE",
"795 13 OFFCURVE",
"888 95 CURVE",
"796 236 LINE",
"740 189 OFFCURVE",
"672 155 OFFCURVE",
"585 155 CURVE SMOOTH",
"422 155 OFFCURVE",
"310 287 OFFCURVE",
"310 503 CURVE SMOOTH",
"310 720 OFFCURVE",
"425 849 OFFCURVE",
"592 849 CURVE SMOOTH",
"659 849 OFFCURVE",
"718 822 OFFCURVE",
"773 775 CURVE",
"877 913 LINE",
"810 979 OFFCURVE",
"710 1028 OFFCURVE"
);
}
);
width = 942;
}
);
unicode = 0063;
userData = {
com.adobe.type.autohint = "ICA8aGludFNldExpc3Q+CiAgICA8aGludHNldCBw";
com.typemytype.robofont.mark = (
1,
0.6,
0.6,
1
);
};
},
{
glyphname = ccedilla;
lastChange = "2015-01-16 19:50:31 +0000";
layers = (
{
hints = (
{
horizontal = 1;
origin = "{0, 0}";
target = "{0, 0}";
type = Tag;
name = hr00;
}
);
layerId = "C4389747-BECF-4D47-A11A-92B8AD605B66";
name = Bold;
paths = (
{
closed = 1;
nodes = (
"598 -97 CURVE",
"634 -18 LINE",
"728 -6 OFFCURVE",
"822 38 OFFCURVE",
"896 103 CURVE",
"803 245 LINE",
"747 197 OFFCURVE",
"675 155 OFFCURVE",
"588 155 CURVE SMOOTH",
"426 155 OFFCURVE",
"312 292 OFFCURVE",
"312 501 CURVE SMOOTH",
"312 709 OFFCURVE",
"428 849 OFFCURVE",
"596 849 CURVE SMOOTH",
"662 849 OFFCURVE",
"718 819 OFFCURVE",
"773 772 CURVE",
"877 910 LINE",
"810 976 OFFCURVE",
"713 1028 OFFCURVE",
"584 1028 CURVE SMOOTH",
"319 1028 OFFCURVE",
"86 835 OFFCURVE",
"86 501 CURVE SMOOTH",
"86 196 OFFCURVE",
"260 11 OFFCURVE",
"496 -19 CURVE",
"428 -155 LINE",
"515 -176 OFFCURVE",
"554 -203 OFFCURVE",
"554 -249 CURVE SMOOTH",
"554 -304 OFFCURVE",
"481 -332 OFFCURVE",
"378 -344 CURVE",
"396 -442 LINE",
"566 -430 OFFCURVE",
"718 -372 OFFCURVE",
"718 -245 CURVE SMOOTH",
"718 -161 OFFCURVE",
"664 -120 OFFCURVE"
);
}
);
width = 942;
}
);
unicode = 00E7;
userData = {
com.adobe.type.autohint = "ICA8aGludFNldExpc3Q+CiAgICA8aGludHNldCBw";
};
},
{
color = (255,153,153,1);
glyphname = d;
lastChange = "2015-01-16 19:50:31 +0000";
layers = (
{
anchors = (
{
name = mark0;
position = "{625, -45}";
},
{
name = top;
position = "{543, 800}";
}
);
hints = (
{
horizontal = 1;
origin = "{0, 0}";
target = "{0, 0}";
type = Tag;
name = hr01;
},
{
horizontal = 1;
origin = "{0, 11}";
target = "{0, 0}";
type = Tag;
name = hr02;
}
);
layerId = "C4389747-BECF-4D47-A11A-92B8AD605B66";
name = Bold;
paths = (
{
closed = 1;
nodes = (
"518 1028 CURVE SMOOTH",
"289 1028 OFFCURVE",
"90 837 OFFCURVE",
"90 502 CURVE SMOOTH",
"90 161 OFFCURVE",
"255 -25 OFFCURVE",
"503 -25 CURVE SMOOTH",
"613 -25 OFFCURVE",
"717 36 OFFCURVE",
"793 111 CURVE",
"799 111 LINE",
"816 0 LINE",
"996 0 LINE",
"996 1450 LINE",
"776 1450 LINE",
"776 1081 LINE",
"786 916 LINE",
"705 985 OFFCURVE",
"632 1028 OFFCURVE"
);
},
{
closed = 1;
nodes = (
"556 157 CURVE SMOOTH",
"398 157 OFFCURVE",
"314 275 OFFCURVE",
"314 505 CURVE SMOOTH",
"314 725 OFFCURVE",
"421 847 OFFCURVE",
"562 847 CURVE SMOOTH",
"634 847 OFFCURVE",
"704 823 OFFCURVE",
"776 757 CURVE",
"776 277 LINE",
"707 194 OFFCURVE",
"638 157 OFFCURVE"
);
}
);
width = 1151;
}
);
unicode = 0064;
userData = {
com.adobe.type.autohint = "ICA8aGludFNldExpc3Q+CiAgICA8aGludHNldCBw";
com.typemytype.robofont.mark = (
1,
0.6,
0.6,
1
);
};
},
{
color = (255,153,153,1);
glyphname = eth;
lastChange = "2015-01-16 19:50:31 +0000";
layers = (
{
anchors = (
{
name = top;
position = "{556, 800}";
}
);
hints = (
{
horizontal = 1;
origin = "{0, 0}";
target = "{0, 0}";
type = Tag;
name = hr00;
}
);
layerId = "C4389747-BECF-4D47-A11A-92B8AD605B66";
name = Bold;
paths = (
{
closed = 1;
nodes = (
"735 1236 CURVE",
"992 1367 LINE",
"932 1470 LINE",
"641 1321 LINE",
"552 1392 OFFCURVE",
"456 1451 OFFCURVE",
"358 1503 CURVE",
"260 1368 LINE",
"337 1326 OFFCURVE",
"407 1283 OFFCURVE",
"472 1235 CURVE",
"221 1107 LINE",
"281 1005 LINE",
"570 1153 LINE",
"665 1060 OFFCURVE",
"735 950 OFFCURVE",
"772 805 CURVE",
"707 885 OFFCURVE",
"615 921 OFFCURVE",
"519 921 CURVE SMOOTH",
"291 921 OFFCURVE",
"100 743 OFFCURVE",
"100 460 CURVE SMOOTH",
"100 161 OFFCURVE",
"314 -25 OFFCURVE",
"554 -25 CURVE SMOOTH",
"833 -25 OFFCURVE",
"1012 205 OFFCURVE",
"1012 533 CURVE SMOOTH",
"1012 850 OFFCURVE",
"898 1071 OFFCURVE"
);
},
{
closed = 1;
nodes = (
"805 523 CURVE SMOOTH",
"805 295 OFFCURVE",
"718 155 OFFCURVE",
"560 155 CURVE SMOOTH",
"421 155 OFFCURVE",
"303 271 OFFCURVE",
"303 460 CURVE SMOOTH",
"303 638 OFFCURVE",
"400 755 OFFCURVE",
"558 755 CURVE SMOOTH",
"642 755 OFFCURVE",
"723 729 OFFCURVE",
"802 628 CURVE",
"804 595 OFFCURVE",
"805 560 OFFCURVE"
);
}
);
width = 1128;
}
);
unicode = 00F0;
userData = {
com.adobe.type.autohint = "ICA8aGludFNldExpc3Q+CiAgICA8aGludHNldCBw";
com.typemytype.robofont.mark = (
1,
0.6,
0.6,
1
);
};
},
{
glyphname = dcroat;
lastChange = "2015-01-16 19:51:49 +0000";
layers = (
{
hints = (
{
horizontal = 1;
origin = "{0, 0}";
target = "{0, 0}";
type = Tag;
name = hr01;
},
{
horizontal = 1;
origin = "{0, 25}";
target = "{0, 0}";
type = Tag;
name = hr02;
},
{
horizontal = 1;
origin = "{1, 4}";
target = "{0, 0}";
type = Tag;
name = hr03;
}
);
layerId = "C4389747-BECF-4D47-A11A-92B8AD605B66";
name = Bold;
paths = (
{
closed = 1;
nodes = (
"996 1158 LINE",
"1140 1169 LINE",
"1140 1274 LINE",
"996 1274 LINE",
"996 1450 LINE",
"776 1450 LINE",
"776 1274 LINE",
"456 1274 LINE",
"456 1158 LINE",
"776 1158 LINE",
"776 1040 LINE",
"786 875 LINE",
"705 944 OFFCURVE",
"632 987 OFFCURVE",
"518 987 CURVE SMOOTH",
"296 987 OFFCURVE",
"90 791 OFFCURVE",
"90 480 CURVE SMOOTH",
"90 159 OFFCURVE",
"253 -25 OFFCURVE",
"503 -25 CURVE SMOOTH",
"616 -25 OFFCURVE",
"716 32 OFFCURVE",
"790 104 CURVE",
"797 104 LINE",
"811 0 LINE",
"996 0 LINE"
);
},
{
closed = 1;
nodes = (
"776 716 CURVE",
"776 277 LINE",
"707 194 OFFCURVE",
"638 157 OFFCURVE",
"556 157 CURVE SMOOTH",
"404 157 OFFCURVE",
"315 269 OFFCURVE",
"315 483 CURVE SMOOTH",
"315 684 OFFCURVE",
"427 806 OFFCURVE",
"562 806 CURVE SMOOTH",
"634 806 OFFCURVE",
"704 782 OFFCURVE"
);
}
);
width = 1151;
}
);
unicode = 0111;
userData = {
com.adobe.type.autohint = "ICA8aGludFNldExpc3Q+CiAgICA8aGludHNldCBw";
};
},
{
color = (255,153,153,1);
glyphname = e;
lastChange = "2015-01-16 19:50:31 +0000";
layers = (
{
anchors = (
{
name = top;
position = "{521, 800}";
}
);
hints = (
{
horizontal = 1;
origin = "{0, 2}";
target = "{0, 0}";
type = Tag;
name = hr00;
}
);
layerId = "C4389747-BECF-4D47-A11A-92B8AD605B66";
name = Bold;
paths = (
{
closed = 1;
nodes = (
"956 841 OFFCURVE",
"822 1028 OFFCURVE",
"544 1028 CURVE SMOOTH",
"300 1028 OFFCURVE",
"86 838 OFFCURVE",
"86 501 CURVE SMOOTH",
"86 165 OFFCURVE",
"302 -25 OFFCURVE",
"577 -25 CURVE SMOOTH",
"708 -25 OFFCURVE",
"824 16 OFFCURVE",
"916 77 CURVE",
"842 214 LINE",
"768 168 OFFCURVE",
"693 147 OFFCURVE",
"606 147 CURVE SMOOTH",
"436 147 OFFCURVE",
"314 251 OFFCURVE",
"300 448 CURVE",
"948 448 LINE",
"952 472 OFFCURVE",
"956 511 OFFCURVE",
"956 553 CURVE SMOOTH"
);
},
{
closed = 1;
nodes = (
"697 858 OFFCURVE",
"767 763 OFFCURVE",
"767 587 CURVE",
"298 587 LINE",
"317 769 OFFCURVE",
"421 858 OFFCURVE",
"549 858 CURVE SMOOTH"
);
}
);
width = 1033;
}
);
unicode = 0065;
userData = {
com.adobe.type.autohint = "ICA8aGludFNldExpc3Q+CiAgICA8aGludHNldCBw";
com.typemytype.robofont.mark = (
1,
0.6,
0.6,
1
);
};
},
{
glyphname = eogonek;
lastChange = "2015-01-16 19:51:49 +0000";
layers = (
{
anchors = (
{
name = mark0;
position = "{546, 1048}";
}
);
hints = (
{
horizontal = 1;
origin = "{0, 0}";
target = "{0, 0}";
type = Tag;
name = hr00;
}
);
layerId = "C4389747-BECF-4D47-A11A-92B8AD605B66";
name = Bold;
paths = (
{
closed = 1;
nodes = (
"546 1028 CURVE SMOOTH",
"311 1028 OFFCURVE",
"86 827 OFFCURVE",
"86 501 CURVE SMOOTH",
"86 171 OFFCURVE",
"302 -25 OFFCURVE",
"577 -25 CURVE SMOOTH",
"603 -25 OFFCURVE",
"630 -24 OFFCURVE",
"661 -13 CURVE",
"608 -59 OFFCURVE",
"541 -144 OFFCURVE",
"541 -246 CURVE SMOOTH",
"541 -364 OFFCURVE",
"626 -425 OFFCURVE",
"736 -425 CURVE SMOOTH",
"793 -425 OFFCURVE",
"870 -399 OFFCURVE",
"914 -365 CURVE",
"864 -262 LINE",
"841 -276 OFFCURVE",
"817 -287 OFFCURVE",
"786 -287 CURVE SMOOTH",
"736 -287 OFFCURVE",
"693 -259 OFFCURVE",
"693 -199 CURVE SMOOTH",
"693 -116 OFFCURVE",
"739 -44 OFFCURVE",
"918 83 CURVE",
"843 220 LINE",
"769 174 OFFCURVE",
"693 147 OFFCURVE",
"606 147 CURVE SMOOTH",
"436 147 OFFCURVE",
"317 256 OFFCURVE",
"300 448 CURVE",
"948 448 LINE",
"952 472 OFFCURVE",
"956 508 OFFCURVE",
"956 553 CURVE SMOOTH",
"956 835 OFFCURVE",
"813 1028 OFFCURVE"
);
},
{
closed = 1;
nodes = (
"767 587 CURVE",
"298 587 LINE",
"319 764 OFFCURVE",
"429 858 OFFCURVE",
"550 858 CURVE SMOOTH",
"694 858 OFFCURVE",
"767 757 OFFCURVE"
);
}
);
width = 1033;
}
);
unicode = 0119;
userData = {
com.adobe.type.autohint = "ICA8aGludFNldExpc3Q+CiAgICA8aGludHNldCBw";
};
},
{
color = (255,153,153,1);
glyphname = f;
lastChange = "2015-01-16 19:50:31 +0000";
layers = (
{
anchors = (
{
name = mark0;
position = "{302, -45}";
},
{
name = top;
position = "{375, 800}";
}
);
hints = (
{
horizontal = 1;
origin = "{0, 0}";
target = "{0, 0}";
type = Tag;
name = hr01;
},
{
horizontal = 1;
origin = "{0, 8}";
target = "{0, 0}";
type = Tag;
name = hr02;
},
{
horizontal = 1;
origin = "{0, 10}";
target = "{0, 0}";
type = Tag;
name = hr03;
}
);
layerId = "C4389747-BECF-4D47-A11A-92B8AD605B66";
name = Bold;
paths = (
{
closed = 1;
nodes = (
"651 1276 CURVE",
"695 1440 LINE",
"650 1457 OFFCURVE",
"585 1474 OFFCURVE",
"514 1474 CURVE SMOOTH",
"287 1474 OFFCURVE",
"192 1331 OFFCURVE",
"192 1123 CURVE SMOOTH",
"192 1002 LINE",
"56 992 LINE",
"56 828 LINE",
"192 828 LINE",
"192 0 LINE",
"411 0 LINE",
"411 828 LINE",
"610 828 LINE",
"610 1003 LINE",
"411 1003 LINE",
"411 1126 LINE SMOOTH",
"411 1245 OFFCURVE",
"455 1299 OFFCURVE",
"541 1299 CURVE SMOOTH",
"577 1299 OFFCURVE",
"615 1290 OFFCURVE"
);
}
);
width = 636;
}
);
unicode = 0066;
userData = {
com.adobe.type.autohint = "ICA8aGludFNldExpc3Q+CiAgICA8aGludHNldCBw";
com.typemytype.robofont.mark = (
1,
0.6,
0.6,
1
);
};
},
{
color = (255,153,153,1);
glyphname = g;
lastChange = "2015-01-16 19:50:31 +0000";
layers = (
{
anchors = (
{
name = top;
position = "{556, 800}";
}
);
hints = (
{
horizontal = 1;
origin = "{0, 2}";
target = "{0, 0}";
type = Tag;
name = hr01;
},
{
horizontal = 1;
origin = "{0, 6}";
target = "{0, 0}";
type = Tag;
name = hr02;
},
{
horizontal = 1;
origin = "{0, 19}";
target = "{0, 0}";
type = Tag;
name = hr03;
},
{
horizontal = 1;
origin = "{0, 37}";
target = "{0, 0}";
type = Tag;
name = hr04;
},
{
horizontal = 1;
origin = "{0, 47}";
target = "{0, 0}";
type = Tag;
name = hr05;
},
{
horizontal = 1;
origin = "{1, 2}";
target = "{0, 0}";
type = Tag;
name = hr06;
},
{
horizontal = 1;
origin = "{2, 2}";
target = "{0, 0}";
type = Tag;
name = hr07;
}
);
layerId = "C4389747-BECF-4D47-A11A-92B8AD605B66";
name = Bold;
paths = (
{
closed = 1;
nodes = (
"139 139 OFFCURVE",
"178 94 OFFCURVE",
"229 61 CURVE",
"229 53 LINE",
"137 -3 OFFCURVE",
"84 -97 OFFCURVE",
"84 -184 CURVE SMOOTH",
"84 -359 OFFCURVE",
"239 -449 OFFCURVE",
"500 -449 CURVE SMOOTH",
"833 -449 OFFCURVE",
"1029 -291 OFFCURVE",
"1029 -97 CURVE SMOOTH",
"1029 75 OFFCURVE",
"918 161 OFFCURVE",
"679 161 CURVE SMOOTH",
"484 161 LINE SMOOTH",
"358 161 OFFCURVE",
"317 198 OFFCURVE",
"317 257 CURVE SMOOTH",
"317 305 OFFCURVE",
"338 323 OFFCURVE",
"370 351 CURVE",
"415 332 OFFCURVE",
"462 322 OFFCURVE",
"509 322 CURVE SMOOTH",
"726 322 OFFCURVE",
"888 437 OFFCURVE",
"888 666 CURVE SMOOTH",
"888 742 OFFCURVE",
"860 807 OFFCURVE",
"823 846 CURVE",
"1012 846 LINE",
"1012 1003 LINE",
"657 1003 LINE",
"617 1018 OFFCURVE",
"571 1028 OFFCURVE",
"509 1028 CURVE SMOOTH",
"294 1028 OFFCURVE",
"117 909 OFFCURVE",
"117 673 CURVE SMOOTH",
"117 549 OFFCURVE",
"182 458 OFFCURVE",
"250 406 CURVE",
"250 398 LINE",
"193 359 OFFCURVE",
"139 300 OFFCURVE",
"139 220 CURVE SMOOTH"
);
},
{
closed = 1;
nodes = (
"618 874 OFFCURVE",
"693 809 OFFCURVE",
"693 673 CURVE SMOOTH",
"693 531 OFFCURVE",
"610 461 OFFCURVE",
"509 461 CURVE SMOOTH",
"408 461 OFFCURVE",
"325 533 OFFCURVE",
"325 673 CURVE SMOOTH",
"325 810 OFFCURVE",
"400 874 OFFCURVE",
"509 874 CURVE SMOOTH"
);
},
{
closed = 1;
nodes = (
"818 -223 OFFCURVE",
"709 -303 OFFCURVE",
"534 -303 CURVE SMOOTH",
"365 -303 OFFCURVE",
"271 -247 OFFCURVE",
"271 -152 CURVE SMOOTH",
"271 -84 OFFCURVE",
"295 -29 OFFCURVE",
"354 14 CURVE",
"393 4 OFFCURVE",
"437 0 OFFCURVE",
"488 0 CURVE SMOOTH",
"635 0 LINE SMOOTH",
"753 0 OFFCURVE",
"818 -49 OFFCURVE",
"818 -131 CURVE SMOOTH"
);
}
);
width = 1056;
}
);
unicode = 0067;
userData = {
com.adobe.type.autohint = "ICA8aGludFNldExpc3Q+CiAgICA8aGludHNldCBw";
com.typemytype.robofont.mark = (
1,
0.6,
0.6,
1
);
};
},
{
color = (255,153,153,1);
glyphname = h;
lastChange = "2015-01-16 19:50:31 +0000";
layers = (
{
anchors = (
{
name = mark0;
position = "{591, -45}";
},
{
name = top;
position = "{576, 800}";
}
);
hints = (
{
horizontal = 1;
origin = "{0, 0}";
target = "{0, 0}";
type = Tag;
name = hr00;
}
);
layerId = "C4389747-BECF-4D47-A11A-92B8AD605B66";
name = Bold;
paths = (
{
closed = 1;
nodes = (
"373 1450 LINE",
"155 1450 LINE",
"155 0 LINE",
"373 0 LINE",
"373 708 LINE",
"460 794 OFFCURVE",
"522 840 OFFCURVE",
"614 840 CURVE SMOOTH",
"731 840 OFFCURVE",
"778 776 OFFCURVE",
"778 604 CURVE SMOOTH",
"778 0 LINE",
"997 0 LINE",
"997 633 LINE SMOOTH",
"997 887 OFFCURVE",
"906 1028 OFFCURVE",
"689 1028 CURVE SMOOTH",
"551 1028 OFFCURVE",
"451 955 OFFCURVE",
"364 873 CURVE",
"373 1069 LINE"
);
}
);
width = 1135;
}
);
unicode = 0068;
userData = {
com.adobe.type.autohint = "ICA8aGludFNldExpc3Q+CiAgICA8aGludHNldCBw";
com.typemytype.robofont.mark = (
1,
0.6,
0.6,
1
);
};
},
{
glyphname = hbar;
lastChange = "2015-01-16 19:50:31 +0000";
layers = (
{
hints = (
{
horizontal = 1;
origin = "{0, 0}";
target = "{0, 0}";
type = Tag;
name = hr00;
}
);
layerId = "C4389747-BECF-4D47-A11A-92B8AD605B66";
name = Bold;
paths = (
{
closed = 1;
nodes = (
"364 832 CURVE",
"373 1028 LINE",
"373 1158 LINE",
"736 1158 LINE",
"736 1274 LINE",
"373 1274 LINE",
"373 1450 LINE",
"155 1450 LINE",
"155 1273 LINE",
"8 1263 LINE",
"8 1158 LINE",
"155 1158 LINE",
"155 0 LINE",
"373 0 LINE",
"373 667 LINE",
"460 753 OFFCURVE",
"522 799 OFFCURVE",
"614 799 CURVE SMOOTH",
"728 799 OFFCURVE",
"778 733 OFFCURVE",
"778 561 CURVE SMOOTH",
"778 0 LINE",
"997 0 LINE",
"997 590 LINE SMOOTH",
"997 844 OFFCURVE",
"902 987 OFFCURVE",
"689 987 CURVE SMOOTH",
"551 987 OFFCURVE",
"451 914 OFFCURVE"
);
}
);
width = 1135;
}
);
unicode = 0127;
userData = {
com.adobe.type.autohint = "ICA8aGludFNldExpc3Q+CiAgICA8aGludHNldCBw";
};
},
{
color = (255,153,153,1);
glyphname = i;
lastChange = "2015-01-16 19:50:31 +0000";
layers = (
{
anchors = (
{
name = mark0;
position = "{332, 0}";
},
{
name = top;
position = "{265, 800}";
}
);
hints = (
{
horizontal = 1;
origin = "{0, 0}";
target = "{0, 0}";
type = Tag;
name = hr01;
},
{
horizontal = 1;
origin = "{1, 0}";
target = "{0, 0}";
type = Tag;
name = hr02;
}
);
layerId = "C4389747-BECF-4D47-A11A-92B8AD605B66";
name = Bold;
paths = (
{
closed = 1;
nodes = (
"126 1314 CURVE SMOOTH",
"126 1240 OFFCURVE",
"186 1187 OFFCURVE",
"265 1187 CURVE SMOOTH",
"344 1187 OFFCURVE",
"404 1240 OFFCURVE",
"404 1314 CURVE SMOOTH",
"404 1390 OFFCURVE",
"344 1441 OFFCURVE",
"265 1441 CURVE SMOOTH",
"186 1441 OFFCURVE",
"126 1390 OFFCURVE"
);
},
{
closed = 1;
nodes = (
"373 1003 LINE",
"155 1003 LINE",
"155 0 LINE",
"373 0 LINE"
);
}
);
width = 527;
}
);
unicode = 0069;
userData = {
com.adobe.type.autohint = "ICA8aGludFNldExpc3Q+CiAgICA8aGludHNldCBw";
com.typemytype.robofont.mark = (
1,
0.6,
0.6,
1
);
};
},
{
color = (255,153,153,1);
glyphname = dotlessi;
lastChange = "2015-01-16 19:51:49 +0000";
layers = (
{
anchors = (
{
name = mark0;
position = "{332, 0}";
},
{
name = top;
position = "{264, 800}";
}
);
hints = (
{
horizontal = 1;
origin = "{0, 0}";
target = "{0, 0}";
type = Tag;
name = hr00;
}
);
layerId = "C4389747-BECF-4D47-A11A-92B8AD605B66";
name = Bold;
paths = (
{
closed = 1;
nodes = (
"373 1003 LINE",
"155 1003 LINE",
"155 0 LINE",
"373 0 LINE"
);
}
);
width = 527;
}
);
unicode = 0131;
userData = {
com.adobe.type.autohint = "ICA8aGludFNldExpc3Q+CiAgICA8aGludHNldCBw";
com.typemytype.robofont.mark = (
1,
0.6,
0.6,
1
);
};
},
{
glyphname = iogonek;
lastChange = "2015-01-16 19:51:49 +0000";
layers = (
{
hints = (
{
horizontal = 1;
origin = "{0, 0}";
target = "{0, 0}";
type = Tag;
name = hr01;
},
{
horizontal = 1;
origin = "{1, 0}";
target = "{0, 0}";
type = Tag;
name = hr02;
},
{
horizontal = 1;
origin = "{1, 6}";
target = "{0, 0}";
type = Tag;
name = hr03;
},
{
horizontal = 1;
origin = "{1, 12}";
target = "{0, 0}";
type = Tag;
name = hr04;
},
{
horizontal = 1;
origin = "{1, 16}";
target = "{0, 0}";
type = Tag;
name = hr05;
},
{
horizontal = 1;
origin = "{1, 22}";
target = "{0, 0}";
type = Tag;
name = hr06;
}
);
layerId = "C4389747-BECF-4D47-A11A-92B8AD605B66";
name = Bold;
paths = (
{
closed = 1;
nodes = (
"125 1314 CURVE SMOOTH",
"125 1240 OFFCURVE",
"184 1187 OFFCURVE",
"264 1187 CURVE SMOOTH",
"341 1187 OFFCURVE",
"401 1240 OFFCURVE",
"401 1314 CURVE SMOOTH",
"401 1390 OFFCURVE",
"341 1441 OFFCURVE",
"264 1441 CURVE SMOOTH",
"184 1441 OFFCURVE",
"125 1390 OFFCURVE"
);
},
{
closed = 1;
nodes = (
"373 1003 LINE",
"155 1003 LINE",
"155 0 LINE",
"212 0 LINE",
"157 -51 OFFCURVE",
"80 -132 OFFCURVE",
"80 -246 CURVE SMOOTH",
"80 -364 OFFCURVE",
"168 -425 OFFCURVE",
"278 -425 CURVE SMOOTH",
"334 -425 OFFCURVE",
"412 -399 OFFCURVE",
"456 -365 CURVE",
"406 -262 LINE",
"380 -276 OFFCURVE",
"356 -287 OFFCURVE",
"328 -287 CURVE SMOOTH",
"279 -287 OFFCURVE",
"235 -259 OFFCURVE",
"235 -199 CURVE SMOOTH",
"235 -127 OFFCURVE",
"281 -52 OFFCURVE",
"373 0 CURVE"
);
}
);
width = 527;
}
);
unicode = 012F;
userData = {
com.adobe.type.autohint = "ICA8aGludFNldExpc3Q+CiAgICA8aGludHNldCBw";
};
},
{
color = (255,153,153,1);
glyphname = j;
lastChange = "2015-01-16 19:50:31 +0000";
layers = (
{
anchors = (
{
name = mark0;
position = "{137, -476}";
},
{
name = top;
position = "{157, 800}";
}
);
hints = (
{
horizontal = 1;
origin = "{0, 0}";
target = "{0, 0}";
type = Tag;
name = hr01;
},
{
horizontal = 1;
origin = "{1, 0}";
target = "{0, 0}";
type = Tag;
name = hr02;
},
{
horizontal = 1;
origin = "{1, 8}";
target = "{0, 0}";
type = Tag;
name = hr03;
},
{
horizontal = 1;
origin = "{1, 15}";
target = "{0, 0}";
type = Tag;
name = hr04;
}
);
layerId = "C4389747-BECF-4D47-A11A-92B8AD605B66";
name = Bold;
paths = (
{
closed = 1;
nodes = (
"129 1314 CURVE SMOOTH",
"129 1240 OFFCURVE",
"188 1187 OFFCURVE",
"268 1187 CURVE SMOOTH",
"345 1187 OFFCURVE",
"405 1240 OFFCURVE",
"405 1314 CURVE SMOOTH",
"405 1390 OFFCURVE",
"345 1441 OFFCURVE",
"268 1441 CURVE SMOOTH",
"188 1441 OFFCURVE",
"129 1390 OFFCURVE"
);
},
{
closed = 1;
nodes = (
"375 1003 LINE",
"157 1003 LINE",
"157 -74 LINE SMOOTH",
"157 -192 OFFCURVE",
"131 -253 OFFCURVE",
"40 -253 CURVE SMOOTH",
"7 -253 OFFCURVE",
"-24 -246 OFFCURVE",
"-49 -238 CURVE",
"-90 -401 LINE",
"-53 -416 OFFCURVE",
"-1 -428 OFFCURVE",
"69 -428 CURVE SMOOTH",
"297 -428 OFFCURVE",
"375 -281 OFFCURVE",
"375 -71 CURVE SMOOTH"
);
}
);
width = 530;
}
);
unicode = 006A;
userData = {
com.adobe.type.autohint = "ICA8aGludFNldExpc3Q+CiAgICA8aGludHNldCBw";
com.typemytype.robofont.mark = (
1,
0.6,
0.6,
1
);
};
},
{
color = (255,153,153,1);
glyphname = dotlessj;
lastChange = "2015-01-16 19:51:49 +0000";
layers = (
{
anchors = (
{
name = mark0;
position = "{269, 1049}";
},
{
name = top;
position = "{143, 800}";
}
);
hints = (
{
horizontal = 1;
origin = "{0, 0}";
target = "{0, 0}";
type = Tag;
name = hr00;
}
);
layerId = "C4389747-BECF-4D47-A11A-92B8AD605B66";
name = Bold;
paths = (
{
closed = 1;
nodes = (
"378 -64 CURVE",
"378 1004 LINE",
"156 1004 LINE",
"156 -67 LINE SMOOTH",
"156 -184 OFFCURVE",
"130 -249 OFFCURVE",
"40 -249 CURVE SMOOTH",
"7 -249 OFFCURVE",
"-24 -242 OFFCURVE",
"-49 -234 CURVE",
"-91 -399 LINE",
"-54 -414 OFFCURVE",
"-2 -426 OFFCURVE",
"69 -426 CURVE SMOOTH",
"299 -426 OFFCURVE",
"378 -274 OFFCURVE"
);
}
);
width = 532;
}
);
unicode = 0237;
userData = {
com.adobe.type.autohint = "ICA8aGludFNldExpc3Q+CiAgICA8aGludHNldCBw";
com.typemytype.robofont.mark = (
1,
0.6,
0.6,
1
);
};
},
{
color = (255,153,153,1);
glyphname = k;
lastChange = "2015-01-16 19:50:31 +0000";
layers = (
{
anchors = (
{
name = mark0;
position = "{574, -45}";
},
{
name = top;
position = "{597, 800}";
}
);
hints = (
{
horizontal = 1;
origin = "{0, 0}";
target = "{0, 0}";
type = Tag;
name = hr00;
}
);
layerId = "C4389747-BECF-4D47-A11A-92B8AD605B66";
name = Bold;
paths = (
{
closed = 1;
nodes = (
"369 1450 LINE",
"155 1450 LINE",
"155 0 LINE",
"369 0 LINE",
"369 257 LINE",
"533 447 LINE",
"801 0 LINE",
"1039 0 LINE",
"658 597 LINE",
"1001 1003 LINE",
"761 1003 LINE",
"376 525 LINE",
"369 525 LINE"
);
}
);
width = 1055;
}
);
unicode = 006B;
userData = {
com.adobe.type.autohint = "ICA8aGludFNldExpc3Q+CiAgICA8aGludHNldCBw";
com.typemytype.robofont.mark = (
1,
0.6,
0.6,
1
);
};
},
{
glyphname = kgreenlandic;
lastChange = "2015-01-16 19:50:31 +0000";
layers = (
{
hints = (
{
horizontal = 1;
origin = "{0, 0}";
target = "{0, 0}";
type = Tag;
name = hr00;
}
);
layerId = "C4389747-BECF-4D47-A11A-92B8AD605B66";
name = Bold;
paths = (
{
closed = 1;
nodes = (
"373 1003 LINE",
"155 1003 LINE",
"155 0 LINE",
"373 0 LINE",
"373 250 LINE",
"533 440 LINE",
"801 0 LINE",
"1039 0 LINE",
"665 597 LINE",
"1001 1003 LINE",
"761 1003 LINE",
"379 520 LINE",
"373 520 LINE"
);
}
);
width = 1055;
}
);
unicode = 0138;
userData = {
com.adobe.type.autohint = "ICA8aGludFNldExpc3Q+CiAgICA8aGludHNldCBw";
};
},
{
color = (255,153,153,1);
glyphname = l;
lastChange = "2015-01-16 19:50:31 +0000";
layers = (
{
anchors = (
{
name = mark0;
position = "{262, -45}";
},
{
name = top;
position = "{321, 800}";
}
);
hints = (
{
horizontal = 1;
origin = "{0, 0}";
target = "{0, 0}";
type = Tag;
name = hr01;
},
{
horizontal = 1;
origin = "{0, 5}";
target = "{0, 0}";
type = Tag;
name = hr02;
},
{
horizontal = 1;
origin = "{0, 9}";
target = "{0, 0}";
type = Tag;
name = hr03;
}
);
layerId = "C4389747-BECF-4D47-A11A-92B8AD605B66";
name = Bold;
paths = (
{
closed = 1;
nodes = (
"373 1450 LINE",
"155 1450 LINE",
"155 245 LINE SMOOTH",
"155 76 OFFCURVE",
"213 -25 OFFCURVE",
"370 -25 CURVE SMOOTH",
"424 -25 OFFCURVE",
"461 -16 OFFCURVE",
"487 -5 CURVE",
"460 159 LINE",
"442 155 OFFCURVE",
"434 155 OFFCURVE",
"423 155 CURVE SMOOTH",
"398 155 OFFCURVE",
"373 175 OFFCURVE",
"373 232 CURVE SMOOTH"
);
}
);
width = 546;
}
);
unicode = 006C;
userData = {
com.adobe.type.autohint = "ICA8aGludFNldExpc3Q+CiAgICA8aGludHNldCBw";
com.typemytype.robofont.mark = (
1,
0.6,
0.6,
1
);
};
},
{
glyphname = lslash;
lastChange = "2015-01-16 19:50:31 +0000";
layers = (
{
hints = (
{
horizontal = 1;
origin = "{0, 0}";
target = "{0, 0}";
type = Tag;
name = hr01;
}
);
layerId = "C4389747-BECF-4D47-A11A-92B8AD605B66";
name = Bold;
paths = (
{
closed = 1;
nodes = (
"388 232 CURVE",
"388 747 LINE",
"527 834 LINE",
"527 1014 LINE",
"388 927 LINE",
"388 1450 LINE",
"168 1450 LINE",
"168 816 LINE",
"41 736 LINE",
"41 556 LINE",
"168 635 LINE",
"168 245 LINE SMOOTH",
"168 76 OFFCURVE",
"227 -25 OFFCURVE",
"383 -25 CURVE SMOOTH",
"437 -25 OFFCURVE",
"473 -16 OFFCURVE",
"502 -5 CURVE",
"474 159 LINE",
"455 155 OFFCURVE",
"446 155 OFFCURVE",
"437 155 CURVE SMOOTH",
"413 155 OFFCURVE",
"388 175 OFFCURVE"
);
}
);
width = 569;
}
);
unicode = 0142;
userData = {
com.adobe.type.autohint = "ICA8aGludFNldExpc3Q+CiAgICA8aGludHNldCBw";
};
},
{
color = (255,153,153,1);
glyphname = m;
lastChange = "2015-01-16 19:50:31 +0000";
layers = (
{
anchors = (
{
name = mark0;
position = "{881, -45}";
},
{
name = top;
position = "{865, 800}";
}
);
hints = (
{
horizontal = 1;
origin = "{0, 0}";
target = "{0, 0}";
type = Tag;
name = hr01;
},
{
horizontal = 1;
origin = "{0, 7}";
target = "{0, 0}";
type = Tag;
name = hr02;
}
);
layerId = "C4389747-BECF-4D47-A11A-92B8AD605B66";
name = Bold;
paths = (
{
closed = 1;
nodes = (
"334 1003 LINE",
"155 1003 LINE",
"155 0 LINE",
"373 0 LINE",
"373 708 LINE",
"455 796 OFFCURVE",
"529 840 OFFCURVE",
"594 840 CURVE SMOOTH",
"711 840 OFFCURVE",
"756 781 OFFCURVE",
"756 609 CURVE SMOOTH",
"756 0 LINE",
"975 0 LINE",
"975 711 LINE",
"1057 799 OFFCURVE",
"1128 840 OFFCURVE",
"1196 840 CURVE SMOOTH",
"1312 840 OFFCURVE",
"1358 777 OFFCURVE",
"1358 605 CURVE SMOOTH",
"1358 0 LINE",
"1576 0 LINE",
"1576 634 LINE SMOOTH",
"1576 888 OFFCURVE",
"1485 1028 OFFCURVE",
"1268 1028 CURVE SMOOTH",
"1142 1028 OFFCURVE",
"1042 953 OFFCURVE",
"943 848 CURVE",
"901 969 OFFCURVE",
"824 1028 OFFCURVE",
"669 1028 CURVE SMOOTH",
"545 1028 OFFCURVE",
"444 955 OFFCURVE",
"359 865 CURVE",
"351 865 LINE"
);
}
);
width = 1720;
}
);
unicode = 006D;
userData = {
com.adobe.type.autohint = "ICA8aGludFNldExpc3Q+CiAgICA8aGludHNldCBw";
com.typemytype.robofont.mark = (
1,
0.6,
0.6,
1
);
};
},
{
color = (255,153,153,1);
glyphname = n;
lastChange = "2015-01-16 19:50:31 +0000";
layers = (
{
anchors = (
{
name = mark0;
position = "{579, -45}";
},
{
name = top;
position = "{597, 800}";
}
);
hints = (
{
horizontal = 1;
origin = "{0, 0}";
target = "{0, 0}";
type = Tag;
name = hr01;
},
{
horizontal = 1;
origin = "{0, 7}";
target = "{0, 0}";
type = Tag;
name = hr02;
}
);
layerId = "C4389747-BECF-4D47-A11A-92B8AD605B66";
name = Bold;
paths = (
{
closed = 1;
nodes = (
"334 1003 LINE",
"155 1003 LINE",
"155 0 LINE",
"373 0 LINE",
"373 708 LINE",
"460 794 OFFCURVE",
"522 840 OFFCURVE",
"614 840 CURVE SMOOTH",
"734 840 OFFCURVE",
"778 777 OFFCURVE",
"778 605 CURVE SMOOTH",
"778 0 LINE",
"997 0 LINE",
"997 634 LINE SMOOTH",
"997 888 OFFCURVE",
"908 1028 OFFCURVE",
"689 1028 CURVE SMOOTH",
"551 1028 OFFCURVE",
"449 955 OFFCURVE",
"359 865 CURVE",
"351 865 LINE"
);
}
);
width = 1139;
}
);
unicode = 006E;
userData = {
com.adobe.type.autohint = "ICA8aGludFNldExpc3Q+CiAgICA8aGludHNldCBw";
com.typemytype.robofont.mark = (
1,
0.6,
0.6,
1
);
};
},
{
color = (255,153,153,1);
glyphname = o;
lastChange = "2015-01-16 19:51:49 +0000";
layers = (
{
anchors = (
{
name = mark0;
position = "{663, 0}";
},
{
name = top;
position = "{560, 800}";
}
);
hints = (
{
horizontal = 1;
origin = "{0, 0}";
target = "{0, 0}";
type = Tag;
name = hr00;
}
);
layerId = "C4389747-BECF-4D47-A11A-92B8AD605B66";
name = Bold;
paths = (
{
closed = 1;
nodes = (
"560 1028 CURVE SMOOTH",
"306 1028 OFFCURVE",
"87 842 OFFCURVE",
"87 502 CURVE SMOOTH",
"87 164 OFFCURVE",
"306 -25 OFFCURVE",
"560 -25 CURVE SMOOTH",
"813 -25 OFFCURVE",
"1034 164 OFFCURVE",
"1034 502 CURVE SMOOTH",
"1034 842 OFFCURVE",
"813 1028 OFFCURVE"
);
},
{
closed = 1;
nodes = (
"560 155 CURVE SMOOTH",
"404 155 OFFCURVE",
"313 291 OFFCURVE",
"313 502 CURVE SMOOTH",
"313 714 OFFCURVE",
"404 849 OFFCURVE",
"560 849 CURVE SMOOTH",
"717 849 OFFCURVE",
"809 714 OFFCURVE",
"809 502 CURVE SMOOTH",
"809 291 OFFCURVE",
"717 155 OFFCURVE"
);
}
);
width = 1120;
}
);
unicode = 006F;
userData = {
com.adobe.type.autohint = "ICA8aGludFNldExpc3Q+CiAgICA8aGludHNldCBw";
com.typemytype.robofont.mark = (
1,
0.6,
0.6,
1
);
};
},
{
glyphname = ohorn;
lastChange = "2015-01-16 19:51:49 +0000";
layers = (
{
anchors = (
{
name = mark0;
position = "{560, -45}";
}
);
hints = (
{
horizontal = 1;
origin = "{0, 0}";
target = "{0, 0}";
type = Tag;
name = hr01;
},
{
horizontal = 1;
origin = "{0, 19}";
target = "{0, 0}";
type = Tag;
name = hr02;
},
{
horizontal = 1;
origin = "{0, 25}";
target = "{0, 0}";
type = Tag;
name = hr03;
},
{
horizontal = 1;
origin = "{1, 0}";
target = "{0, 0}";
type = Tag;
name = hr04;
}
);
layerId = "C4389747-BECF-4D47-A11A-92B8AD605B66";
name = Bold;
paths = (
{
closed = 1;
nodes = (
"1014 1275 CURVE",
"860 1204 LINE",
"877 1179 OFFCURVE",
"891 1148 OFFCURVE",
"891 1115 CURVE SMOOTH",
"891 1039 OFFCURVE",
"838 1002 OFFCURVE",
"754 986 CURVE",
"693 1014 OFFCURVE",
"628 1028 OFFCURVE",
"560 1028 CURVE SMOOTH",
"311 1028 OFFCURVE",
"86 835 OFFCURVE",
"86 501 CURVE SMOOTH",
"86 168 OFFCURVE",
"311 -25 OFFCURVE",
"560 -25 CURVE SMOOTH",
"809 -25 OFFCURVE",
"1034 168 OFFCURVE",
"1034 501 CURVE SMOOTH",
"1034 679 OFFCURVE",
"969 817 OFFCURVE",
"872 907 CURVE",
"978 938 OFFCURVE",
"1065 1004 OFFCURVE",
"1065 1130 CURVE SMOOTH",
"1065 1188 OFFCURVE",
"1042 1238 OFFCURVE"
);
},
{
closed = 1;
nodes = (
"809 501 CURVE SMOOTH",
"809 292 OFFCURVE",
"714 155 OFFCURVE",
"560 155 CURVE SMOOTH",
"408 155 OFFCURVE",
"312 292 OFFCURVE",
"312 501 CURVE SMOOTH",
"312 709 OFFCURVE",
"408 849 OFFCURVE",
"560 849 CURVE SMOOTH",
"714 849 OFFCURVE",
"809 709 OFFCURVE"
);
}
);
width = 1120;
}
);
unicode = 01A1;
userData = {
com.adobe.type.autohint = "ICA8aGludFNldExpc3Q+CiAgICA8aGludHNldCBw";
};
},
{
glyphname = oslash;
lastChange = "2015-01-16 19:51:49 +0000";
layers = (
{
anchors = (
{
name = mark0;
position = "{560, 1048}";
}
);
hints = (
{
horizontal = 1;
origin = "{0, 0}";
target = "{0, 0}";
type = Tag;
name = hr00;
}
);
layerId = "C4389747-BECF-4D47-A11A-92B8AD605B66";
name = Bold;
paths = (
{
closed = 1;
nodes = (
"921 855 CURVE",
"1026 983 LINE",
"937 1053 LINE",
"840 934 LINE",
"760 995 OFFCURVE",
"662 1028 OFFCURVE",
"560 1028 CURVE SMOOTH",
"311 1028 OFFCURVE",
"86 835 OFFCURVE",
"86 501 CURVE SMOOTH",
"86 354 OFFCURVE",
"130 236 OFFCURVE",
"199 148 CURVE",
"94 21 LINE",
"184 -49 LINE",
"280 69 LINE",
"360 8 OFFCURVE",
"459 -25 OFFCURVE",
"560 -25 CURVE SMOOTH",
"809 -25 OFFCURVE",
"1034 168 OFFCURVE",
"1034 501 CURVE SMOOTH",
"1034 648 OFFCURVE",
"990 767 OFFCURVE"
);
},
{
closed = 1;
nodes = (
"722 790 CURVE",
"334 316 LINE",
"311 369 OFFCURVE",
"300 435 OFFCURVE",
"300 512 CURVE SMOOTH",
"300 716 OFFCURVE",
"408 855 OFFCURVE",
"560 855 CURVE SMOOTH",
"625 855 OFFCURVE",
"680 833 OFFCURVE"
);
},
{
closed = 1;
nodes = (
"398 213 CURVE",
"785 688 LINE",
"809 633 OFFCURVE",
"820 568 OFFCURVE",
"820 490 CURVE SMOOTH",
"820 286 OFFCURVE",
"714 148 OFFCURVE",
"560 148 CURVE SMOOTH",
"497 148 OFFCURVE",
"441 171 OFFCURVE"
);
}
);
width = 1120;
}
);
unicode = 00F8;
userData = {
com.adobe.type.autohint = "ICA8aGludFNldExpc3Q+CiAgICA8aGludHNldCBw";
};
},
{
color = (255,153,153,1);
glyphname = oe;
lastChange = "2015-01-16 19:51:49 +0000";
layers = (
{
anchors = (
{
name = mark0;
position = "{890, 1048}";
},
{
name = top;
position = "{857, 800}";
}
);
hints = (
{
horizontal = 1;
origin = "{0, 0}";
target = "{0, 0}";
type = Tag;
name = hr01;
},
{
horizontal = 1;
origin = "{0, 16}";
target = "{0, 0}";
type = Tag;
name = hr02;
},
{
horizontal = 1;
origin = "{1, 0}";
target = "{0, 0}";
type = Tag;
name = hr04;
},
{
horizontal = 1;
origin = "{2, 6}";
target = "{0, 0}";
type = Tag;
name = hr05;
}
);
layerId = "C4389747-BECF-4D47-A11A-92B8AD605B66";
name = Bold;
paths = (
{
closed = 1;
nodes = (
"548 1028 CURVE SMOOTH",
"300 1028 OFFCURVE",
"86 835 OFFCURVE",
"86 501 CURVE SMOOTH",
"86 168 OFFCURVE",
"296 -25 OFFCURVE",
"543 -25 CURVE SMOOTH",
"702 -25 OFFCURVE",
"818 51 OFFCURVE",
"899 197 CURVE",
"978 59 OFFCURVE",
"1107 -25 OFFCURVE",
"1250 -25 CURVE SMOOTH",
"1379 -25 OFFCURVE",
"1498 21 OFFCURVE",
"1591 83 CURVE",
"1513 229 LINE",
"1439 183 OFFCURVE",
"1366 150 OFFCURVE",
"1278 150 CURVE SMOOTH",
"1126 150 OFFCURVE",
"1005 261 OFFCURVE",
"992 443 CURVE",
"1620 443 LINE",
"1625 467 OFFCURVE",
"1629 506 OFFCURVE",
"1629 549 CURVE SMOOTH",
"1629 831 OFFCURVE",
"1490 1028 OFFCURVE",
"1236 1028 CURVE SMOOTH",
"1099 1028 OFFCURVE",
"975 945 OFFCURVE",
"897 805 CURVE",
"823 948 OFFCURVE",
"696 1028 OFFCURVE"
);
},
{
closed = 1;
nodes = (
"1439 582 CURVE",
"992 582 LINE",
"1009 757 OFFCURVE",
"1109 858 OFFCURVE",
"1229 858 CURVE SMOOTH",
"1366 858 OFFCURVE",
"1439 756 OFFCURVE"
);
},
{
closed = 1;
nodes = (
"548 155 CURVE SMOOTH",
"404 155 OFFCURVE",
"309 292 OFFCURVE",
"309 501 CURVE SMOOTH",
"309 709 OFFCURVE",
"404 849 OFFCURVE",
"548 849 CURVE SMOOTH",
"692 849 OFFCURVE",
"788 709 OFFCURVE",
"788 501 CURVE SMOOTH",
"788 292 OFFCURVE",
"692 155 OFFCURVE"
);
}
);
width = 1705;
}
);
unicode = 0153;
userData = {
com.adobe.type.autohint = "ICA8aGludFNldExpc3Q+CiAgICA8aGludHNldCBw";
com.typemytype.robofont.mark = (
1,
0.6,
0.6,
1
);
};
},
{
color = (255,153,153,1);
glyphname = p;
lastChange = "2015-01-16 19:50:31 +0000";
layers = (
{
anchors = (
{
name = mark0;
position = "{250, -446}";
},
{
name = top;
position = "{607, 800}";
}
);
hints = (
{
horizontal = 1;
origin = "{0, 0}";
target = "{0, 0}";
type = Tag;
name = hr01;
},
{
horizontal = 1;
origin = "{0, 16}";
target = "{0, 0}";
type = Tag;
name = hr02;
},
{
horizontal = 1;
origin = "{1, 7}";
target = "{0, 0}";
type = Tag;
name = hr03;
}
);
layerId = "C4389747-BECF-4D47-A11A-92B8AD605B66";
name = Bold;
paths = (
{
closed = 1;
nodes = (
"373 -404 LINE",
"373 -82 LINE",
"367 87 LINE",
"451 16 OFFCURVE",
"537 -25 OFFCURVE",
"630 -25 CURVE SMOOTH",
"858 -25 OFFCURVE",
"1059 169 OFFCURVE",
"1059 515 CURVE SMOOTH",
"1059 831 OFFCURVE",
"921 1028 OFFCURVE",
"664 1028 CURVE SMOOTH",
"549 1028 OFFCURVE",
"444 968 OFFCURVE",
"359 894 CURVE",
"351 894 LINE",
"334 1003 LINE",
"155 1003 LINE",
"155 -404 LINE"
);
},
{
closed = 1;
nodes = (
"584 157 CURVE SMOOTH",
"523 157 OFFCURVE",
"449 180 OFFCURVE",
"373 246 CURVE",
"373 727 LINE",
"457 806 OFFCURVE",
"527 847 OFFCURVE",
"603 847 CURVE SMOOTH",
"770 847 OFFCURVE",
"833 723 OFFCURVE",
"833 514 CURVE SMOOTH",
"833 279 OFFCURVE",
"728 157 OFFCURVE"
);
}
);
width = 1151;
}
);
unicode = 0070;
userData = {
com.adobe.type.autohint = "ICA8aGludFNldExpc3Q+CiAgICA8aGludHNldCBw";
com.typemytype.robofont.mark = (
1,
0.6,
0.6,
1
);
};
},
{
color = (255,153,153,1);
glyphname = thorn;
lastChange = "2015-01-16 19:51:49 +0000";
layers = (
{
anchors = (
{
name = mark0;
position = "{589, -45}";
},
{
name = top;
position = "{607, 800}";
}
);
hints = (
{
horizontal = 1;
origin = "{0, 0}";
target = "{0, 0}";
type = Tag;
name = hr00;
}
);
layerId = "C4389747-BECF-4D47-A11A-92B8AD605B66";
name = Bold;
paths = (
{
closed = 1;
nodes = (
"155 -404 LINE",
"373 -404 LINE",
"373 -82 LINE",
"369 81 LINE",
"451 14 OFFCURVE",
"533 -25 OFFCURVE",
"630 -25 CURVE SMOOTH",
"855 -25 OFFCURVE",
"1059 175 OFFCURVE",
"1059 517 CURVE SMOOTH",
"1059 827 OFFCURVE",
"913 1028 OFFCURVE",
"653 1028 CURVE SMOOTH",
"551 1028 OFFCURVE",
"451 976 OFFCURVE",
"369 910 CURVE",
"373 1069 LINE",
"373 1450 LINE",
"155 1450 LINE"
);
},
{
closed = 1;
nodes = (
"586 157 CURVE SMOOTH",
"526 157 OFFCURVE",
"449 180 OFFCURVE",
"373 246 CURVE",
"373 727 LINE",
"457 806 OFFCURVE",
"529 847 OFFCURVE",
"604 847 CURVE SMOOTH",
"767 847 OFFCURVE",
"833 720 OFFCURVE",
"833 515 CURVE SMOOTH",
"833 283 OFFCURVE",
"727 157 OFFCURVE"
);
}
);
width = 1151;
}
);
unicode = 00FE;
userData = {
com.adobe.type.autohint = "ICA8aGludFNldExpc3Q+CiAgICA8aGludHNldCBw";
com.typemytype.robofont.mark = (
1,
0.6,
0.6,
1
);
};
},
{
color = (255,153,153,1);
glyphname = q;
lastChange = "2015-01-16 19:50:31 +0000";
layers = (
{
anchors = (
{
name = mark0;
position = "{875, -446}";
},
{
name = top;
position = "{543, 800}";
}
);
hints = (
{
horizontal = 1;
origin = "{0, 0}";
target = "{0, 0}";
type = Tag;
name = hr01;
},
{
horizontal = 1;
origin = "{0, 13}";
target = "{0, 0}";
type = Tag;
name = hr02;
}
);
layerId = "C4389747-BECF-4D47-A11A-92B8AD605B66";
name = Bold;
paths = (
{
closed = 1;
nodes = (
"519 1028 CURVE SMOOTH",
"292 1028 OFFCURVE",
"90 832 OFFCURVE",
"90 499 CURVE SMOOTH",
"90 161 OFFCURVE",
"248 -25 OFFCURVE",
"504 -25 CURVE SMOOTH",
"613 -25 OFFCURVE",
"711 32 OFFCURVE",
"786 102 CURVE",
"776 -67 LINE",
"776 -404 LINE",
"996 -404 LINE",
"996 1003 LINE",
"823 1003 LINE",
"803 906 LINE",
"797 906 LINE",
"711 987 OFFCURVE",
"635 1028 OFFCURVE"
);
},
{
closed = 1;
nodes = (
"558 157 CURVE SMOOTH",
"401 157 OFFCURVE",
"315 273 OFFCURVE",
"315 502 CURVE SMOOTH",
"315 720 OFFCURVE",
"425 847 OFFCURVE",
"564 847 CURVE SMOOTH",
"638 847 OFFCURVE",
"704 823 OFFCURVE",
"776 757 CURVE",
"776 277 LINE",
"707 194 OFFCURVE",
"641 157 OFFCURVE"
);
}
);
width = 1143;
}
);
unicode = 0071;
userData = {
com.adobe.type.autohint = "ICA8aGludFNldExpc3Q+CiAgICA8aGludHNldCBw";
com.typemytype.robofont.mark = (
1,
0.6,
0.6,
1
);
};
},
{
color = (255,153,153,1);
glyphname = r;
lastChange = "2015-01-16 19:50:31 +0000";
layers = (
{
anchors = (
{
name = mark0;
position = "{264, -45}";
},
{
name = top;
position = "{455, 800}";
}
);
hints = (
{
horizontal = 1;
origin = "{0, 0}";
target = "{0, 0}";
type = Tag;
name = hr01;
},
{
horizontal = 1;
origin = "{0, 7}";
target = "{0, 0}";
type = Tag;
name = hr02;
},
{
horizontal = 1;
origin = "{0, 11}";
target = "{0, 0}";
type = Tag;
name = hr03;
},
{
horizontal = 1;
origin = "{0, 14}";
target = "{0, 0}";
type = Tag;
name = hr04;
}
);
layerId = "C4389747-BECF-4D47-A11A-92B8AD605B66";
name = Bold;
paths = (
{
closed = 1;
nodes = (
"334 1003 LINE",
"155 1003 LINE",
"155 0 LINE",
"373 0 LINE",
"373 620 LINE",
"435 776 OFFCURVE",
"534 833 OFFCURVE",
"614 833 CURVE SMOOTH",
"656 833 OFFCURVE",
"682 827 OFFCURVE",
"716 817 CURVE",
"755 1007 LINE",
"724 1021 OFFCURVE",
"692 1028 OFFCURVE",
"643 1028 CURVE SMOOTH",
"534 1028 OFFCURVE",
"428 953 OFFCURVE",
"359 824 CURVE",
"351 824 LINE"
);
}
);
width = 751;
}
);
unicode = 0072;
userData = {
com.adobe.type.autohint = "ICA8aGludFNldExpc3Q+CiAgICA8aGludHNldCBw";
com.typemytype.robofont.mark = (
1,
0.6,
0.6,
1
);
};
},
{
color = (255,153,153,1);
glyphname = s;
lastChange = "2015-01-16 19:50:31 +0000";
layers = (
{
anchors = (
{
name = mark0;
position = "{464, -45}";
},
{
name = top;
position = "{435, 800}";
}
);
hints = (
{
horizontal = 1;
origin = "{0, 0}";
target = "{0, 0}";
type = Tag;
name = hr00;
}
);
layerId = "C4389747-BECF-4D47-A11A-92B8AD605B66";
name = Bold;
paths = (
{
closed = 1;
nodes = (
"158 256 CURVE",
"55 115 LINE",
"152 34 OFFCURVE",
"292 -25 OFFCURVE",
"430 -25 CURVE SMOOTH",
"680 -25 OFFCURVE",
"815 112 OFFCURVE",
"815 281 CURVE SMOOTH",
"815 469 OFFCURVE",
"660 536 OFFCURVE",
"522 586 CURVE",
"413 628 OFFCURVE",
"310 666 OFFCURVE",
"310 750 CURVE SMOOTH",
"310 818 OFFCURVE",
"357 862 OFFCURVE",
"465 862 CURVE SMOOTH",
"555 862 OFFCURVE",
"619 829 OFFCURVE",
"689 777 CURVE",
"790 911 LINE",
"709 975 OFFCURVE",
"598 1028 OFFCURVE",
"462 1028 CURVE SMOOTH",
"239 1028 OFFCURVE",
"101 904 OFFCURVE",
"101 734 CURVE SMOOTH",
"101 566 OFFCURVE",
"254 488 OFFCURVE",
"387 439 CURVE SMOOTH",
"495 398 OFFCURVE",
"607 358 OFFCURVE",
"607 268 CURVE SMOOTH",
"607 195 OFFCURVE",
"555 141 OFFCURVE",
"436 141 CURVE SMOOTH",
"330 141 OFFCURVE",
"247 187 OFFCURVE"
);
}
);
width = 877;
}
);
unicode = 0073;
userData = {
com.adobe.type.autohint = "ICA8aGludFNldExpc3Q+CiAgICA8aGludHNldCBw";
com.typemytype.robofont.mark = (
1,
0.6,
0.6,
1
);
};
},
{
color = (255,153,153,1);
glyphname = germandbls;
lastChange = "2015-01-16 19:50:31 +0000";
layers = (
{
anchors = (
{
name = top;
position = "{660, 800}";
}
);
hints = (
{
horizontal = 1;
origin = "{0, 0}";
target = "{0, 0}";
type = Tag;
name = hr01;
},
{
horizontal = 1;
origin = "{0, 1}";
target = "{0, 0}";
type = Tag;
name = hr02;
},
{
horizontal = 1;
origin = "{0, 15}";
target = "{0, 0}";
type = Tag;
name = hr03;
},
{
horizontal = 1;
origin = "{0, 37}";
target = "{0, 0}";
type = Tag;
name = hr04;
}
);
layerId = "C4389747-BECF-4D47-A11A-92B8AD605B66";
name = Bold;
paths = (
{
closed = 1;
nodes = (
"155 1033 CURVE",
"155 0 LINE",
"372 0 LINE",
"372 1001 LINE SMOOTH",
"372 1191 OFFCURVE",
"449 1294 OFFCURVE",
"586 1294 CURVE SMOOTH",
"688 1294 OFFCURVE",
"742 1225 OFFCURVE",
"742 1131 CURVE SMOOTH",
"742 968 OFFCURVE",
"575 909 OFFCURVE",
"575 734 CURVE SMOOTH",
"575 455 OFFCURVE",
"963 487 OFFCURVE",
"963 280 CURVE SMOOTH",
"963 205 OFFCURVE",
"909 141 OFFCURVE",
"812 141 CURVE SMOOTH",
"740 141 OFFCURVE",
"675 168 OFFCURVE",
"604 224 CURVE",
"523 73 LINE",
"612 12 OFFCURVE",
"703 -25 OFFCURVE",
"819 -25 CURVE SMOOTH",
"1039 -25 OFFCURVE",
"1165 115 OFFCURVE",
"1165 292 CURVE SMOOTH",
"1165 618 OFFCURVE",
"779 586 OFFCURVE",
"779 761 CURVE SMOOTH",
"779 888 OFFCURVE",
"955 954 OFFCURVE",
"955 1155 CURVE SMOOTH",
"955 1322 OFFCURVE",
"828 1470 OFFCURVE",
"588 1470 CURVE SMOOTH",
"304 1470 OFFCURVE",
"155 1292 OFFCURVE"
);
}
);
width = 1224;
}
);
unicode = 00DF;
userData = {
com.adobe.type.autohint = "ICA8aGludFNldExpc3Q+CiAgICA8aGludHNldCBw";
com.typemytype.robofont.mark = (
1,
0.6,
0.6,
1
);
};
},
{
glyphname = uni0259;
lastChange = "2015-01-16 19:50:31 +0000";
layers = (
{
anchors = (
{
name = mark0;
position = "{502, 0}";
}
);
hints = (
{
horizontal = 1;
origin = "{0, 0}";
target = "{0, 0}";
type = Tag;
name = hr00;
}
);
layerId = "C4389747-BECF-4D47-A11A-92B8AD605B66";
name = Bold;
paths = (
{
closed = 1;
nodes = (
"75 460 CURVE SMOOTH",
"75 169 OFFCURVE",
"230 -25 OFFCURVE",
"496 -25 CURVE SMOOTH",
"742 -25 OFFCURVE",
"947 176 OFFCURVE",
"947 503 CURVE SMOOTH",
"947 832 OFFCURVE",
"751 1028 OFFCURVE",
"494 1028 CURVE SMOOTH",
"360 1028 OFFCURVE",
"238 983 OFFCURVE",
"139 917 CURVE",
"215 779 LINE",
"289 827 OFFCURVE",
"366 858 OFFCURVE",
"459 858 CURVE SMOOTH",
"618 858 OFFCURVE",
"716 749 OFFCURVE",
"731 566 CURVE",
"85 566 LINE",
"81 541 OFFCURVE",
"75 503 OFFCURVE"
);
},
{
closed = 1;
nodes = (
"266 425 CURVE",
"734 425 LINE",
"714 241 OFFCURVE",
"624 147 OFFCURVE",
"491 147 CURVE SMOOTH",
"348 147 OFFCURVE",
"266 243 OFFCURVE"
);
}
);
width = 1033;
}
);
unicode = 0259;
userData = {
com.adobe.type.autohint = "ICA8aGludFNldExpc3Q+CiAgICA8aGludHNldCBw";
};
},
{
color = (255,153,153,1);
glyphname = t;
lastChange = "2015-01-16 19:50:31 +0000";
layers = (
{
anchors = (
{
name = mark0;
position = "{452, -45}";
},
{
name = top;
position = "{371, 800}";
}
);
hints = (
{
horizontal = 1;
origin = "{0, 0}";
target = "{0, 0}";
type = Tag;
name = hr00;
}
);
layerId = "C4389747-BECF-4D47-A11A-92B8AD605B66";
name = Bold;
paths = (
{
closed = 1;
nodes = (
"44 828 LINE",
"188 828 LINE",
"188 331 LINE SMOOTH",
"188 119 OFFCURVE",
"270 -25 OFFCURVE",
"497 -25 CURVE SMOOTH",
"574 -25 OFFCURVE",
"643 -5 OFFCURVE",
"698 12 CURVE",
"659 174 LINE",
"629 163 OFFCURVE",
"587 150 OFFCURVE",
"553 150 CURVE SMOOTH",
"452 150 OFFCURVE",
"408 211 OFFCURVE",
"408 331 CURVE SMOOTH",
"408 828 LINE",
"667 828 LINE",
"667 1003 LINE",
"408 1003 LINE",
"408 1279 LINE",
"225 1279 LINE",
"199 1003 LINE",
"44 992 LINE"
);
}
);
width = 727;
}
);
unicode = 0074;
userData = {
com.adobe.type.autohint = "ICA8aGludFNldExpc3Q+CiAgICA8aGludHNldCBw";
com.typemytype.robofont.mark = (
1,
0.6,
0.6,
1
);
};
},
{
glyphname = tbar;
lastChange = "2015-01-16 19:50:31 +0000";
layers = (
{
components = (
{
name = t;
transform = "{1, 0, 0, 1, 0, 0}";
}
);
hints = (
{
horizontal = 1;
origin = "{0, 0}";
target = "{0, 0}";
type = Tag;
name = hr00;
}
);
layerId = "C4389747-BECF-4D47-A11A-92B8AD605B66";
name = Bold;
paths = (
{
closed = 1;
nodes = (
"669 661 LINE",
"46 661 LINE",
"46 486 LINE",
"669 486 LINE"
);
}
);
width = 727;
}
);
unicode = 0167;
userData = {
com.adobe.type.autohint = "ICA8aGludFNldExpc3Q+CiAgICA8aGludHNldCBw";
};
},
{
color = (170,255,153,1);
glyphname = tcaron;
lastChange = "2015-01-16 19:51:49 +0000";
layers = (
{
components = (
{
name = caronvertical;
transform = "{1, 0, 0, 1, 447, 75}";
}
);
hints = (
{
horizontal = 1;
origin = "{0, 0}";
target = "{0, 0}";
type = Tag;
name = hr00;
}
);
layerId = "C4389747-BECF-4D47-A11A-92B8AD605B66";
name = Bold;
paths = (
{
closed = 1;
nodes = (
"44 828 LINE",
"188 828 LINE",
"188 331 LINE SMOOTH",
"188 119 OFFCURVE",
"270 -25 OFFCURVE",
"497 -25 CURVE SMOOTH",
"574 -25 OFFCURVE",
"643 -5 OFFCURVE",
"698 12 CURVE",
"659 174 LINE",
"629 163 OFFCURVE",
"587 150 OFFCURVE",
"553 150 CURVE SMOOTH",
"452 150 OFFCURVE",
"408 211 OFFCURVE",
"408 331 CURVE SMOOTH",
"408 828 LINE",
"667 828 LINE",
"667 1003 LINE",
"408 1003 LINE",
"408 1279 LINE",
"225 1279 LINE",
"199 1003 LINE",
"44 992 LINE"
);
}
);
width = 727;
}
);
unicode = 0165;
userData = {
com.adobe.type.autohint = "ICA8aGludFNldExpc3Q+CiAgICA8aGludHNldCBw";
com.typemytype.robofont.mark = (
0.666,
1,
0.6,
1
);
};
},
{
color = (255,153,153,1);
glyphname = u;
lastChange = "2015-01-16 19:50:31 +0000";
layers = (
{
anchors = (
{
name = top;
position = "{560, 800}";
}
);
hints = (
{
horizontal = 1;
origin = "{0, 0}";
target = "{0, 0}";
type = Tag;
name = hr01;
},
{
horizontal = 1;
origin = "{0, 10}";
target = "{0, 0}";
type = Tag;
name = hr02;
},
{
horizontal = 1;
origin = "{0, 17}";
target = "{0, 0}";
type = Tag;
name = hr03;
}
);
layerId = "C4389747-BECF-4D47-A11A-92B8AD605B66";
name = Bold;
paths = (
{
closed = 1;
nodes = (
"362 1003 LINE",
"142 1003 LINE",
"142 370 LINE SMOOTH",
"142 116 OFFCURVE",
"230 -25 OFFCURVE",
"451 -25 CURVE SMOOTH",
"595 -25 OFFCURVE",
"686 44 OFFCURVE",
"775 150 CURVE",
"782 150 LINE",
"799 0 LINE",
"979 0 LINE",
"979 1003 LINE",
"760 1003 LINE",
"760 310 LINE",
"679 207 OFFCURVE",
"624 163 OFFCURVE",
"526 163 CURVE SMOOTH",
"405 163 OFFCURVE",
"362 228 OFFCURVE",
"362 399 CURVE SMOOTH"
);
}
);
width = 1133;
}
);
unicode = 0075;
userData = {
com.adobe.type.autohint = "ICA8aGludFNldExpc3Q+CiAgICA8aGludHNldCBw";
com.typemytype.robofont.mark = (
1,
0.6,
0.6,
1
);
};
},
{
glyphname = uhorn;
lastChange = "2015-01-16 19:51:49 +0000";
layers = (
{
anchors = (
{
name = mark0;
position = "{600, -45}";
}
);
hints = (
{
horizontal = 1;
origin = "{0, 0}";
target = "{0, 0}";
type = Tag;
name = hr01;
},
{
horizontal = 1;
origin = "{0, 8}";
target = "{0, 0}";
type = Tag;
name = hr02;
},
{
horizontal = 1;
origin = "{0, 26}";
target = "{0, 0}";
type = Tag;
name = hr03;
},
{
horizontal = 1;
origin = "{0, 31}";
target = "{0, 0}";
type = Tag;
name = hr04;
}
);
layerId = "C4389747-BECF-4D47-A11A-92B8AD605B66";
name = Bold;
paths = (
{
closed = 1;
nodes = (
"1116 1295 CURVE",
"963 1225 LINE",
"979 1199 OFFCURVE",
"992 1168 OFFCURVE",
"992 1135 CURVE SMOOTH",
"992 1037 OFFCURVE",
"912 1011 OFFCURVE",
"823 1003 CURVE",
"760 1003 LINE",
"760 310 LINE",
"679 207 OFFCURVE",
"618 163 OFFCURVE",
"526 163 CURVE SMOOTH",
"411 163 OFFCURVE",
"362 231 OFFCURVE",
"362 401 CURVE SMOOTH",
"362 1003 LINE",
"142 1003 LINE",
"142 373 LINE SMOOTH",
"142 119 OFFCURVE",
"236 -25 OFFCURVE",
"451 -25 CURVE SMOOTH",
"589 -25 OFFCURVE",
"686 44 OFFCURVE",
"775 150 CURVE",
"782 150 LINE",
"799 0 LINE",
"979 0 LINE",
"979 929 LINE",
"1077 957 OFFCURVE",
"1168 1023 OFFCURVE",
"1168 1151 CURVE SMOOTH",
"1168 1208 OFFCURVE",
"1144 1258 OFFCURVE"
);
}
);
width = 1133;
}
);
unicode = 01B0;
userData = {
com.adobe.type.autohint = "ICA8aGludFNldExpc3Q+CiAgICA8aGludHNldCBw";
};
},
{
glyphname = uni015F;
lastChange = "2015-01-16 19:50:31 +0000";
layers = (
{
hints = (
{
horizontal = 1;
origin = "{0, 0}";
target = "{0, 0}";
type = Tag;
name = hr01;
},
{
horizontal = 1;
origin = "{0, 16}";
target = "{0, 0}";
type = Tag;
name = hr02;
},
{
horizontal = 1;
origin = "{0, 27}";
target = "{0, 0}";
type = Tag;
name = hr03;
},
{
horizontal = 1;
origin = "{0, 41}";
target = "{0, 0}";
type = Tag;
name = hr04;
}
);
layerId = "C4389747-BECF-4D47-A11A-92B8AD605B66";
name = Bold;
paths = (
{
closed = 1;
nodes = (
"689 774 CURVE",
"790 909 LINE",
"709 972 OFFCURVE",
"598 1028 OFFCURVE",
"462 1028 CURVE SMOOTH",
"239 1028 OFFCURVE",
"101 902 OFFCURVE",
"101 732 CURVE SMOOTH",
"101 564 OFFCURVE",
"254 490 OFFCURVE",
"387 441 CURVE SMOOTH",
"495 400 OFFCURVE",
"607 360 OFFCURVE",
"607 271 CURVE SMOOTH",
"607 197 OFFCURVE",
"552 141 OFFCURVE",
"436 141 CURVE SMOOTH",
"330 141 OFFCURVE",
"243 187 OFFCURVE",
"155 256 CURVE",
"52 115 LINE",
"141 40 OFFCURVE",
"268 -14 OFFCURVE",
"395 -24 CURVE",
"330 -155 LINE",
"417 -176 OFFCURVE",
"456 -203 OFFCURVE",
"456 -249 CURVE SMOOTH",
"456 -304 OFFCURVE",
"382 -332 OFFCURVE",
"280 -344 CURVE",
"298 -442 LINE",
"467 -430 OFFCURVE",
"619 -372 OFFCURVE",
"619 -245 CURVE SMOOTH",
"619 -161 OFFCURVE",
"567 -120 OFFCURVE",
"499 -97 CURVE",
"537 -15 LINE",
"718 18 OFFCURVE",
"815 140 OFFCURVE",
"815 284 CURVE SMOOTH",
"815 472 OFFCURVE",
"660 536 OFFCURVE",
"522 586 CURVE",
"413 628 OFFCURVE",
"310 660 OFFCURVE",
"310 742 CURVE SMOOTH",
"310 808 OFFCURVE",
"360 862 OFFCURVE",
"467 862 CURVE SMOOTH",
"548 862 OFFCURVE",
"619 826 OFFCURVE"
);
}
);
width = 877;
}
);
unicode = 015F;
userData = {
com.adobe.type.autohint = "ICA8aGludFNldExpc3Q+CiAgICA8aGludHNldCBw";
};
},
{
glyphname = uni0163;
lastChange = "2015-01-16 19:50:31 +0000";
layers = (
{
hints = (
{
horizontal = 1;
origin = "{0, 0}";
target = "{0, 0}";
type = Tag;
name = hr01;
},
{
horizontal = 1;
origin = "{0, 8}";
target = "{0, 0}";
type = Tag;
name = hr02;
},
{
horizontal = 1;
origin = "{0, 28}";
target = "{0, 0}";
type = Tag;
name = hr03;
}
);
layerId = "C4389747-BECF-4D47-A11A-92B8AD605B66";
name = Bold;
paths = (
{
closed = 1;
nodes = (
"495 -97 CURVE",
"530 -24 LINE",
"544 -23 OFFCURVE",
"557 -21 OFFCURVE",
"571 -19 CURVE SMOOTH",
"617 -12 OFFCURVE",
"661 0 OFFCURVE",
"698 12 CURVE",
"659 174 LINE",
"629 163 OFFCURVE",
"587 150 OFFCURVE",
"553 150 CURVE SMOOTH",
"452 150 OFFCURVE",
"408 211 OFFCURVE",
"408 331 CURVE SMOOTH",
"408 828 LINE",
"667 828 LINE",
"667 1003 LINE",
"408 1003 LINE",
"408 1279 LINE",
"225 1279 LINE",
"199 1003 LINE",
"44 992 LINE",
"44 828 LINE",
"188 828 LINE",
"188 331 LINE SMOOTH",
"188 154 OFFCURVE",
"245 24 OFFCURVE",
"398 -12 CURVE",
"326 -155 LINE",
"413 -176 OFFCURVE",
"452 -203 OFFCURVE",
"452 -249 CURVE SMOOTH",
"452 -304 OFFCURVE",
"378 -332 OFFCURVE",
"275 -344 CURVE",
"294 -442 LINE",
"462 -430 OFFCURVE",
"615 -372 OFFCURVE",
"615 -245 CURVE SMOOTH",
"615 -161 OFFCURVE",
"562 -120 OFFCURVE"
);
}
);
width = 727;
}
);
unicode = 0163;
userData = {
com.adobe.type.autohint = "ICA8aGludFNldExpc3Q+CiAgICA8aGludHNldCBw";
};
},
{
glyphname = uni0180;
lastChange = "2015-01-16 19:50:31 +0000";
layers = (
{
hints = (
{
horizontal = 1;
origin = "{0, 0}";
target = "{0, 0}";
type = Tag;
name = hr01;
},
{
horizontal = 1;
origin = "{0, 12}";
target = "{0, 0}";
type = Tag;
name = hr02;
},
{
horizontal = 1;
origin = "{0, 18}";
target = "{0, 0}";
type = Tag;
name = hr03;
}
);
layerId = "C4389747-BECF-4D47-A11A-92B8AD605B66";
name = Bold;
paths = (
{
closed = 1;
nodes = (
"368 858 CURVE",
"373 1028 LINE",
"373 1158 LINE",
"736 1158 LINE",
"736 1274 LINE",
"373 1274 LINE",
"373 1450 LINE",
"155 1450 LINE",
"155 1273 LINE",
"8 1263 LINE",
"8 1158 LINE",
"155 1158 LINE",
"155 0 LINE",
"328 0 LINE",
"346 101 LINE",
"353 101 LINE",
"438 20 OFFCURVE",
"539 -25 OFFCURVE",
"630 -25 CURVE SMOOTH",
"855 -25 OFFCURVE",
"1059 167 OFFCURVE",
"1059 499 CURVE SMOOTH",
"1059 794 OFFCURVE",
"916 987 OFFCURVE",
"662 987 CURVE SMOOTH",
"558 987 OFFCURVE",
"453 934 OFFCURVE"
);
},
{
closed = 1;
nodes = (
"373 246 CURVE",
"373 687 LINE",
"454 766 OFFCURVE",
"529 806 OFFCURVE",
"604 806 CURVE SMOOTH",
"767 806 OFFCURVE",
"833 687 OFFCURVE",
"833 495 CURVE SMOOTH",
"833 275 OFFCURVE",
"727 157 OFFCURVE",
"586 157 CURVE SMOOTH",
"526 157 OFFCURVE",
"448 180 OFFCURVE"
);
}
);
width = 1135;
}
);
unicode = 0180;
userData = {
com.adobe.type.autohint = "ICA8aGludFNldExpc3Q+CiAgICA8aGludHNldCBw";
};
},
{
glyphname = uni01EB;
lastChange = "2015-01-16 19:50:31 +0000";
layers = (
{
anchors = (
{
name = mark0;
position = "{560, 1048}";
}
);
hints = (
{
horizontal = 1;
origin = "{0, 0}";
target = "{0, 0}";
type = Tag;
name = hr00;
}
);
layerId = "C4389747-BECF-4D47-A11A-92B8AD605B66";
name = Bold;
paths = (
{
closed = 1;
nodes = (
"523 -22 CURVE",
"476 -61 OFFCURVE",
"409 -143 OFFCURVE",
"409 -246 CURVE SMOOTH",
"409 -364 OFFCURVE",
"496 -425 OFFCURVE",
"606 -425 CURVE SMOOTH",
"663 -425 OFFCURVE",
"741 -399 OFFCURVE",
"785 -365 CURVE",
"735 -262 LINE",
"710 -276 OFFCURVE",
"685 -287 OFFCURVE",
"655 -287 CURVE SMOOTH",
"608 -287 OFFCURVE",
"564 -260 OFFCURVE",
"564 -199 CURVE SMOOTH",
"564 -129 OFFCURVE",
"611 -49 OFFCURVE",
"706 -5 CURVE SMOOTH",
"902 85 OFFCURVE",
"1034 226 OFFCURVE",
"1034 501 CURVE SMOOTH",
"1034 835 OFFCURVE",
"809 1028 OFFCURVE",
"560 1028 CURVE SMOOTH",
"311 1028 OFFCURVE",
"86 835 OFFCURVE",
"86 501 CURVE SMOOTH",
"86 187 OFFCURVE",
"286 -3 OFFCURVE"
);
},
{
closed = 1;
nodes = (
"560 155 CURVE SMOOTH",
"408 155 OFFCURVE",
"312 292 OFFCURVE",
"312 501 CURVE SMOOTH",
"312 709 OFFCURVE",
"408 849 OFFCURVE",
"560 849 CURVE SMOOTH",
"714 849 OFFCURVE",
"809 709 OFFCURVE",
"809 501 CURVE SMOOTH",
"809 292 OFFCURVE",
"714 155 OFFCURVE"
);
}
);
width = 1120;
}
);
unicode = 01EB;
userData = {
com.adobe.type.autohint = "ICA8aGludFNldExpc3Q+CiAgICA8aGludHNldCBw";
};
},
{
color = (167,255,153,1);
glyphname = uni1E0D;
lastChange = "2015-01-18 15:51:53 +0000";
layers = (
{
background = {
paths = (
{
closed = 1;
nodes = (
"494 -312 CURVE SMOOTH",
"494 -388 OFFCURVE",
"550 -441 OFFCURVE",
"626 -441 CURVE SMOOTH",
"702 -441 OFFCURVE",
"758 -388 OFFCURVE",
"758 -312 CURVE SMOOTH",
"758 -238 OFFCURVE",
"702 -184 OFFCURVE",
"626 -184 CURVE SMOOTH",
"550 -184 OFFCURVE",
"494 -238 OFFCURVE"
);
}
);
};
components = (
{
name = d;
transform = "{1, 0, 0, 1, 0, 0}";
},
{
disableAlignment = 1;
name = dotaccent;
transform = "{1, 0, 0, 1, 64, -1623}";
}
);
layerId = "C4389747-BECF-4D47-A11A-92B8AD605B66";
name = Bold;
width = 1151;
}
);
unicode = 1E0D;
userData = {
com.typemytype.robofont.mark = (
0.656,
1,
0.6,
1
);
};
},
{
color = (170,255,153,1);
glyphname = uni1E1F;
lastChange = "2015-01-18 15:52:38 +0000";
layers = (
{
background = {
paths = (
{
closed = 1;
nodes = (
"69 1593 CURVE SMOOTH",
"69 1517 OFFCURVE",
"125 1464 OFFCURVE",
"201 1464 CURVE SMOOTH",
"277 1464 OFFCURVE",
"333 1517 OFFCURVE",
"333 1593 CURVE SMOOTH",
"333 1667 OFFCURVE",
"277 1721 OFFCURVE",
"201 1721 CURVE SMOOTH",
"125 1721 OFFCURVE",
"69 1667 OFFCURVE"
);
}
);
};
components = (
{
name = f;
transform = "{1, 0, 0, 1, 0, 0}";
},
{
disableAlignment = 1;
name = dotaccent;
transform = "{1, 0, 0, 1, -360, 279}";
}
);
layerId = "C4389747-BECF-4D47-A11A-92B8AD605B66";
name = Bold;
width = 636;
}
);
unicode = 1E1F;
userData = {
com.typemytype.robofont.mark = (
0.666,
1,
0.6,
1
);
};
},
{
color = (167,255,153,1);
glyphname = uni1E2B;
lastChange = "2015-01-18 15:53:04 +0000";
layers = (
{
background = {
paths = (
{
closed = 1;
nodes = (
"450 -154 CURVE",
"322 -154 LINE",
"329 -285 OFFCURVE",
"408 -423 OFFCURVE",
"590 -423 CURVE SMOOTH",
"772 -423 OFFCURVE",
"851 -285 OFFCURVE",
"859 -154 CURVE",
"730 -154 LINE",
"720 -228 OFFCURVE",
"677 -295 OFFCURVE",
"590 -295 CURVE SMOOTH",
"503 -295 OFFCURVE",
"461 -228 OFFCURVE"
);
}
);
};
components = (
{
name = h;
transform = "{1, 0, 0, 1, 0, 0}";
},
{
disableAlignment = 1;
name = breve;
transform = "{1, 0, 0, 1, 33, -1602}";
}
);
layerId = "C4389747-BECF-4D47-A11A-92B8AD605B66";
name = Bold;
width = 1135;
}
);
unicode = 1E2B;
userData = {
com.typemytype.robofont.mark = (
0.656,
1,
0.6,
1
);
};
},
{
color = (167,255,153,1);
glyphname = uni1E37;
lastChange = "2015-01-18 15:53:29 +0000";
layers = (
{
background = {
paths = (
{
closed = 1;
nodes = (
"232 -312 CURVE SMOOTH",
"232 -388 OFFCURVE",
"288 -441 OFFCURVE",
"364 -441 CURVE SMOOTH",
"440 -441 OFFCURVE",
"496 -388 OFFCURVE",
"496 -312 CURVE SMOOTH",
"496 -238 OFFCURVE",
"440 -184 OFFCURVE",
"364 -184 CURVE SMOOTH",
"288 -184 OFFCURVE",
"232 -238 OFFCURVE"
);
}
);
};
components = (
{
name = l;
transform = "{1, 0, 0, 1, 0, 0}";
},
{
disableAlignment = 1;
name = dotaccent;
transform = "{1, 0, 0, 1, -193, -1628}";
}
);
layerId = "C4389747-BECF-4D47-A11A-92B8AD605B66";
name = Bold;
width = 546;
}
);
unicode = 1E37;
userData = {
com.typemytype.robofont.mark = (
0.656,
1,
0.6,
1
);
};
},
{
color = (167,255,153,1);
glyphname = uni1E39;
lastChange = "2015-01-18 15:54:05 +0000";
layers = (
{
background = {
paths = (
{
closed = 1;
nodes = (
"524 1811 LINE",
"-14 1811 LINE",
"-14 1662 LINE",
"524 1662 LINE"
);
}
);
};
components = (
{
name = l;
transform = "{1, 0, 0, 1, 0, 0}";
},
{
disableAlignment = 1;
name = macron.cap;
transform = "{1, 0, 0, 1, 255, 178}";
},
{
disableAlignment = 1;
name = dotaccent;
transform = "{1, 0, 0, 1, -193, -1628}";
}
);
layerId = "C4389747-BECF-4D47-A11A-92B8AD605B66";
name = Bold;
width = 546;
}
);
unicode = 1E39;
userData = {
com.typemytype.robofont.mark = (
0.656,
1,
0.6,
1
);
};
},
{
color = (167,255,153,1);
glyphname = uni1E47;
lastChange = "2015-01-18 15:55:13 +0000";
layers = (
{
background = {
paths = (
{
closed = 1;
nodes = (
"453 -312 CURVE SMOOTH",
"453 -388 OFFCURVE",
"509 -441 OFFCURVE",
"585 -441 CURVE SMOOTH",
"661 -441 OFFCURVE",
"717 -388 OFFCURVE",
"717 -312 CURVE SMOOTH",
"717 -238 OFFCURVE",
"661 -184 OFFCURVE",
"585 -184 CURVE SMOOTH",
"509 -184 OFFCURVE",
"453 -238 OFFCURVE"
);
}
);
};
components = (
{
name = n;
transform = "{1, 0, 0, 1, 0, 0}";
},
{
disableAlignment = 1;
name = dotaccent;
transform = "{1, 0, 0, 1, 26, -1628}";
}
);
layerId = "C4389747-BECF-4D47-A11A-92B8AD605B66";
name = Bold;
width = 1139;
}
);
unicode = 1E47;
userData = {
com.typemytype.robofont.mark = (
0.656,
1,
0.6,
1
);
};
},
{
color = (167,255,153,1);
glyphname = uni1E49;
lastChange = "2015-01-18 15:55:42 +0000";
layers = (
{
background = {
paths = (
{
closed = 1;
nodes = (
"844 -217 LINE",
"306 -217 LINE",
"306 -366 LINE",
"844 -366 LINE"
);
}
);
};
components = (
{
name = n;
transform = "{1, 0, 0, 1, 0, 0}";
},
{
disableAlignment = 1;
name = macron.cap;
transform = "{1, 0, 0, 1, 575, -1852}";
}
);
layerId = "C4389747-BECF-4D47-A11A-92B8AD605B66";
name = Bold;
width = 1139;
}
);
unicode = 1E49;
userData = {
com.typemytype.robofont.mark = (
0.656,
1,
0.6,
1
);
};
},
{
color = (167,255,153,1);
glyphname = uni1E5D;
lastChange = "2015-01-18 15:56:33 +0000";
layers = (
{
background = {
paths = (
{
closed = 1;
nodes = (
"711 1367 LINE",
"173 1367 LINE",
"173 1218 LINE",
"711 1218 LINE"
);
}
);
};
components = (
{
name = r;
transform = "{1, 0, 0, 1, 0, 0}";
},
{
disableAlignment = 1;
name = macron.cap;
transform = "{1, 0, 0, 1, 444, -268}";
},
{
disableAlignment = 1;
name = dotaccent;
transform = "{1, 0, 0, 1, -286, -1628}";
}
);
layerId = "C4389747-BECF-4D47-A11A-92B8AD605B66";
name = Bold;
width = 751;
}
);
unicode = 1E5D;
userData = {
com.typemytype.robofont.mark = (
0.656,
1,
0.6,
1
);
};
},
{
glyphname = uogonek;
lastChange = "2015-01-16 19:51:49 +0000";
layers = (
{
anchors = (
{
name = mark0;
position = "{556, 1028}";
}
);
hints = (
{
horizontal = 1;
origin = "{0, 0}";
target = "{0, 0}";
type = Tag;
name = hr01;
},
{
horizontal = 1;
origin = "{0, 13}";
target = "{0, 0}";
type = Tag;
name = hr02;
},
{
horizontal = 1;
origin = "{0, 29}";
target = "{0, 0}";
type = Tag;
name = hr03;
},
{
horizontal = 1;
origin = "{0, 35}";
target = "{0, 0}";
type = Tag;
name = hr04;
}
);
layerId = "C4389747-BECF-4D47-A11A-92B8AD605B66";
name = Bold;
paths = (
{
closed = 1;
nodes = (
"362 1003 LINE",
"142 1003 LINE",
"142 373 LINE SMOOTH",
"142 119 OFFCURVE",
"236 -25 OFFCURVE",
"451 -25 CURVE SMOOTH",
"589 -25 OFFCURVE",
"686 44 OFFCURVE",
"775 150 CURVE",
"782 150 LINE",
"802 3 LINE",
"726 -50 OFFCURVE",
"645 -132 OFFCURVE",
"645 -246 CURVE SMOOTH",
"645 -364 OFFCURVE",
"733 -425 OFFCURVE",
"843 -425 CURVE SMOOTH",
"900 -425 OFFCURVE",
"977 -399 OFFCURVE",
"1021 -365 CURVE",
"971 -262 LINE",
"949 -276 OFFCURVE",
"922 -287 OFFCURVE",
"891 -287 CURVE SMOOTH",
"846 -287 OFFCURVE",
"800 -259 OFFCURVE",
"800 -199 CURVE SMOOTH",
"800 -127 OFFCURVE",
"852 -52 OFFCURVE",
"979 0 CURVE",
"979 1003 LINE",
"760 1003 LINE",
"760 310 LINE",
"679 207 OFFCURVE",
"618 163 OFFCURVE",
"526 163 CURVE SMOOTH",
"410 163 OFFCURVE",
"362 231 OFFCURVE",
"362 401 CURVE SMOOTH"
);
}
);
width = 1133;
}
);
unicode = 0173;
userData = {
com.adobe.type.autohint = "ICA8aGludFNldExpc3Q+CiAgICA8aGludHNldCBw";
};
},
{
color = (255,153,153,1);
glyphname = v;
lastChange = "2015-01-16 19:50:31 +0000";
layers = (
{
anchors = (
{
name = mark0;
position = "{503, -45}";
},
{
name = top;
position = "{500, 800}";
}
);
hints = (
{
horizontal = 1;
origin = "{0, 0}";
target = "{0, 0}";
type = Tag;
name = hr00;
}
);
layerId = "C4389747-BECF-4D47-A11A-92B8AD605B66";
name = Bold;
paths = (
{
closed = 1;
nodes = (
"248 1003 LINE",
"25 1003 LINE",
"377 0 LINE",
"632 0 LINE",
"976 1003 LINE",
"763 1003 LINE",
"596 471 LINE",
"568 372 OFFCURVE",
"537 269 OFFCURVE",
"510 170 CURVE",
"502 170 LINE",
"473 269 OFFCURVE",
"442 372 OFFCURVE",
"414 471 CURVE"
);
}
);
width = 1000;
}
);
unicode = 0076;
userData = {
com.adobe.type.autohint = "ICA8aGludFNldExpc3Q+CiAgICA8aGludHNldCBw";
com.typemytype.robofont.mark = (
1,
0.6,
0.6,
1
);
};
},
{
color = (255,153,153,1);
glyphname = w;
lastChange = "2015-01-16 19:50:31 +0000";
layers = (
{
anchors = (
{
name = mark0;
position = "{760, -45}";
},
{
name = top;
position = "{757, 800}";
}
);
hints = (
{
horizontal = 1;
origin = "{0, 0}";
target = "{0, 0}";
type = Tag;
name = hr01;
},
{
horizontal = 1;
origin = "{0, 7}";
target = "{0, 0}";
type = Tag;
name = hr02;
}
);
layerId = "C4389747-BECF-4D47-A11A-92B8AD605B66";
name = Bold;
paths = (
{
closed = 1;
nodes = (
"269 1003 LINE",
"49 1003 LINE",
"317 0 LINE",
"570 0 LINE",
"691 484 LINE",
"714 579 OFFCURVE",
"732 673 OFFCURVE",
"753 776 CURVE",
"761 776 LINE",
"783 673 OFFCURVE",
"801 580 OFFCURVE",
"824 486 CURVE",
"948 0 LINE",
"1209 0 LINE",
"1466 1003 LINE",
"1262 1003 LINE",
"1135 468 LINE",
"1115 371 OFFCURVE",
"1100 278 OFFCURVE",
"1079 182 CURVE",
"1071 182 LINE",
"1049 278 OFFCURVE",
"1028 371 OFFCURVE",
"1004 468 CURVE",
"863 1003 LINE",
"663 1003 LINE",
"525 468 LINE",
"500 374 OFFCURVE",
"482 278 OFFCURVE",
"460 182 CURVE",
"452 182 LINE",
"435 278 OFFCURVE",
"418 371 OFFCURVE",
"398 468 CURVE"
);
}
);
width = 1515;
}
);
unicode = 0077;
userData = {
com.adobe.type.autohint = "ICA8aGludFNldExpc3Q+CiAgICA8aGludHNldCBw";
com.typemytype.robofont.mark = (
1,
0.6,
0.6,
1
);
};
},
{
color = (255,153,153,1);
glyphname = x;
lastChange = "2015-01-16 19:50:31 +0000";
layers = (
{
anchors = (
{
name = mark0;
position = "{483, -45}";
},
{
name = top;
position = "{483, 800}";
}
);
hints = (
{
horizontal = 1;
origin = "{0, 0}";
target = "{0, 0}";
type = Tag;
name = hr00;
}
);
layerId = "C4389747-BECF-4D47-A11A-92B8AD605B66";
name = Bold;
paths = (
{
closed = 1;
nodes = (
"51 1003 LINE",
"349 523 LINE",
"29 0 LINE",
"257 0 LINE",
"371 207 LINE",
"400 268 OFFCURVE",
"432 327 OFFCURVE",
"462 385 CURVE",
"471 385 LINE",
"506 327 OFFCURVE",
"540 266 OFFCURVE",
"574 207 CURVE",
"701 0 LINE",
"938 0 LINE",
"618 499 LINE",
"917 1003 LINE",
"689 1003 LINE",
"588 805 LINE",
"561 750 OFFCURVE",
"531 692 OFFCURVE",
"506 636 CURVE",
"498 636 LINE",
"465 692 OFFCURVE",
"433 750 OFFCURVE",
"404 805 CURVE",
"288 1003 LINE"
);
}
);
width = 966;
}
);
unicode = 0078;
userData = {
com.adobe.type.autohint = "ICA8aGludFNldExpc3Q+CiAgICA8aGludHNldCBw";
com.typemytype.robofont.mark = (
1,
0.6,
0.6,
1
);
};
},
{
color = (255,153,153,1);
glyphname = y;
lastChange = "2015-01-16 19:50:31 +0000";
layers = (
{
anchors = (
{
name = mark0;
position = "{431, -495}";
},
{
name = top;
position = "{499, 800}";
}
);
hints = (
{
horizontal = 1;
origin = "{0, 0}";
target = "{0, 0}";
type = Tag;
name = hr01;
},
{
horizontal = 1;
origin = "{0, 4}";
target = "{0, 0}";
type = Tag;
name = hr02;
},
{
horizontal = 1;
origin = "{0, 7}";
target = "{0, 0}";
type = Tag;
name = hr03;
}
);
layerId = "C4389747-BECF-4D47-A11A-92B8AD605B66";
name = Bold;
paths = (
{
closed = 1;
nodes = (
"194 -240 CURVE SMOOTH",
"171 -240 OFFCURVE",
"141 -232 OFFCURVE",
"121 -226 CURVE",
"81 -396 LINE",
"116 -408 OFFCURVE",
"156 -416 OFFCURVE",
"208 -416 CURVE SMOOTH",
"423 -416 OFFCURVE",
"528 -274 OFFCURVE",
"608 -55 CURVE",
"974 1003 LINE",
"760 1003 LINE",
"604 496 LINE",
"578 404 OFFCURVE",
"554 305 OFFCURVE",
"527 212 CURVE",
"519 212 LINE",
"490 308 OFFCURVE",
"459 407 OFFCURVE",
"428 496 CURVE SMOOTH",
"248 1003 LINE",
"25 1003 LINE",
"421 9 LINE",
"401 -57 LINE",
"366 -164 OFFCURVE",
"302 -240 OFFCURVE"
);
}
);
width = 998;
}
);
unicode = 0079;
userData = {
com.adobe.type.autohint = "ICA8aGludFNldExpc3Q+CiAgICA8aGludHNldCBw";
com.typemytype.robofont.mark = (
1,
0.6,
0.6,
1
);
};
},
{
color = (255,153,153,1);
glyphname = z;
lastChange = "2015-01-16 19:50:31 +0000";
layers = (
{
anchors = (
{
name = mark0;
position = "{480, -45}";
},
{
name = top;
position = "{457, 800}";
}
);
hints = (
{
horizontal = 1;
origin = "{0, 0}";
target = "{0, 0}";
type = Tag;
name = hr00;
}
);
layerId = "C4389747-BECF-4D47-A11A-92B8AD605B66";
name = Bold;
paths = (
{
closed = 1;
nodes = (
"556 828 LINE",
"69 117 LINE",
"69 0 LINE",
"846 0 LINE",
"846 175 LINE",
"344 175 LINE",
"831 886 LINE",
"831 1003 LINE",
"123 1003 LINE",
"123 828 LINE"
);
}
);
width = 897;
}
);
unicode = 007A;
userData = {
com.adobe.type.autohint = "ICA8aGludFNldExpc3Q+CiAgICA8aGludHNldCBw";
com.typemytype.robofont.mark = (
1,
0.6,
0.6,
1
);
};
},
{
glyphname = a.sups;
lastChange = "2015-01-16 19:50:31 +0000";
layers = (
{
hints = (
{
horizontal = 1;
origin = "{0, 0}";
target = "{0, 0}";
type = Tag;
name = hr00;
}
);
layerId = "C4389747-BECF-4D47-A11A-92B8AD605B66";
name = Bold;
paths = (
{
closed = 1;
nodes = (
"70 714 CURVE SMOOTH",
"70 599 OFFCURVE",
"151 516 OFFCURVE",
"274 516 CURVE SMOOTH",
"355 516 OFFCURVE",
"422 556 OFFCURVE",
"474 605 CURVE",
"483 605 LINE",
"499 532 LINE",
"627 532 LINE",
"627 929 LINE SMOOTH",
"627 1114 OFFCURVE",
"544 1214 OFFCURVE",
"377 1214 CURVE SMOOTH",
"270 1214 OFFCURVE",
"171 1172 OFFCURVE",
"94 1126 CURVE",
"153 1018 LINE",
"212 1053 OFFCURVE",
"286 1085 OFFCURVE",
"351 1085 CURVE SMOOTH",
"436 1085 OFFCURVE",
"464 1034 OFFCURVE",
"467 958 CURVE",
"191 931 OFFCURVE",
"70 857 OFFCURVE"
);
},
{
closed = 1;
nodes = (
"467 861 CURVE",
"467 711 LINE",
"418 664 OFFCURVE",
"374 641 OFFCURVE",
"324 641 CURVE SMOOTH",
"263 641 OFFCURVE",
"224 668 OFFCURVE",
"224 726 CURVE SMOOTH",
"224 792 OFFCURVE",
"285 841 OFFCURVE"
);
}
);
width = 718;
}
);
unicode = 1D43;
userData = {
com.adobe.type.autohint = "ICA8aGludFNldExpc3Q+CiAgICA8aGludHNldCBw";
};
},
{
glyphname = b.sups;
lastChange = "2015-01-16 19:50:31 +0000";
layers = (
{
hints = (
{
horizontal = 1;
origin = "{0, 0}";
target = "{0, 0}";
type = Tag;
name = hr00;
}
);
layerId = "C4389747-BECF-4D47-A11A-92B8AD605B66";
name = Bold;
paths = (
{
closed = 1;
nodes = (
"258 1488 LINE",
"98 1488 LINE",
"98 532 LINE",
"222 532 LINE",
"236 600 LINE",
"244 600 LINE",
"297 545 OFFCURVE",
"366 516 OFFCURVE",
"428 516 CURVE SMOOTH",
"576 516 OFFCURVE",
"712 647 OFFCURVE",
"712 877 CURVE SMOOTH",
"712 1080 OFFCURVE",
"615 1214 OFFCURVE",
"446 1214 CURVE SMOOTH",
"375 1214 OFFCURVE",
"309 1177 OFFCURVE",
"251 1128 CURVE",
"258 1239 LINE"
);
},
{
closed = 1;
nodes = (
"396 645 CURVE SMOOTH",
"355 645 OFFCURVE",
"305 660 OFFCURVE",
"258 700 CURVE",
"258 1008 LINE",
"308 1057 OFFCURVE",
"356 1083 OFFCURVE",
"404 1083 CURVE SMOOTH",
"503 1083 OFFCURVE",
"548 1008 OFFCURVE",
"548 875 CURVE SMOOTH",
"548 724 OFFCURVE",
"482 645 OFFCURVE"
);
}
);
width = 774;
}
);
unicode = 1D47;
userData = {
com.adobe.type.autohint = "ICA8aGludFNldExpc3Q+CiAgICA8aGludHNldCBw";
};
},
{
glyphname = c.sups;
lastChange = "2015-01-16 19:50:31 +0000";
layers = (
{
hints = (
{
horizontal = 1;
origin = "{0, 0}";
target = "{0, 0}";
type = Tag;
name = hr00;
}
);
layerId = "C4389747-BECF-4D47-A11A-92B8AD605B66";
name = Bold;
paths = (
{
closed = 1;
nodes = (
"56 865 CURVE SMOOTH",
"56 643 OFFCURVE",
"193 516 OFFCURVE",
"379 516 CURVE SMOOTH",
"484 516 OFFCURVE",
"555 556 OFFCURVE",
"602 594 CURVE",
"536 697 LINE",
"501 670 OFFCURVE",
"462 645 OFFCURVE",
"397 645 CURVE SMOOTH",
"292 645 OFFCURVE",
"219 735 OFFCURVE",
"219 865 CURVE SMOOTH",
"219 995 OFFCURVE",
"296 1085 OFFCURVE",
"398 1085 CURVE SMOOTH",
"450 1085 OFFCURVE",
"480 1068 OFFCURVE",
"517 1040 CURVE",
"592 1143 LINE",
"554 1177 OFFCURVE",
"484 1214 OFFCURVE",
"386 1214 CURVE SMOOTH",
"210 1214 OFFCURVE",
"56 1084 OFFCURVE"
);
}
);
width = 632;
}
);
unicode = 1D9C;
userData = {
com.adobe.type.autohint = "ICA8aGludFNldExpc3Q+CiAgICA8aGludHNldCBw";
};
},
{
glyphname = d.sups;
lastChange = "2015-01-16 19:50:31 +0000";
layers = (
{
hints = (
{
horizontal = 1;
origin = "{0, 0}";
target = "{0, 0}";
type = Tag;
name = hr00;
}
);
layerId = "C4389747-BECF-4D47-A11A-92B8AD605B66";
name = Bold;
paths = (
{
closed = 1;
nodes = (
"62 877 CURVE SMOOTH",
"62 647 OFFCURVE",
"169 516 OFFCURVE",
"343 516 CURVE SMOOTH",
"415 516 OFFCURVE",
"475 555 OFFCURVE",
"527 601 CURVE",
"532 601 LINE",
"547 532 LINE",
"677 532 LINE",
"677 1488 LINE",
"517 1488 LINE",
"517 1253 LINE",
"525 1140 LINE",
"475 1185 OFFCURVE",
"418 1214 OFFCURVE",
"347 1214 CURVE SMOOTH",
"204 1214 OFFCURVE",
"62 1085 OFFCURVE"
);
},
{
closed = 1;
nodes = (
"517 1028 CURVE",
"517 721 LINE",
"471 670 OFFCURVE",
"430 645 OFFCURVE",
"382 645 CURVE SMOOTH",
"278 645 OFFCURVE",
"226 724 OFFCURVE",
"226 877 CURVE SMOOTH",
"226 1006 OFFCURVE",
"297 1085 OFFCURVE",
"380 1085 CURVE SMOOTH",
"423 1085 OFFCURVE",
"469 1069 OFFCURVE"
);
}
);
width = 774;
}
);
unicode = 1D48;
userData = {
com.adobe.type.autohint = "ICA8aGludFNldExpc3Q+CiAgICA8aGludHNldCBw";
};
},
{
glyphname = e.sups;
lastChange = "2015-01-16 19:50:31 +0000";
layers = (
{
hints = (
{
horizontal = 1;
origin = "{0, 0}";
target = "{0, 0}";
type = Tag;
name = hr00;
}
);
layerId = "C4389747-BECF-4D47-A11A-92B8AD605B66";
name = Bold;
paths = (
{
closed = 1;
nodes = (
"54 865 CURVE SMOOTH",
"54 644 OFFCURVE",
"201 516 OFFCURVE",
"386 516 CURVE SMOOTH",
"473 516 OFFCURVE",
"557 547 OFFCURVE",
"624 590 CURVE",
"566 689 LINE",
"518 658 OFFCURVE",
"464 641 OFFCURVE",
"406 641 CURVE SMOOTH",
"296 641 OFFCURVE",
"220 704 OFFCURVE",
"209 827 CURVE",
"637 827 LINE",
"644 856 OFFCURVE",
"646 871 OFFCURVE",
"646 903 CURVE SMOOTH",
"646 1047 OFFCURVE",
"571 1214 OFFCURVE",
"368 1214 CURVE SMOOTH",
"200 1214 OFFCURVE",
"54 1078 OFFCURVE"
);
},
{
closed = 1;
nodes = (
"508 922 CURVE",
"206 922 LINE",
"222 1031 OFFCURVE",
"283 1089 OFFCURVE",
"369 1089 CURVE SMOOTH",
"473 1089 OFFCURVE",
"508 1005 OFFCURVE"
);
}
);
width = 696;
}
);
unicode = 1D49;
userData = {
com.adobe.type.autohint = "ICA8aGludFNldExpc3Q+CiAgICA8aGludHNldCBw";
};
},
{
glyphname = eacute.sups;
lastChange = "2015-01-16 19:50:31 +0000";
layers = (
{
hints = (
{
horizontal = 1;
origin = "{0, 0}";
target = "{0, 0}";
type = Tag;
name = hr00;
}
);
layerId = "C4389747-BECF-4D47-A11A-92B8AD605B66";
name = Bold;
paths = (
{
closed = 1;
nodes = (
"548 1507 LINE",
"388 1507 LINE",
"265 1310 LINE",
"387 1310 LINE"
);
},
{
closed = 1;
nodes = (
"54 865 CURVE SMOOTH",
"54 644 OFFCURVE",
"201 516 OFFCURVE",
"386 516 CURVE SMOOTH",
"473 516 OFFCURVE",
"557 547 OFFCURVE",
"624 590 CURVE",
"566 689 LINE",
"518 658 OFFCURVE",
"464 641 OFFCURVE",
"406 641 CURVE SMOOTH",
"296 641 OFFCURVE",
"220 704 OFFCURVE",
"209 827 CURVE",
"637 827 LINE",
"644 856 OFFCURVE",
"646 871 OFFCURVE",
"646 903 CURVE SMOOTH",
"646 1047 OFFCURVE",
"571 1214 OFFCURVE",
"368 1214 CURVE SMOOTH",
"200 1214 OFFCURVE",
"54 1078 OFFCURVE"
);
},
{
closed = 1;
nodes = (
"508 922 CURVE",
"206 922 LINE",
"222 1031 OFFCURVE",
"283 1089 OFFCURVE",
"369 1089 CURVE SMOOTH",
"473 1089 OFFCURVE",
"508 1005 OFFCURVE"
);
}
);
width = 696;
}
);
userData = {
com.adobe.type.autohint = "ICA8aGludFNldExpc3Q+CiAgICA8aGludHNldCBw";
};
},
{
glyphname = egrave.sups;
lastChange = "2015-01-16 19:50:31 +0000";
layers = (
{
hints = (
{
horizontal = 1;
origin = "{0, 0}";
target = "{0, 0}";
type = Tag;
name = hr00;
}
);
layerId = "C4389747-BECF-4D47-A11A-92B8AD605B66";
name = Bold;
paths = (
{
closed = 1;
nodes = (
"349 1507 LINE",
"188 1507 LINE",
"347 1310 LINE",
"469 1310 LINE"
);
},
{
closed = 1;
nodes = (
"54 865 CURVE SMOOTH",
"54 644 OFFCURVE",
"201 516 OFFCURVE",
"386 516 CURVE SMOOTH",
"473 516 OFFCURVE",
"557 547 OFFCURVE",
"624 590 CURVE",
"566 689 LINE",
"518 658 OFFCURVE",
"464 641 OFFCURVE",
"406 641 CURVE SMOOTH",
"296 641 OFFCURVE",
"220 704 OFFCURVE",
"209 827 CURVE",
"637 827 LINE",
"644 856 OFFCURVE",
"646 871 OFFCURVE",
"646 903 CURVE SMOOTH",
"646 1047 OFFCURVE",
"571 1214 OFFCURVE",
"368 1214 CURVE SMOOTH",
"200 1214 OFFCURVE",
"54 1078 OFFCURVE"
);
},
{
closed = 1;
nodes = (
"508 922 CURVE",
"206 922 LINE",
"222 1031 OFFCURVE",
"283 1089 OFFCURVE",
"369 1089 CURVE SMOOTH",
"473 1089 OFFCURVE",
"508 1005 OFFCURVE"
);
}
);
width = 696;
}
);
userData = {
com.adobe.type.autohint = "ICA8aGludFNldExpc3Q+CiAgICA8aGludHNldCBw";
};
},
{
glyphname = f.sups;
lastChange = "2015-01-16 19:50:31 +0000";
layers = (
{
hints = (
{
horizontal = 1;
origin = "{0, 0}";
target = "{0, 0}";
type = Tag;
name = hr00;
}
);
layerId = "C4389747-BECF-4D47-A11A-92B8AD605B66";
name = Bold;
paths = (
{
closed = 1;
nodes = (
"445 1375 CURVE",
"477 1490 LINE",
"442 1504 OFFCURVE",
"402 1513 OFFCURVE",
"353 1513 CURVE SMOOTH",
"193 1513 OFFCURVE",
"128 1400 OFFCURVE",
"128 1260 CURVE SMOOTH",
"128 1197 LINE",
"36 1191 LINE",
"36 1073 LINE",
"128 1073 LINE",
"128 532 LINE",
"288 532 LINE",
"288 1073 LINE",
"419 1073 LINE",
"419 1197 LINE",
"288 1197 LINE",
"288 1268 LINE SMOOTH",
"288 1345 OFFCURVE",
"318 1387 OFFCURVE",
"372 1387 CURVE SMOOTH",
"402 1387 OFFCURVE",
"427 1380 OFFCURVE"
);
}
);
width = 436;
}
);
unicode = 1DA0;
userData = {
com.adobe.type.autohint = "ICA8aGludFNldExpc3Q+CiAgICA8aGludHNldCBw";
};
},
{
glyphname = g.sups;
lastChange = "2015-01-16 19:50:31 +0000";
layers = (
{
hints = (
{
horizontal = 1;
origin = "{0, 0}";
target = "{0, 0}";
type = Tag;
name = hr01;
},
{
horizontal = 1;
origin = "{0, 17}";
target = "{0, 0}";
type = Tag;
name = hr02;
},
{
horizontal = 1;
origin = "{0, 35}";
target = "{0, 0}";
type = Tag;
name = hr03;
},
{
horizontal = 1;
origin = "{0, 45}";
target = "{0, 0}";
type = Tag;
name = hr04;
},
{
horizontal = 1;
origin = "{1, 0}";
target = "{0, 0}";
type = Tag;
name = hr06;
},
{
horizontal = 1;
origin = "{2, 0}";
target = "{0, 0}";
type = Tag;
name = hr07;
}
);
layerId = "C4389747-BECF-4D47-A11A-92B8AD605B66";
name = Bold;
paths = (
{
closed = 1;
nodes = (
"150 558 CURVE",
"150 550 LINE",
"89 516 OFFCURVE",
"56 470 OFFCURVE",
"56 413 CURVE SMOOTH",
"56 295 OFFCURVE",
"172 239 OFFCURVE",
"334 239 CURVE SMOOTH",
"557 239 OFFCURVE",
"693 343 OFFCURVE",
"693 474 CURVE SMOOTH",
"693 590 OFFCURVE",
"613 639 OFFCURVE",
"448 639 CURVE SMOOTH",
"328 639 LINE SMOOTH",
"247 639 OFFCURVE",
"219 658 OFFCURVE",
"219 696 CURVE SMOOTH",
"219 724 OFFCURVE",
"232 741 OFFCURVE",
"252 758 CURVE",
"284 744 OFFCURVE",
"315 739 OFFCURVE",
"343 739 CURVE SMOOTH",
"484 739 OFFCURVE",
"601 820 OFFCURVE",
"601 970 CURVE SMOOTH",
"601 1010 OFFCURVE",
"585 1053 OFFCURVE",
"565 1076 CURVE",
"683 1076 LINE",
"683 1196 LINE",
"449 1196 LINE",
"419 1208 OFFCURVE",
"383 1214 OFFCURVE",
"343 1214 CURVE SMOOTH",
"200 1214 OFFCURVE",
"75 1127 OFFCURVE",
"75 973 CURVE SMOOTH",
"75 895 OFFCURVE",
"118 832 OFFCURVE",
"165 800 CURVE",
"165 791 LINE",
"124 765 OFFCURVE",
"90 718 OFFCURVE",
"90 671 CURVE SMOOTH",
"90 615 OFFCURVE",
"115 582 OFFCURVE"
);
},
{
closed = 1;
nodes = (
"460 973 CURVE SMOOTH",
"460 891 OFFCURVE",
"408 841 OFFCURVE",
"343 841 CURVE SMOOTH",
"274 841 OFFCURVE",
"225 891 OFFCURVE",
"225 973 CURVE SMOOTH",
"225 1057 OFFCURVE",
"274 1103 OFFCURVE",
"343 1103 CURVE SMOOTH",
"408 1103 OFFCURVE",
"460 1057 OFFCURVE"
);
},
{
closed = 1;
nodes = (
"359 344 CURVE SMOOTH",
"254 344 OFFCURVE",
"189 378 OFFCURVE",
"189 438 CURVE SMOOTH",
"189 468 OFFCURVE",
"208 497 OFFCURVE",
"241 521 CURVE",
"270 513 OFFCURVE",
"304 513 OFFCURVE",
"329 513 CURVE SMOOTH",
"423 513 LINE SMOOTH",
"498 513 OFFCURVE",
"540 498 OFFCURVE",
"540 449 CURVE SMOOTH",
"540 392 OFFCURVE",
"467 344 OFFCURVE"
);
}
);
width = 716;
}
);
unicode = 1D4D;
userData = {
com.adobe.type.autohint = "ICA8aGludFNldExpc3Q+CiAgICA8aGludHNldCBw";
};
},
{
glyphname = h.sups;
lastChange = "2015-01-16 19:50:31 +0000";
layers = (
{
hints = (
{
horizontal = 1;
origin = "{0, 0}";
target = "{0, 0}";
type = Tag;
name = hr00;
}
);
layerId = "C4389747-BECF-4D47-A11A-92B8AD605B66";
name = Bold;
paths = (
{
closed = 1;
nodes = (
"258 1488 LINE",
"98 1488 LINE",
"98 532 LINE",
"258 532 LINE",
"258 995 LINE",
"315 1051 OFFCURVE",
"360 1079 OFFCURVE",
"409 1079 CURVE SMOOTH",
"499 1079 OFFCURVE",
"517 1023 OFFCURVE",
"517 927 CURVE SMOOTH",
"517 532 LINE",
"677 532 LINE",
"677 947 LINE SMOOTH",
"677 1107 OFFCURVE",
"620 1214 OFFCURVE",
"467 1214 CURVE SMOOTH",
"378 1214 OFFCURVE",
"302 1163 OFFCURVE",
"249 1108 CURVE",
"258 1240 LINE"
);
}
);
width = 764;
}
);
unicode = 02B0;
userData = {
com.adobe.type.autohint = "ICA8aGludFNldExpc3Q+CiAgICA8aGludHNldCBw";
};
},
{
glyphname = i.sups;
lastChange = "2015-01-16 19:50:31 +0000";
layers = (
{
hints = (
{
horizontal = 1;
origin = "{0, 0}";
target = "{0, 0}";
type = Tag;
name = hr01;
},
{
horizontal = 1;
origin = "{1, 0}";
target = "{0, 0}";
type = Tag;
name = hr02;
}
);
layerId = "C4389747-BECF-4D47-A11A-92B8AD605B66";
name = Bold;
paths = (
{
closed = 1;
nodes = (
"81 1402 CURVE SMOOTH",
"81 1349 OFFCURVE",
"122 1311 OFFCURVE",
"180 1311 CURVE SMOOTH",
"237 1311 OFFCURVE",
"279 1349 OFFCURVE",
"279 1402 CURVE SMOOTH",
"279 1454 OFFCURVE",
"237 1492 OFFCURVE",
"180 1492 CURVE SMOOTH",
"122 1492 OFFCURVE",
"81 1454 OFFCURVE"
);
},
{
closed = 1;
nodes = (
"258 1197 LINE",
"98 1197 LINE",
"98 532 LINE",
"258 532 LINE"
);
}
);
width = 357;
}
);
unicode = 2071;
userData = {
com.adobe.type.autohint = "ICA8aGludFNldExpc3Q+CiAgICA8aGludHNldCBw";
};
},
{
glyphname = j.sups;
lastChange = "2015-01-16 19:50:31 +0000";
layers = (
{
hints = (
{
horizontal = 1;
origin = "{0, 0}";
target = "{0, 0}";
type = Tag;
name = hr01;
},
{
horizontal = 1;
origin = "{1, 7}";
target = "{0, 0}";
type = Tag;
name = hr02;
}
);
layerId = "C4389747-BECF-4D47-A11A-92B8AD605B66";
name = Bold;
paths = (
{
closed = 1;
nodes = (
"85 1402 CURVE SMOOTH",
"85 1349 OFFCURVE",
"126 1311 OFFCURVE",
"184 1311 CURVE SMOOTH",
"241 1311 OFFCURVE",
"283 1349 OFFCURVE",
"283 1402 CURVE SMOOTH",
"283 1454 OFFCURVE",
"241 1492 OFFCURVE",
"184 1492 CURVE SMOOTH",
"126 1492 OFFCURVE",
"85 1454 OFFCURVE"
);
},
{
closed = 1;
nodes = (
"-29 382 CURVE",
"-59 259 LINE",
"-29 250 OFFCURVE",
"-1 243 OFFCURVE",
"50 243 CURVE SMOOTH",
"207 243 OFFCURVE",
"263 348 OFFCURVE",
"263 494 CURVE SMOOTH",
"263 1197 LINE",
"103 1197 LINE",
"103 486 LINE SMOOTH",
"103 410 OFFCURVE",
"87 372 OFFCURVE",
"28 372 CURVE SMOOTH",
"2 372 OFFCURVE",
"-13 376 OFFCURVE"
);
}
);
width = 362;
}
);
unicode = 02B2;
userData = {
com.adobe.type.autohint = "ICA8aGludFNldExpc3Q+CiAgICA8aGludHNldCBw";
};
},
{
glyphname = k.sups;
lastChange = "2015-01-16 19:50:31 +0000";
layers = (
{
hints = (
{
horizontal = 1;
origin = "{0, 0}";
target = "{0, 0}";
type = Tag;
name = hr00;
}
);
layerId = "C4389747-BECF-4D47-A11A-92B8AD605B66";
name = Bold;
paths = (
{
closed = 1;
nodes = (
"258 1488 LINE",
"98 1488 LINE",
"98 532 LINE",
"258 532 LINE",
"258 697 LINE",
"357 817 LINE",
"533 532 LINE",
"707 532 LINE",
"448 922 LINE",
"683 1197 LINE",
"508 1197 LINE",
"267 894 LINE",
"258 894 LINE"
);
}
);
width = 717;
}
);
unicode = 1D4F;
userData = {
com.adobe.type.autohint = "ICA8aGludFNldExpc3Q+CiAgICA8aGludHNldCBw";
};
},
{
glyphname = l.sups;
lastChange = "2015-01-16 19:50:31 +0000";
layers = (
{
hints = (
{
horizontal = 1;
origin = "{0, 0}";
target = "{0, 0}";
type = Tag;
name = hr00;
}
);
layerId = "C4389747-BECF-4D47-A11A-92B8AD605B66";
name = Bold;
paths = (
{
closed = 1;
nodes = (
"258 1488 LINE",
"98 1488 LINE",
"98 709 LINE SMOOTH",
"98 591 OFFCURVE",
"138 516 OFFCURVE",
"256 516 CURVE SMOOTH",
"295 516 OFFCURVE",
"320 523 OFFCURVE",
"340 531 CURVE",
"320 649 LINE",
"308 645 OFFCURVE",
"300 645 OFFCURVE",
"292 645 CURVE SMOOTH",
"272 645 OFFCURVE",
"258 660 OFFCURVE",
"258 699 CURVE SMOOTH"
);
}
);
width = 372;
}
);
unicode = 02E1;
userData = {
com.adobe.type.autohint = "ICA8aGludFNldExpc3Q+CiAgICA8aGludHNldCBw";
};
},
{
glyphname = m.sups;
lastChange = "2015-01-16 19:50:31 +0000";
layers = (
{
hints = (
{
horizontal = 1;
origin = "{0, 0}";
target = "{0, 0}";
type = Tag;
name = hr00;
}
);
layerId = "C4389747-BECF-4D47-A11A-92B8AD605B66";
name = Bold;
paths = (
{
closed = 1;
nodes = (
"228 1197 LINE",
"98 1197 LINE",
"98 532 LINE",
"258 532 LINE",
"258 996 LINE",
"313 1052 OFFCURVE",
"355 1079 OFFCURVE",
"397 1079 CURVE SMOOTH",
"479 1079 OFFCURVE",
"503 1023 OFFCURVE",
"503 927 CURVE SMOOTH",
"503 532 LINE",
"662 532 LINE",
"662 996 LINE",
"718 1052 OFFCURVE",
"760 1079 OFFCURVE",
"802 1079 CURVE SMOOTH",
"885 1079 OFFCURVE",
"909 1023 OFFCURVE",
"909 927 CURVE SMOOTH",
"909 532 LINE",
"1069 532 LINE",
"1069 947 LINE SMOOTH",
"1069 1107 OFFCURVE",
"1006 1214 OFFCURVE",
"858 1214 CURVE SMOOTH",
"768 1214 OFFCURVE",
"699 1156 OFFCURVE",
"639 1094 CURVE",
"607 1173 OFFCURVE",
"543 1214 OFFCURVE",
"453 1214 CURVE SMOOTH",
"362 1214 OFFCURVE",
"302 1165 OFFCURVE",
"247 1106 CURVE",
"240 1106 LINE"
);
}
);
width = 1159;
}
);
unicode = 1D50;
userData = {
com.adobe.type.autohint = "ICA8aGludFNldExpc3Q+CiAgICA8aGludHNldCBw";
};
},
{
glyphname = n.sups;
lastChange = "2015-01-16 19:50:31 +0000";
layers = (
{
hints = (
{
horizontal = 1;
origin = "{0, 0}";
target = "{0, 0}";
type = Tag;
name = hr00;
}
);
layerId = "C4389747-BECF-4D47-A11A-92B8AD605B66";
name = Bold;
paths = (
{
closed = 1;
nodes = (
"226 1197 LINE",
"98 1197 LINE",
"98 532 LINE",
"258 532 LINE",
"258 995 LINE",
"315 1051 OFFCURVE",
"360 1079 OFFCURVE",
"411 1079 CURVE SMOOTH",
"499 1079 OFFCURVE",
"517 1023 OFFCURVE",
"517 927 CURVE SMOOTH",
"517 532 LINE",
"677 532 LINE",
"677 947 LINE SMOOTH",
"677 1107 OFFCURVE",
"620 1214 OFFCURVE",
"467 1214 CURVE SMOOTH",
"378 1214 OFFCURVE",
"304 1165 OFFCURVE",
"247 1106 CURVE",
"240 1106 LINE"
);
}
);
width = 767;
}
);
unicode = 207F;
userData = {
com.adobe.type.autohint = "ICA8aGludFNldExpc3Q+CiAgICA8aGludHNldCBw";
};
},
{
glyphname = o.sups;
lastChange = "2015-01-16 19:51:49 +0000";
layers = (
{
hints = (
{
horizontal = 1;
origin = "{0, 0}";
target = "{0, 0}";
type = Tag;
name = hr00;
}
);
layerId = "C4389747-BECF-4D47-A11A-92B8AD605B66";
name = Bold;
paths = (
{
closed = 1;
nodes = (
"56 864 CURVE SMOOTH",
"56 646 OFFCURVE",
"205 516 OFFCURVE",
"376 516 CURVE SMOOTH",
"546 516 OFFCURVE",
"695 646 OFFCURVE",
"695 864 CURVE SMOOTH",
"695 1085 OFFCURVE",
"546 1214 OFFCURVE",
"376 1214 CURVE SMOOTH",
"205 1214 OFFCURVE",
"56 1085 OFFCURVE"
);
},
{
closed = 1;
nodes = (
"532 864 CURVE SMOOTH",
"532 734 OFFCURVE",
"476 645 OFFCURVE",
"376 645 CURVE SMOOTH",
"276 645 OFFCURVE",
"219 734 OFFCURVE",
"219 864 CURVE SMOOTH",
"219 998 OFFCURVE",
"276 1085 OFFCURVE",
"376 1085 CURVE SMOOTH",
"476 1085 OFFCURVE",
"532 998 OFFCURVE"
);
}
);
width = 754;
}
);
unicode = 1D52;
userData = {
com.adobe.type.autohint = "ICA8aGludFNldExpc3Q+CiAgICA8aGludHNldCBw";
};
},
{
glyphname = p.sups;
lastChange = "2015-01-16 19:50:31 +0000";
layers = (
{
hints = (
{
horizontal = 1;
origin = "{0, 0}";
target = "{0, 0}";
type = Tag;
name = hr00;
}
);
layerId = "C4389747-BECF-4D47-A11A-92B8AD605B66";
name = Bold;
paths = (
{
closed = 1;
nodes = (
"226 1197 LINE",
"98 1197 LINE",
"98 255 LINE",
"258 255 LINE",
"258 460 LINE",
"249 590 LINE",
"302 542 OFFCURVE",
"368 516 OFFCURVE",
"428 516 CURVE SMOOTH",
"576 516 OFFCURVE",
"712 647 OFFCURVE",
"712 877 CURVE SMOOTH",
"712 1080 OFFCURVE",
"615 1214 OFFCURVE",
"446 1214 CURVE SMOOTH",
"370 1214 OFFCURVE",
"297 1171 OFFCURVE",
"246 1125 CURVE",
"240 1125 LINE"
);
},
{
closed = 1;
nodes = (
"396 645 CURVE SMOOTH",
"355 645 OFFCURVE",
"305 660 OFFCURVE",
"258 700 CURVE",
"258 1008 LINE",
"308 1057 OFFCURVE",
"356 1083 OFFCURVE",
"404 1083 CURVE SMOOTH",
"503 1083 OFFCURVE",
"548 1008 OFFCURVE",
"548 875 CURVE SMOOTH",
"548 724 OFFCURVE",
"482 645 OFFCURVE"
);
}
);
width = 774;
}
);
unicode = 1D56;
userData = {
com.adobe.type.autohint = "ICA8aGludFNldExpc3Q+CiAgICA8aGludHNldCBw";
};
},
{
glyphname = q.sups;
lastChange = "2015-01-16 19:50:31 +0000";
layers = (
{
hints = (
{
horizontal = 1;
origin = "{0, 0}";
target = "{0, 0}";
type = Tag;
name = hr00;
}
);
layerId = "C4389747-BECF-4D47-A11A-92B8AD605B66";
name = Bold;
paths = (
{
closed = 1;
nodes = (
"525 595 CURVE",
"517 479 LINE",
"517 255 LINE",
"677 255 LINE",
"677 1197 LINE",
"553 1197 LINE",
"539 1129 LINE",
"532 1129 LINE",
"480 1185 OFFCURVE",
"421 1214 OFFCURVE",
"351 1214 CURVE SMOOTH",
"204 1214 OFFCURVE",
"62 1082 OFFCURVE",
"62 865 CURVE SMOOTH",
"62 647 OFFCURVE",
"171 516 OFFCURVE",
"345 516 CURVE SMOOTH",
"412 516 OFFCURVE",
"478 549 OFFCURVE"
);
},
{
closed = 1;
nodes = (
"517 1026 CURVE",
"517 714 LINE",
"471 666 OFFCURVE",
"430 648 OFFCURVE",
"382 648 CURVE SMOOTH",
"278 648 OFFCURVE",
"226 726 OFFCURVE",
"226 867 CURVE SMOOTH",
"226 1006 OFFCURVE",
"300 1083 OFFCURVE",
"380 1083 CURVE SMOOTH",
"423 1083 OFFCURVE",
"471 1064 OFFCURVE"
);
}
);
width = 774;
}
);
userData = {
com.adobe.type.autohint = "ICA8aGludFNldExpc3Q+CiAgICA8aGludHNldCBw";
};
},
{
glyphname = r.sups;
lastChange = "2015-01-16 19:50:31 +0000";
layers = (
{
hints = (
{
horizontal = 1;
origin = "{0, 0}";
target = "{0, 0}";
type = Tag;
name = hr00;
}
);
layerId = "C4389747-BECF-4D47-A11A-92B8AD605B66";
name = Bold;
paths = (
{
closed = 1;
nodes = (
"228 1197 LINE",
"98 1197 LINE",
"98 532 LINE",
"260 532 LINE",
"260 937 LINE",
"302 1036 OFFCURVE",
"365 1071 OFFCURVE",
"419 1071 CURVE SMOOTH",
"444 1071 OFFCURVE",
"472 1064 OFFCURVE",
"488 1060 CURVE",
"518 1199 LINE",
"501 1208 OFFCURVE",
"473 1214 OFFCURVE",
"437 1214 CURVE SMOOTH",
"367 1214 OFFCURVE",
"300 1168 OFFCURVE",
"248 1081 CURVE",
"242 1081 LINE"
);
}
);
width = 517;
}
);
unicode = 02B3;
userData = {
com.adobe.type.autohint = "ICA8aGludFNldExpc3Q+CiAgICA8aGludHNldCBw";
};
},
{
glyphname = s.sups;
lastChange = "2015-01-16 19:50:31 +0000";
layers = (
{
hints = (
{
horizontal = 1;
origin = "{0, 0}";
target = "{0, 0}";
type = Tag;
name = hr00;
}
);
layerId = "C4389747-BECF-4D47-A11A-92B8AD605B66";
name = Bold;
paths = (
{
closed = 1;
nodes = (
"109 709 CURVE",
"36 606 LINE",
"103 554 OFFCURVE",
"199 516 OFFCURVE",
"294 516 CURVE SMOOTH",
"456 516 OFFCURVE",
"553 605 OFFCURVE",
"553 726 CURVE SMOOTH",
"553 848 OFFCURVE",
"451 890 OFFCURVE",
"361 924 CURVE SMOOTH",
"288 951 OFFCURVE",
"219 970 OFFCURVE",
"219 1023 CURVE SMOOTH",
"219 1061 OFFCURVE",
"250 1094 OFFCURVE",
"314 1094 CURVE SMOOTH",
"370 1094 OFFCURVE",
"414 1071 OFFCURVE",
"463 1037 CURVE",
"537 1135 LINE",
"481 1177 OFFCURVE",
"409 1214 OFFCURVE",
"309 1214 CURVE SMOOTH",
"161 1214 OFFCURVE",
"69 1126 OFFCURVE",
"69 1016 CURVE SMOOTH",
"69 902 OFFCURVE",
"168 852 OFFCURVE",
"258 818 CURVE",
"331 789 OFFCURVE",
"402 768 OFFCURVE",
"402 714 CURVE SMOOTH",
"402 668 OFFCURVE",
"365 635 OFFCURVE",
"298 635 CURVE SMOOTH",
"232 635 OFFCURVE",
"170 664 OFFCURVE"
);
}
);
width = 591;
}
);
unicode = 02E2;
userData = {
com.adobe.type.autohint = "ICA8aGludFNldExpc3Q+CiAgICA8aGludHNldCBw";
};
},
{
glyphname = uni0259.sups;
lastChange = "2015-01-16 19:50:31 +0000";
layers = (
{
hints = (
{
horizontal = 1;
origin = "{0, 0}";
target = "{0, 0}";
type = Tag;
name = hr00;
}
);
layerId = "C4389747-BECF-4D47-A11A-92B8AD605B66";
name = Bold;
paths = (
{
closed = 1;
nodes = (
"48 833 CURVE SMOOTH",
"48 683 OFFCURVE",
"124 516 OFFCURVE",
"331 516 CURVE SMOOTH",
"501 516 OFFCURVE",
"640 651 OFFCURVE",
"640 865 CURVE SMOOTH",
"640 1081 OFFCURVE",
"516 1214 OFFCURVE",
"324 1214 CURVE SMOOTH",
"238 1214 OFFCURVE",
"160 1184 OFFCURVE",
"93 1140 CURVE",
"151 1042 LINE",
"200 1072 OFFCURVE",
"249 1089 OFFCURVE",
"309 1089 CURVE SMOOTH",
"418 1089 OFFCURVE",
"476 1022 OFFCURVE",
"486 910 CURVE",
"57 910 LINE",
"51 879 OFFCURVE",
"48 865 OFFCURVE"
);
},
{
closed = 1;
nodes = (
"187 812 CURVE",
"487 812 LINE",
"478 695 OFFCURVE",
"416 641 OFFCURVE",
"329 641 CURVE SMOOTH",
"226 641 OFFCURVE",
"187 718 OFFCURVE"
);
}
);
width = 696;
}
);
unicode = 2094;
userData = {
com.adobe.type.autohint = "ICA8aGludFNldExpc3Q+CiAgICA8aGludHNldCBw";
};
},
{
glyphname = t.sups;
lastChange = "2015-01-16 19:50:31 +0000";
layers = (
{
hints = (
{
horizontal = 1;
origin = "{0, 0}";
target = "{0, 0}";
type = Tag;
name = hr00;
}
);
layerId = "C4389747-BECF-4D47-A11A-92B8AD605B66";
name = Bold;
paths = (
{
closed = 1;
nodes = (
"30 1072 LINE",
"126 1072 LINE",
"126 762 LINE SMOOTH",
"126 616 OFFCURVE",
"183 516 OFFCURVE",
"338 516 CURVE SMOOTH",
"394 516 OFFCURVE",
"443 528 OFFCURVE",
"480 541 CURVE",
"450 656 LINE",
"427 647 OFFCURVE",
"404 642 OFFCURVE",
"379 642 CURVE SMOOTH",
"318 642 OFFCURVE",
"285 682 OFFCURVE",
"285 761 CURVE SMOOTH",
"285 1072 LINE",
"457 1072 LINE",
"457 1197 LINE",
"285 1197 LINE",
"285 1378 LINE",
"152 1378 LINE",
"132 1197 LINE",
"30 1191 LINE"
);
}
);
width = 496;
}
);
unicode = 1D57;
userData = {
com.adobe.type.autohint = "ICA8aGludFNldExpc3Q+CiAgICA8aGludHNldCBw";
};
},
{
glyphname = u.sups;
lastChange = "2015-01-16 19:50:31 +0000";
layers = (
{
hints = (
{
horizontal = 1;
origin = "{0, 0}";
target = "{0, 0}";
type = Tag;
name = hr00;
}
);
layerId = "C4389747-BECF-4D47-A11A-92B8AD605B66";
name = Bold;
paths = (
{
closed = 1;
nodes = (
"94 1197 LINE",
"94 779 LINE SMOOTH",
"94 622 OFFCURVE",
"154 516 OFFCURVE",
"306 516 CURVE SMOOTH",
"396 516 OFFCURVE",
"470 568 OFFCURVE",
"522 622 CURVE",
"528 622 LINE",
"545 532 LINE",
"672 532 LINE",
"672 1197 LINE",
"512 1197 LINE",
"512 734 LINE",
"458 678 OFFCURVE",
"411 651 OFFCURVE",
"363 651 CURVE SMOOTH",
"271 651 OFFCURVE",
"253 705 OFFCURVE",
"253 801 CURVE SMOOTH",
"253 1197 LINE"
);
}
);
width = 768;
}
);
unicode = 1D58;
userData = {
com.adobe.type.autohint = "ICA8aGludFNldExpc3Q+CiAgICA8aGludHNldCBw";
};
},
{
glyphname = v.sups;
lastChange = "2015-01-16 19:50:31 +0000";
layers = (
{
hints = (
{
horizontal = 1;
origin = "{0, 0}";
target = "{0, 0}";
type = Tag;
name = hr00;
}
);
layerId = "C4389747-BECF-4D47-A11A-92B8AD605B66";
name = Bold;
paths = (
{
closed = 1;
nodes = (
"175 1197 LINE",
"16 1197 LINE",
"249 532 LINE",
"435 532 LINE",
"668 1197 LINE",
"513 1197 LINE",
"407 856 LINE",
"348 654 LINE",
"342 654 LINE",
"280 856 LINE"
);
}
);
width = 684;
}
);
unicode = 1D5B;
userData = {
com.adobe.type.autohint = "ICA8aGludFNldExpc3Q+CiAgICA8aGludHNldCBw";
};
},
{
glyphname = w.sups;
lastChange = "2015-01-16 19:50:31 +0000";
layers = (
{
hints = (
{
horizontal = 1;
origin = "{0, 0}";
target = "{0, 0}";
type = Tag;
name = hr00;
}
);
layerId = "C4389747-BECF-4D47-A11A-92B8AD605B66";
name = Bold;
paths = (
{
closed = 1;
nodes = (
"195 1197 LINE",
"33 1197 LINE",
"210 532 LINE",
"396 532 LINE",
"473 839 LINE",
"512 1025 LINE",
"516 1025 LINE",
"555 839 LINE",
"632 532 LINE",
"821 532 LINE",
"993 1197 LINE",
"844 1197 LINE",
"767 855 LINE",
"728 661 LINE",
"720 661 LINE",
"677 855 LINE",
"583 1197 LINE",
"447 1197 LINE",
"358 855 LINE",
"316 661 LINE",
"309 661 LINE",
"273 855 LINE"
);
}
);
width = 1025;
}
);
unicode = 02B7;
userData = {
com.adobe.type.autohint = "ICA8aGludFNldExpc3Q+CiAgICA8aGludHNldCBw";
};
},
{
glyphname = x.sups;
lastChange = "2015-01-16 19:50:31 +0000";
layers = (
{
hints = (
{
horizontal = 1;
origin = "{0, 0}";
target = "{0, 0}";
type = Tag;
name = hr00;
}
);
layerId = "C4389747-BECF-4D47-A11A-92B8AD605B66";
name = Bold;
paths = (
{
closed = 1;
nodes = (
"33 1197 LINE",
"235 879 LINE",
"16 532 LINE",
"185 532 LINE",
"255 660 LINE",
"316 769 LINE",
"324 769 LINE",
"394 660 LINE",
"471 532 LINE",
"643 532 LINE",
"430 862 LINE",
"630 1197 LINE",
"463 1197 LINE",
"398 1074 LINE",
"349 968 LINE",
"341 968 LINE",
"279 1074 LINE",
"206 1197 LINE"
);
}
);
width = 661;
}
);
unicode = 02E3;
userData = {
com.adobe.type.autohint = "ICA8aGludFNldExpc3Q+CiAgICA8aGludHNldCBw";
};
},
{
glyphname = y.sups;
lastChange = "2015-01-16 19:50:31 +0000";
layers = (
{
hints = (
{
horizontal = 1;
origin = "{0, 0}";
target = "{0, 0}";
type = Tag;
name = hr00;
}
);
layerId = "C4389747-BECF-4D47-A11A-92B8AD605B66";
name = Bold;
paths = (
{
closed = 1;
nodes = (
"136 392 CURVE SMOOTH",
"120 392 OFFCURVE",
"107 394 OFFCURVE",
"87 403 CURVE",
"57 278 LINE",
"84 270 OFFCURVE",
"111 266 OFFCURVE",
"147 266 CURVE SMOOTH",
"296 266 OFFCURVE",
"369 358 OFFCURVE",
"425 510 CURVE",
"664 1197 LINE",
"509 1197 LINE",
"414 876 LINE SMOOTH",
"395 813 OFFCURVE",
"376 752 OFFCURVE",
"359 686 CURVE",
"351 686 LINE",
"331 753 OFFCURVE",
"313 813 OFFCURVE",
"292 876 CURVE",
"177 1197 LINE",
"16 1197 LINE",
"283 544 LINE",
"270 507 LINE",
"249 441 OFFCURVE",
"205 392 OFFCURVE"
);
}
);
width = 680;
}
);
unicode = 02B8;
userData = {
com.adobe.type.autohint = "ICA8aGludFNldExpc3Q+CiAgICA8aGludHNldCBw";
};
},
{
glyphname = z.sups;
lastChange = "2015-01-16 19:50:31 +0000";
layers = (
{
hints = (
{
horizontal = 1;
origin = "{0, 0}";
target = "{0, 0}";
type = Tag;
name = hr00;
}
);
layerId = "C4389747-BECF-4D47-A11A-92B8AD605B66";
name = Bold;
paths = (
{
closed = 1;
nodes = (
"366 1072 LINE",
"46 619 LINE",
"46 532 LINE",
"575 532 LINE",
"575 658 LINE",
"247 658 LINE",
"566 1109 LINE",
"566 1197 LINE",
"85 1197 LINE",
"85 1072 LINE"
);
}
);
width = 611;
}
);
unicode = 1DBB;
userData = {
com.adobe.type.autohint = "ICA8aGludFNldExpc3Q+CiAgICA8aGludHNldCBw";
};
},
{
glyphname = f_f;
lastChange = "2015-01-16 19:50:31 +0000";
layers = (
{
hints = (
{
horizontal = 1;
origin = "{0, 0}";
target = "{0, 0}";
type = Tag;
name = hr01;
},
{
horizontal = 1;
origin = "{0, 13}";
target = "{0, 0}";
type = Tag;
name = hr02;
},
{
horizontal = 1;
origin = "{0, 26}";
target = "{0, 0}";
type = Tag;
name = hr03;
}
);
layerId = "C4389747-BECF-4D47-A11A-92B8AD605B66";
name = Bold;
paths = (
{
closed = 1;
nodes = (
"1259 1276 CURVE",
"1301 1440 LINE",
"1256 1457 OFFCURVE",
"1191 1474 OFFCURVE",
"1121 1474 CURVE SMOOTH",
"894 1474 OFFCURVE",
"798 1332 OFFCURVE",
"798 1125 CURVE SMOOTH",
"798 1003 LINE",
"411 1003 LINE",
"411 1103 LINE SMOOTH",
"411 1221 OFFCURVE",
"466 1278 OFFCURVE",
"553 1278 CURVE SMOOTH",
"604 1278 OFFCURVE",
"641 1270 OFFCURVE",
"680 1253 CURVE",
"723 1417 LINE",
"675 1438 OFFCURVE",
"603 1454 OFFCURVE",
"530 1454 CURVE SMOOTH",
"297 1454 OFFCURVE",
"192 1313 OFFCURVE",
"192 1105 CURVE SMOOTH",
"192 1002 LINE",
"56 992 LINE",
"56 828 LINE",
"192 828 LINE",
"192 0 LINE",
"411 0 LINE",
"411 828 LINE",
"798 828 LINE",
"798 0 LINE",
"1017 0 LINE",
"1017 828 LINE",
"1217 828 LINE",
"1217 1003 LINE",
"1017 1003 LINE",
"1017 1128 LINE SMOOTH",
"1017 1246 OFFCURVE",
"1063 1299 OFFCURVE",
"1149 1299 CURVE SMOOTH",
"1183 1299 OFFCURVE",
"1221 1290 OFFCURVE"
);
}
);
width = 1240;
}
);
unicode = FB00;
userData = {
com.adobe.type.autohint = "ICA8aGludFNldExpc3Q+CiAgICA8aGludHNldCBw";
};
},
{
glyphname = f_t;
lastChange = "2015-01-16 19:50:31 +0000";
layers = (
{
hints = (
{
horizontal = 1;
origin = "{0, 0}";
target = "{0, 0}";
type = Tag;
name = hr01;
},
{
horizontal = 1;
origin = "{0, 30}";
target = "{0, 0}";
type = Tag;
name = hr02;
},
{
horizontal = 1;
origin = "{0, 32}";
target = "{0, 0}";
type = Tag;
name = hr03;
},
{
horizontal = 1;
origin = "{0, 41}";
target = "{0, 0}";
type = Tag;
name = hr04;
}
);
layerId = "C4389747-BECF-4D47-A11A-92B8AD605B66";
name = Bold;
paths = (
{
closed = 1;
nodes = (
"1260 12 CURVE",
"1222 174 LINE",
"1191 163 OFFCURVE",
"1150 150 OFFCURVE",
"1115 150 CURVE SMOOTH",
"1014 150 OFFCURVE",
"970 211 OFFCURVE",
"970 331 CURVE SMOOTH",
"970 828 LINE",
"1229 828 LINE",
"1229 1003 LINE",
"970 1003 LINE",
"970 1279 LINE",
"788 1279 LINE",
"762 1003 LINE",
"411 1003 LINE",
"411 1124 LINE SMOOTH",
"411 1243 OFFCURVE",
"455 1299 OFFCURVE",
"541 1299 CURVE SMOOTH",
"577 1299 OFFCURVE",
"615 1290 OFFCURVE",
"651 1276 CURVE",
"695 1440 LINE",
"650 1457 OFFCURVE",
"585 1474 OFFCURVE",
"514 1474 CURVE SMOOTH",
"287 1474 OFFCURVE",
"192 1329 OFFCURVE",
"192 1121 CURVE SMOOTH",
"192 1002 LINE",
"56 992 LINE",
"56 828 LINE",
"192 828 LINE",
"192 0 LINE",
"411 0 LINE",
"411 828 LINE",
"751 828 LINE",
"751 331 LINE SMOOTH",
"751 119 OFFCURVE",
"833 -25 OFFCURVE",
"1061 -25 CURVE SMOOTH",
"1136 -25 OFFCURVE",
"1206 -5 OFFCURVE"
);
}
);
width = 1290;
}
);
userData = {
com.adobe.type.autohint = "ICA8aGludFNldExpc3Q+CiAgICA8aGludHNldCBw";
};
},
{
glyphname = fi;
lastChange = "2015-01-16 19:50:31 +0000";
layers = (
{
hints = (
{
horizontal = 1;
origin = "{0, 0}";
target = "{0, 0}";
type = Tag;
name = hr01;
},
{
horizontal = 1;
origin = "{0, 1}";
target = "{0, 0}";
type = Tag;
name = hr02;
},
{
horizontal = 1;
origin = "{0, 3}";
target = "{0, 0}";
type = Tag;
name = hr03;
},
{
horizontal = 1;
origin = "{1, 0}";
target = "{0, 0}";
type = Tag;
name = hr04;
},
{
horizontal = 1;
origin = "{2, 0}";
target = "{0, 0}";
type = Tag;
name = hr05;
}
);
layerId = "C4389747-BECF-4D47-A11A-92B8AD605B66";
name = Bold;
paths = (
{
closed = 1;
nodes = (
"192 1121 CURVE",
"192 1002 LINE",
"56 992 LINE",
"56 828 LINE",
"192 828 LINE",
"192 0 LINE",
"411 0 LINE",
"411 828 LINE",
"610 828 LINE",
"610 1003 LINE",
"411 1003 LINE",
"411 1124 LINE SMOOTH",
"411 1243 OFFCURVE",
"455 1299 OFFCURVE",
"541 1299 CURVE SMOOTH",
"577 1299 OFFCURVE",
"615 1290 OFFCURVE",
"651 1276 CURVE",
"695 1440 LINE",
"650 1457 OFFCURVE",
"585 1474 OFFCURVE",
"514 1474 CURVE SMOOTH",
"287 1474 OFFCURVE",
"192 1329 OFFCURVE"
);
},
{
closed = 1;
nodes = (
"1076 1314 CURVE SMOOTH",
"1076 1390 OFFCURVE",
"1017 1441 OFFCURVE",
"938 1441 CURVE SMOOTH",
"859 1441 OFFCURVE",
"799 1390 OFFCURVE",
"799 1314 CURVE SMOOTH",
"799 1240 OFFCURVE",
"859 1187 OFFCURVE",
"938 1187 CURVE SMOOTH",
"1017 1187 OFFCURVE",
"1076 1240 OFFCURVE"
);
},
{
closed = 1;
nodes = (
"1047 1003 LINE",
"828 1003 LINE",
"828 0 LINE",
"1047 0 LINE"
);
}
);
width = 1200;
}
);
unicode = FB01;
userData = {
com.adobe.type.autohint = "ICA8aGludFNldExpc3Q+CiAgICA8aGludHNldCBw";
};
},
{
glyphname = fl;
lastChange = "2015-01-16 19:50:31 +0000";
layers = (
{
hints = (
{
horizontal = 1;
origin = "{0, 0}";
target = "{0, 0}";
type = Tag;
name = hr01;
},
{
horizontal = 1;
origin = "{0, 1}";
target = "{0, 0}";
type = Tag;
name = hr02;
},
{
horizontal = 1;
origin = "{0, 3}";
target = "{0, 0}";
type = Tag;
name = hr03;
},
{
horizontal = 1;
origin = "{1, 0}";
target = "{0, 0}";
type = Tag;
name = hr04;
},
{
horizontal = 1;
origin = "{1, 1}";
target = "{0, 0}";
type = Tag;
name = hr05;
}
);
layerId = "C4389747-BECF-4D47-A11A-92B8AD605B66";
name = Bold;
paths = (
{
closed = 1;
nodes = (
"192 1121 CURVE",
"192 1002 LINE",
"56 992 LINE",
"56 828 LINE",
"192 828 LINE",
"192 0 LINE",
"411 0 LINE",
"411 828 LINE",
"610 828 LINE",
"610 1003 LINE",
"411 1003 LINE",
"411 1124 LINE SMOOTH",
"411 1243 OFFCURVE",
"455 1299 OFFCURVE",
"541 1299 CURVE SMOOTH",
"577 1299 OFFCURVE",
"615 1290 OFFCURVE",
"651 1276 CURVE",
"695 1440 LINE",
"650 1457 OFFCURVE",
"585 1474 OFFCURVE",
"514 1474 CURVE SMOOTH",
"287 1474 OFFCURVE",
"192 1329 OFFCURVE"
);
},
{
closed = 1;
nodes = (
"1124 -5 CURVE",
"1096 159 LINE",
"1078 155 OFFCURVE",
"1070 155 OFFCURVE",
"1059 155 CURVE SMOOTH",
"1034 155 OFFCURVE",
"1010 175 OFFCURVE",
"1010 232 CURVE SMOOTH",
"1010 1450 LINE",
"791 1450 LINE",
"791 245 LINE SMOOTH",
"791 76 OFFCURVE",
"849 -25 OFFCURVE",
"1007 -25 CURVE SMOOTH",
"1059 -25 OFFCURVE",
"1097 -16 OFFCURVE"
);
}
);
width = 1183;
}
);
unicode = FB02;
userData = {
com.adobe.type.autohint = "ICA8aGludFNldExpc3Q+CiAgICA8aGludHNldCBw";
};
},
{
color = 9;
glyphname = "r_ra-deva";
lastChange = "2015-01-07 12:49:38 +0000";
layers = (
{
layerId = "C4389747-BECF-4D47-A11A-92B8AD605B66";
name = Bold;
paths = (
{
closed = 1;
nodes = (
"-19 1287 LINE",
"-19 1104 LINE",
"616 1104 LINE",
"616 1287 LINE"
);
},
{
closed = 1;
nodes = (
"752 632 LINE",
"688 572 OFFCURVE",
"630 513 OFFCURVE",
"488 513 CURVE SMOOTH",
"340 513 OFFCURVE",
"242 584 OFFCURVE",
"179 636 CURVE",
"84 523 LINE",
"182 411 OFFCURVE",
"327 327 OFFCURVE",
"498 327 CURVE SMOOTH",
"637 327 OFFCURVE",
"752 381 OFFCURVE",
"845 467 CURVE"
);
}
);
width = 600;
}
);
},
{
glyphname = ordfeminine;
lastChange = "2015-01-16 19:51:49 +0000";
layers = (
{
hints = (
{
horizontal = 1;
origin = "{0, 0}";
target = "{0, 0}";
type = Tag;
name = hr00;
}
);
layerId = "C4389747-BECF-4D47-A11A-92B8AD605B66";
name = Bold;
paths = (
{
closed = 1;
nodes = (
"70 714 CURVE SMOOTH",
"70 599 OFFCURVE",
"151 516 OFFCURVE",
"274 516 CURVE SMOOTH",
"355 516 OFFCURVE",
"422 556 OFFCURVE",
"474 605 CURVE",
"483 605 LINE",
"499 532 LINE",
"627 532 LINE",
"627 929 LINE SMOOTH",
"627 1114 OFFCURVE",
"544 1214 OFFCURVE",
"377 1214 CURVE SMOOTH",
"270 1214 OFFCURVE",
"171 1172 OFFCURVE",
"94 1126 CURVE",
"153 1018 LINE",
"212 1053 OFFCURVE",
"286 1085 OFFCURVE",
"351 1085 CURVE SMOOTH",
"436 1085 OFFCURVE",
"464 1034 OFFCURVE",
"467 958 CURVE",
"191 931 OFFCURVE",
"70 857 OFFCURVE"
);
},
{
closed = 1;
nodes = (
"467 861 CURVE",
"467 711 LINE",
"418 664 OFFCURVE",
"374 641 OFFCURVE",
"324 641 CURVE SMOOTH",
"263 641 OFFCURVE",
"224 668 OFFCURVE",
"224 726 CURVE SMOOTH",
"224 792 OFFCURVE",
"285 841 OFFCURVE"
);
}
);
width = 718;
}
);
unicode = 00AA;
userData = {
com.adobe.type.autohint = "ICA8aGludFNldExpc3Q+CiAgICA8aGludHNldCBw";
};
},
{
glyphname = ordmasculine;
lastChange = "2015-01-16 19:51:49 +0000";
layers = (
{
hints = (
{
horizontal = 1;
origin = "{0, 0}";
target = "{0, 0}";
type = Tag;
name = hr00;
}
);
layerId = "C4389747-BECF-4D47-A11A-92B8AD605B66";
name = Bold;
paths = (
{
closed = 1;
nodes = (
"56 864 CURVE SMOOTH",
"56 646 OFFCURVE",
"205 516 OFFCURVE",
"376 516 CURVE SMOOTH",
"546 516 OFFCURVE",
"695 646 OFFCURVE",
"695 864 CURVE SMOOTH",
"695 1085 OFFCURVE",
"546 1214 OFFCURVE",
"376 1214 CURVE SMOOTH",
"205 1214 OFFCURVE",
"56 1085 OFFCURVE"
);
},
{
closed = 1;
nodes = (
"532 864 CURVE SMOOTH",
"532 734 OFFCURVE",
"476 645 OFFCURVE",
"376 645 CURVE SMOOTH",
"276 645 OFFCURVE",
"219 734 OFFCURVE",
"219 864 CURVE SMOOTH",
"219 998 OFFCURVE",
"276 1085 OFFCURVE",
"376 1085 CURVE SMOOTH",
"476 1085 OFFCURVE",
"532 998 OFFCURVE"
);
}
);
width = 754;
}
);
unicode = 00BA;
userData = {
com.adobe.type.autohint = "ICA8aGludFNldExpc3Q+CiAgICA8aGludHNldCBw";
};
},
{
glyphname = pi;
lastChange = "2015-01-16 19:50:31 +0000";
layers = (
{
hints = (
{
horizontal = 1;
origin = "{0, 0}";
target = "{0, 0}";
type = Tag;
name = hr01;
},
{
horizontal = 1;
origin = "{0, 9}";
target = "{0, 0}";
type = Tag;
name = hr02;
},
{
horizontal = 1;
origin = "{0, 13}";
target = "{0, 0}";
type = Tag;
name = hr03;
}
);
layerId = "C4389747-BECF-4D47-A11A-92B8AD605B66";
name = Bold;
paths = (
{
closed = 1;
nodes = (
"44 826 LINE",
"220 826 LINE",
"220 0 LINE",
"436 0 LINE",
"437 826 LINE",
"758 826 LINE",
"758 266 LINE SMOOTH",
"758 90 OFFCURVE",
"818 -25 OFFCURVE",
"989 -25 CURVE SMOOTH",
"1043 -25 OFFCURVE",
"1084 -16 OFFCURVE",
"1117 -2 CURVE",
"1090 162 LINE",
"1071 157 OFFCURVE",
"1058 155 OFFCURVE",
"1044 155 CURVE SMOOTH",
"1004 155 OFFCURVE",
"978 188 OFFCURVE",
"978 254 CURVE SMOOTH",
"978 826 LINE",
"1124 826 LINE",
"1124 1003 LINE",
"189 1003 LINE",
"44 992 LINE"
);
}
);
width = 1184;
}
);
unicode = 03C0;
userData = {
com.adobe.type.autohint = "ICA8aGludFNldExpc3Q+CiAgICA8aGludHNldCBw";
};
},
{
glyphname = "a-deva";
lastChange = "2014-12-12 09:48:33 +0000";
layers = (
{
anchors = (
{
name = bottom;
position = "{1117, 27}";
},
{
name = top;
position = "{1118, 1167}";
},
{
name = topcandra;
position = "{1118, 1167}";
}
);
layerId = "C4389747-BECF-4D47-A11A-92B8AD605B66";
name = Bold;
paths = (
{
closed = 1;
nodes = (
"278 740 LINE",
"498 674 OFFCURVE",
"570 611 OFFCURVE",
"570 479 CURVE SMOOTH",
"570 381 OFFCURVE",
"503 316 OFFCURVE",
"391 316 CURVE SMOOTH",
"309 316 OFFCURVE",
"214 343 OFFCURVE",
"96 436 CURVE",
"-3 303 LINE",
"134 180 OFFCURVE",
"262 128 OFFCURVE",
"407 128 CURVE SMOOTH",
"614 128 OFFCURVE",
"780 259 OFFCURVE",
"780 457 CURVE SMOOTH",
"780 657 OFFCURVE",
"633 767 OFFCURVE",
"393 777 CURVE"
);
},
{
closed = 1;
nodes = (
"289 1306 OFFCURVE",
"200 1280 OFFCURVE",
"99 1239 CURVE",
"158 1074 LINE",
"261 1114 OFFCURVE",
"331 1128 OFFCURVE",
"390 1128 CURVE SMOOTH",
"482 1128 OFFCURVE",
"536 1090 OFFCURVE",
"536 1004 CURVE SMOOTH",
"536 905 OFFCURVE",
"480 840 OFFCURVE",
"304 819 CURVE SMOOTH",
"279 815 OFFCURVE",
"265 813 OFFCURVE",
"235 811 CURVE",
"248 638 LINE",
"324 635 OFFCURVE",
"445 642 OFFCURVE",
"550 711 CURVE SMOOTH",
"663 781 OFFCURVE",
"728 865 OFFCURVE",
"728 1018 CURVE SMOOTH",
"728 1200 OFFCURVE",
"598 1306 OFFCURVE",
"399 1306 CURVE SMOOTH"
);
},
{
closed = 1;
nodes = (
"929 684 OFFCURVE",
"793 670 OFFCURVE",
"622 688 CURVE",
"705 526 LINE",
"817 502 OFFCURVE",
"1006 529 OFFCURVE",
"1113 613 CURVE",
"1112 822 LINE"
);
},
{
closed = 1;
nodes = (
"1011 1216 LINE",
"1011 1 LINE",
"1223 1 LINE",
"1223 1216 LINE"
);
},
{
closed = 1;
nodes = (
"851 1287 LINE",
"851 1104 LINE",
"1417 1104 LINE",
"1417 1287 LINE"
);
}
);
width = 1398;
}
);
unicode = 0905;
},
{
glyphname = "i-deva";
lastChange = "2014-12-12 09:48:33 +0000";
layers = (
{
anchors = (
{
name = bottom;
position = "{885, -95}";
},
{
name = top;
position = "{761, 1167}";
},
{
name = topcandra;
position = "{582, 1167}";
}
);
layerId = "C4389747-BECF-4D47-A11A-92B8AD605B66";
name = Bold;
paths = (
{
closed = 1;
nodes = (
"-19 1287 LINE",
"-19 1104 LINE",
"1079 1104 LINE",
"1079 1287 LINE"
);
},
{
closed = 1;
nodes = (
"656 1211 LINE",
"656 745 LINE",
"863 745 LINE",
"863 1211 LINE"
);
},
{
closed = 1;
nodes = (
"402 932 LINE SMOOTH",
"180 930 OFFCURVE",
"102 846 OFFCURVE",
"102 702 CURVE SMOOTH",
"102 572 OFFCURVE",
"163 421 OFFCURVE",
"234 366 CURVE SMOOTH",
"270 339 OFFCURVE",
"292 339 OFFCURVE",
"322 342 CURVE SMOOTH",
"386 349 OFFCURVE",
"576 369 OFFCURVE",
"661 369 CURVE SMOOTH",
"775 369 OFFCURVE",
"801 334 OFFCURVE",
"800 272 CURVE SMOOTH",
"800 196 OFFCURVE",
"757 120 OFFCURVE",
"552 120 CURVE SMOOTH",
"475 120 OFFCURVE",
"389 129 OFFCURVE",
"259 184 CURVE",
"380 83 LINE",
"276 279 LINE",
"101 251 LINE",
"96 221 OFFCURVE",
"93 185 OFFCURVE",
"93 164 CURVE SMOOTH",
"93 24 OFFCURVE",
"213 -21 OFFCURVE",
"345 -57 CURVE",
"358 -25 LINE",
"426 -51 OFFCURVE",
"491 -64 OFFCURVE",
"564 -64 CURVE",
"826 -64 OFFCURVE",
"995 60 OFFCURVE",
"995 295 CURVE SMOOTH",
"995 524 OFFCURVE",
"837 559 OFFCURVE",
"672 559 CURVE SMOOTH",
"547 559 OFFCURVE",
"356 538 OFFCURVE",
"295 525 CURVE",
"318 518 LINE",
"306 542 OFFCURVE",
"289 592 OFFCURVE",
"289 645 CURVE SMOOTH",
"289 718 OFFCURVE",
"320 745 OFFCURVE",
"439 745 CURVE SMOOTH",
"786 745 LINE",
"762 932 LINE"
);
},
{
closed = 1;
nodes = (
"216 117 LINE",
"463 -362 LINE",
"632 -268 LINE",
"341 126 LINE"
);
}
);
width = 1060;
}
);
unicode = 0907;
},
{
glyphname = "u-deva";
lastChange = "2014-12-12 09:48:33 +0000";
layers = (
{
anchors = (
{
name = bottom;
position = "{466, 69}";
},
{
name = top;
position = "{478, 1167}";
},
{
name = topcandra;
position = "{480, 1167}";
}
);
layerId = "C4389747-BECF-4D47-A11A-92B8AD605B66";
name = Bold;
paths = (
{
closed = 1;
nodes = (
"292 655 LINE",
"504 595 OFFCURVE",
"606 527 OFFCURVE",
"606 375 CURVE SMOOTH",
"606 271 OFFCURVE",
"536 193 OFFCURVE",
"410 193 CURVE SMOOTH",
"298 193 OFFCURVE",
"196 239 OFFCURVE",
"108 308 CURVE",
"15 179 LINE",
"115 73 OFFCURVE",
"263 8 OFFCURVE",
"423 8 CURVE SMOOTH",
"644 8 OFFCURVE",
"816 145 OFFCURVE",
"816 363 CURVE SMOOTH",
"816 567 OFFCURVE",
"662 676 OFFCURVE",
"408 696 CURVE"
);
},
{
closed = 1;
nodes = (
"398 1114 LINE",
"471 1114 OFFCURVE",
"566 1065 OFFCURVE",
"566 950 CURVE SMOOTH",
"566 846 OFFCURVE",
"503 768 OFFCURVE",
"316 745 CURVE SMOOTH",
"295 742 OFFCURVE",
"281 740 OFFCURVE",
"249 738 CURVE",
"271 566 LINE",
"360 565 OFFCURVE",
"477 577 OFFCURVE",
"577 643 CURVE SMOOTH",
"696 718 OFFCURVE",
"765 807 OFFCURVE",
"765 955 CURVE SMOOTH",
"765 1171 OFFCURVE",
"522 1216 OFFCURVE",
"392 1203 CURVE"
);
},
{
closed = 1;
nodes = (
"896 1287 LINE",
"-19 1287 LINE",
"-19 1104 LINE",
"896 1104 LINE"
);
}
);
width = 877;
}
);
unicode = 0909;
},
{
glyphname = "uu-deva";
lastChange = "2014-12-12 09:48:33 +0000";
layers = (
{
anchors = (
{
name = bottom;
position = "{761, 27}";
},
{
name = top;
position = "{564, 1167}";
},
{
name = topcandra;
position = "{754, 1167}";
}
);
components = (
{
name = "u-deva";
transform = "{1, 0, 0, 1, 0, 0}";
}
);
layerId = "C4389747-BECF-4D47-A11A-92B8AD605B66";
name = Bold;
paths = (
{
closed = 1;
nodes = (
"530 1287 LINE",
"530 1104 LINE",
"1384 1104 LINE",
"1384 1287 LINE"
);
},
{
closed = 1;
nodes = (
"905 719 OFFCURVE",
"808 671 OFFCURVE",
"713 543 CURVE",
"735 235 LINE",
"861 493 OFFCURVE",
"939 540 OFFCURVE",
"1011 540 CURVE SMOOTH",
"1088 540 OFFCURVE",
"1123 498 OFFCURVE",
"1123 414 CURVE SMOOTH",
"1123 314 OFFCURVE",
"1069 230 OFFCURVE",
"992 136 CURVE",
"1131 20 LINE",
"1248 125 OFFCURVE",
"1312 264 OFFCURVE",
"1312 400 CURVE SMOOTH",
"1312 625 OFFCURVE",
"1168 719 OFFCURVE",
"1027 719 CURVE SMOOTH"
);
}
);
width = 1365;
}
);
unicode = 090A;
},
{
color = 7;
glyphname = "rVocalic-deva";
lastChange = "2015-01-07 12:49:38 +0000";
layers = (
{
anchors = (
{
name = bottom;
position = "{761, 27}";
},
{
name = top;
position = "{761, 1167}";
},
{
name = topcandra;
position = "{761, 1167}";
}
);
layerId = "C4389747-BECF-4D47-A11A-92B8AD605B66";
name = Bold;
paths = (
{
closed = 1;
nodes = (
"726 467 LINE",
"730.091 595 LINE",
"489 912 OFFCURVE",
"384 937 OFFCURVE",
"273 938 CURVE SMOOTH",
"175 939 OFFCURVE",
"101 902 OFFCURVE",
"36 861 CURVE",
"118 681 LINE",
"200 722 OFFCURVE",
"254 741 OFFCURVE",
"303 741 CURVE SMOOTH",
"383 740 OFFCURVE",
"455 683 OFFCURVE",
"607 523 CURVE",
"608 587 LINE",
"104 217.909 LINE",
"230 67 LINE"
);
},
{
closed = 1;
nodes = (
"866 0 LINE",
"866 1151 LINE",
"656 1151 LINE",
"656 0 LINE"
);
},
{
closed = 1;
nodes = (
"1319 100 OFFCURVE",
"1399 221 OFFCURVE",
"1399 367 CURVE SMOOTH",
"1399 518 OFFCURVE",
"1297 664 OFFCURVE",
"1130 832 CURVE",
"1053 749 LINE",
"1130 619 OFFCURVE",
"1199 504.909 OFFCURVE",
"1199 396 CURVE SMOOTH",
"1199 298 OFFCURVE",
"1149 239 OFFCURVE",
"1035 179 CURVE",
"1143 25 LINE"
);
},
{
closed = 1;
nodes = (
"1011 508.091 OFFCURVE",
"1112 603 OFFCURVE",
"1209 669 CURVE SMOOTH",
"1275 735 OFFCURVE",
"1289 790 OFFCURVE",
"1289 825 CURVE SMOOTH",
"1289 902 OFFCURVE",
"1203 955 OFFCURVE",
"1075 983 CURVE",
"970 889 LINE",
"1076 706 LINE",
"1080 806 LINE",
"997 721 OFFCURVE",
"875 669 OFFCURVE",
"725 710 CURVE",
"804 519 LINE"
);
},
{
closed = 1;
nodes = (
"1529 1104 LINE",
"1529 1287 LINE",
"-19 1287 LINE",
"-19 1104 LINE"
);
}
);
width = 1520;
}
);
unicode = 090B;
},
{
color = 7;
glyphname = "rrVocalic-deva";
lastChange = "2015-01-07 12:49:38 +0000";
layers = (
{
anchors = (
{
name = bottom;
position = "{761, 27}";
},
{
name = top;
position = "{761, 1167}";
},
{
name = topcandra;
position = "{760, 1167}";
}
);
layerId = "C4389747-BECF-4D47-A11A-92B8AD605B66";
name = Bold;
paths = (
{
closed = 1;
nodes = (
"727 469 LINE",
"731 596 LINE",
"489 913 OFFCURVE",
"385 938 OFFCURVE",
"274 939 CURVE SMOOTH",
"176 939 OFFCURVE",
"102 902 OFFCURVE",
"37 861 CURVE",
"119 681 LINE",
"200 722 OFFCURVE",
"254 742 OFFCURVE",
"304 741 CURVE SMOOTH",
"384 741 OFFCURVE",
"456 684 OFFCURVE",
"608 525 CURVE",
"608 588 LINE",
"105 219 LINE",
"231.091 68.091 LINE"
);
},
{
closed = 1;
nodes = (
"1475 -308 OFFCURVE",
"1577 -274 OFFCURVE",
"1656 -216 CURVE",
"1589 -76 LINE",
"1523 -117 OFFCURVE",
"1448 -146 OFFCURVE",
"1384 -148 CURVE SMOOTH",
"1311.91 -150 OFFCURVE",
"1281 -122 OFFCURVE",
"1281 -68 CURVE SMOOTH",
"1281 -9 OFFCURVE",
"1333 31 OFFCURVE",
"1473 47 CURVE",
"1451 199 LINE",
"1181 185 OFFCURVE",
"1090 47 OFFCURVE",
"1090 -71 CURVE SMOOTH",
"1090 -212 OFFCURVE",
"1202 -315 OFFCURVE",
"1370 -311 CURVE SMOOTH"
);
},
{
closed = 1;
nodes = (
"867 0 LINE",
"867 1148 LINE",
"657 1148 LINE",
"657 0 LINE"
);
},
{
closed = 1;
nodes = (
"1397 153 LINE",
"1242 179 OFFCURVE",
"1209 239 OFFCURVE",
"1209 291 CURVE SMOOTH",
"1209 367 OFFCURVE",
"1305 388 OFFCURVE",
"1409 402.091 CURVE",
"1422 514 LINE",
"1216 851 LINE",
"1077 781 LINE",
"1245.09 490.909 LINE",
"1251 538 LINE",
"1139 509 OFFCURVE",
"1009 446 OFFCURVE",
"1009 321.909 CURVE SMOOTH",
"1009 244 OFFCURVE",
"1030 126 OFFCURVE",
"1298 76 CURVE"
);
},
{
closed = 1;
nodes = (
"985 512 OFFCURVE",
"1123 598 OFFCURVE",
"1216 665 CURVE SMOOTH",
"1308 743 OFFCURVE",
"1314 792 OFFCURVE",
"1314 826 CURVE SMOOTH",
"1314 904 OFFCURVE",
"1228 957 OFFCURVE",
"1100 984 CURVE",
"994 891 LINE",
"1076 752 LINE",
"1087.09 812 LINE",
"1013 734 OFFCURVE",
"878 667 OFFCURVE",
"727 708 CURVE",
"806 523 LINE"
);
},
{
closed = 1;
nodes = (
"1534 1104 LINE",
"1534 1287 LINE",
"-19 1287 LINE",
"-19 1104 LINE"
);
}
);
width = 1514;
}
);
unicode = 0960;
},
{
color = 7;
glyphname = "lVocalic-deva";
lastChange = "2015-01-07 12:49:38 +0000";
layers = (
{
anchors = (
{
name = bottom;
position = "{745, -80}";
},
{
name = top;
position = "{943, 1167}";
},
{
name = topcandra;
position = "{642, 1167}";
}
);
layerId = "C4389747-BECF-4D47-A11A-92B8AD605B66";
name = Bold;
paths = (
{
closed = 1;
nodes = (
"648 943 OFFCURVE",
"539 775 OFFCURVE",
"539 574 CURVE SMOOTH",
"539 529 OFFCURVE",
"544 485 OFFCURVE",
"559 446 CURVE",
"740 465 LINE",
"735 497 OFFCURVE",
"732 527 OFFCURVE",
"732 557 CURVE SMOOTH",
"732 668 OFFCURVE",
"781 751 OFFCURVE",
"880 751 CURVE SMOOTH",
"965 751 OFFCURVE",
"1003 667 OFFCURVE",
"1003 563 CURVE SMOOTH",
"1003 476 OFFCURVE",
"991 404 OFFCURVE",
"929 274 CURVE",
"968 329 LINE",
"794 256 OFFCURVE",
"727 153 OFFCURVE",
"727 49 CURVE",
"727 -86 OFFCURVE",
"839 -202 OFFCURVE",
"1004 -202 CURVE SMOOTH",
"1112 -202 OFFCURVE",
"1215.09 -164.909 OFFCURVE",
"1293 -107 CURVE",
"1226 33 LINE",
"1161 -8 OFFCURVE",
"1087.91 -39 OFFCURVE",
"1020 -39 CURVE SMOOTH",
"943.091 -39 OFFCURVE",
"916 2 OFFCURVE",
"916 47 CURVE SMOOTH",
"916 111 OFFCURVE",
"982 170 OFFCURVE",
"1112.09 218 CURVE",
"1169 333 OFFCURVE",
"1200 447 OFFCURVE",
"1199.91 557.909 CURVE SMOOTH",
"1200 792 OFFCURVE",
"1085 943 OFFCURVE",
"871 943 CURVE SMOOTH"
);
},
{
closed = 1;
nodes = (
"-19 1287 LINE",
"-19 1104 LINE",
"1273 1104 LINE",
"1273 1287 LINE"
);
},
{
closed = 1;
nodes = (
"838 1163 LINE",
"838 828 LINE",
"1048 828 LINE",
"1047.91 1163 LINE"
);
},
{
closed = 1;
nodes = (
"167 940 OFFCURVE",
"53.909 815.091 OFFCURVE",
"54 597 CURVE SMOOTH",
"54 334 OFFCURVE",
"214 132 OFFCURVE",
"308 24 CURVE",
"456 151 LINE",
"345 293 OFFCURVE",
"260 423 OFFCURVE",
"260 567 CURVE SMOOTH",
"260 707 OFFCURVE",
"328.909 745.909 OFFCURVE",
"390 746 CURVE SMOOTH",
"495 746 OFFCURVE",
"565.909 658.909 OFFCURVE",
"643.091 535.909 CURVE",
"662 671 LINE",
"590 860 OFFCURVE",
"487 940 OFFCURVE",
"340 940 CURVE SMOOTH"
);
}
);
width = 1254;
}
);
unicode = 090C;
},
{
color = 7;
glyphname = "llVocalic-deva";
lastChange = "2015-01-07 12:49:38 +0000";
layers = (
{
anchors = (
{
name = bottom;
position = "{705, 31}";
},
{
name = top;
position = "{942, 1167}";
},
{
name = topcandra;
position = "{641, 1167}";
}
);
layerId = "C4389747-BECF-4D47-A11A-92B8AD605B66";
name = Bold;
paths = (
{
closed = 1;
nodes = (
"967 174 OFFCURVE",
"876 36 OFFCURVE",
"876 -81 CURVE SMOOTH",
"876 -222 OFFCURVE",
"988 -325 OFFCURVE",
"1155 -321 CURVE SMOOTH",
"1261 -318 OFFCURVE",
"1363.09 -284.091 OFFCURVE",
"1442 -226 CURVE",
"1375 -86 LINE",
"1309 -126.909 OFFCURVE",
"1234 -156 OFFCURVE",
"1169 -158 CURVE SMOOTH",
"1096 -160 OFFCURVE",
"1067 -132 OFFCURVE",
"1067 -79 CURVE SMOOTH",
"1067 -20 OFFCURVE",
"1119 20 OFFCURVE",
"1259 36 CURVE",
"1237 188 LINE"
);
},
{
closed = 1;
nodes = (
"-19 1287 LINE",
"-19 1104 LINE",
"1281 1104 LINE",
"1281 1287 LINE"
);
},
{
closed = 1;
nodes = (
"837 1163 LINE",
"837 828 LINE",
"1047 828 LINE",
"1047 1163 LINE"
);
},
{
closed = 1;
nodes = (
"647 943 OFFCURVE",
"538 775 OFFCURVE",
"538 574 CURVE SMOOTH",
"538 529 OFFCURVE",
"543 485 OFFCURVE",
"558 446 CURVE",
"739 465 LINE",
"734 497 OFFCURVE",
"731 527 OFFCURVE",
"731 557 CURVE SMOOTH",
"731 668 OFFCURVE",
"780 751 OFFCURVE",
"879 751 CURVE SMOOTH",
"983.091 750.909 OFFCURVE",
"1020 667 OFFCURVE",
"1020 563 CURVE SMOOTH",
"1020 532 OFFCURVE",
"1018 507 OFFCURVE",
"1010 475 CURVE",
"1038 527 LINE",
"924 508 OFFCURVE",
"795 437 OFFCURVE",
"795 311 CURVE SMOOTH",
"795 233 OFFCURVE",
"817 115 OFFCURVE",
"1085 65 CURVE",
"1184 142 LINE",
"1030 168 OFFCURVE",
"995 228 OFFCURVE",
"995 280 CURVE SMOOTH",
"995 357 OFFCURVE",
"1085 375 OFFCURVE",
"1195 393 CURVE",
"1209 450 OFFCURVE",
"1216 506 OFFCURVE",
"1216 560 CURVE SMOOTH",
"1216 792 OFFCURVE",
"1099 943 OFFCURVE",
"870 943 CURVE SMOOTH"
);
},
{
closed = 1;
nodes = (
"167 940 OFFCURVE",
"53.909 815.091 OFFCURVE",
"54 597 CURVE SMOOTH",
"54 334 OFFCURVE",
"214 132 OFFCURVE",
"308 24 CURVE",
"456 151 LINE",
"345 293 OFFCURVE",
"260 423 OFFCURVE",
"260 567 CURVE SMOOTH",
"260 707 OFFCURVE",
"328.909 745.909 OFFCURVE",
"389 746 CURVE SMOOTH",
"494 746 OFFCURVE",
"565 658.909 OFFCURVE",
"642 536 CURVE",
"661 671 LINE",
"589 860 OFFCURVE",
"486 940 OFFCURVE",
"339 940 CURVE SMOOTH"
);
}
);
width = 1271;
}
);
unicode = 0961;
},
{
glyphname = "e-deva";
lastChange = "2015-01-07 12:49:38 +0000";
layers = (
{
anchors = (
{
name = bottom;
position = "{582, 54}";
},
{
name = top;
position = "{830, 1167}";
},
{
name = topcandra;
position = "{542, 1167}";
}
);
layerId = "C4389747-BECF-4D47-A11A-92B8AD605B66";
name = Bold;
paths = (
{
closed = 1;
nodes = (
"123 1142 LINE",
"123 717 LINE SMOOTH",
"123 537 OFFCURVE",
"169 476 OFFCURVE",
"289 364 CURVE SMOOTH",
"517 153 LINE",
"569 107 OFFCURVE",
"590 60 OFFCURVE",
"589 15 CURVE SMOOTH",
"588 -34 OFFCURVE",
"560 -67 OFFCURVE",
"523 -107 CURVE",
"658 -222 LINE",
"757 -146 OFFCURVE",
"798 -55 OFFCURVE",
"800 27.909 CURVE SMOOTH",
"802 114 OFFCURVE",
"761 200 OFFCURVE",
"674 278 CURVE SMOOTH",
"458 476 LINE SMOOTH",
"341 583 OFFCURVE",
"331 637 OFFCURVE",
"331 717 CURVE SMOOTH",
"331 1142 LINE"
);
},
{
closed = 1;
nodes = (
"731 1208 LINE",
"731 750 LINE SMOOTH",
"731 667 OFFCURVE",
"698 621 OFFCURVE",
"587 563 CURVE",
"704 402 LINE",
"881 495 OFFCURVE",
"942 609 OFFCURVE",
"942 760 CURVE SMOOTH",
"942 1208 LINE"
);
},
{
closed = 1;
nodes = (
"-20 1287 LINE",
"-20 1105 LINE",
"1077 1105 LINE",
"1077 1287 LINE"
);
}
);
width = 1059;
}
);
unicode = 090F;
},
{
color = 7;
glyphname = "oe-deva";
lastChange = "2015-01-07 12:49:38 +0000";
layers = (
{
components = (
{
name = "a-deva";
transform = "{1, 0, 0, 1, 0, 0}";
}
);
layerId = "C4389747-BECF-4D47-A11A-92B8AD605B66";
name = Bold;
paths = (
{
closed = 1;
nodes = (
"1014 1091 LINE",
"1224 1091 LINE",
"1224 1574 LINE",
"1014 1574 LINE"
);
}
);
width = 1399;
}
);
unicode = 0973;
},
{
color = 7;
glyphname = "ooe-deva";
lastChange = "2015-01-07 12:49:38 +0000";
layers = (
{
components = (
{
name = "aa-deva";
transform = "{1, 0, 0, 1, 0, 0}";
}
);
layerId = "C4389747-BECF-4D47-A11A-92B8AD605B66";
name = Bold;
paths = (
{
closed = 1;
nodes = (
"1575 1091 LINE",
"1785 1091 LINE",
"1785 1574 LINE",
"1575 1574 LINE"
);
}
);
width = 1962;
}
);
unicode = 0974;
},
{
color = 7;
glyphname = "aw-deva";
lastChange = "2015-01-07 12:49:38 +0000";
layers = (
{
components = (
{
name = "aa-deva";
transform = "{1, 0, 0, 1, 0, 0}";
}
);
layerId = "C4389747-BECF-4D47-A11A-92B8AD605B66";
name = Bold;
paths = (
{
closed = 1;
nodes = (
"978 1856 OFFCURVE",
"964 1820 OFFCURVE",
"964 1786 CURVE SMOOTH",
"964 1711 OFFCURVE",
"1031 1641 OFFCURVE",
"1159 1620 CURVE SMOOTH",
"1462 1574 LINE SMOOTH",
"1603 1551 OFFCURVE",
"1699 1526 OFFCURVE",
"1699 1383 CURVE SMOOTH",
"1699 1343 OFFCURVE",
"1697 1308 OFFCURVE",
"1667 1250 CURVE",
"1732 1197 LINE",
"1810 1298 OFFCURVE",
"1839 1386 OFFCURVE",
"1839 1469 CURVE SMOOTH",
"1839.09 1616 OFFCURVE",
"1731 1692 OFFCURVE",
"1552 1720 CURVE SMOOTH",
"1264 1765 LINE SMOOTH",
"1132 1786 OFFCURVE",
"1100 1803 OFFCURVE",
"1095 1848 CURVE SMOOTH",
"1094 1855 OFFCURVE",
"1094 1863 OFFCURVE",
"1094 1872 CURVE",
"1011 1888 LINE"
);
},
{
closed = 1;
nodes = (
"811 1686 OFFCURVE",
"800 1646 OFFCURVE",
"800 1608 CURVE SMOOTH",
"800 1503 OFFCURVE",
"879 1408 OFFCURVE",
"1059 1389 CURVE SMOOTH",
"1449 1347 LINE SMOOTH",
"1575 1332 OFFCURVE",
"1603 1302 OFFCURVE",
"1603 1233 CURVE SMOOTH",
"1603 1210 OFFCURVE",
"1599 1180 OFFCURVE",
"1596 1143 CURVE",
"1663 1119 LINE",
"1680.91 1172.09 OFFCURVE",
"1695 1228.09 OFFCURVE",
"1695 1273 CURVE SMOOTH",
"1695 1402 OFFCURVE",
"1643 1464 OFFCURVE",
"1443 1496 CURVE SMOOTH",
"1103 1549 LINE SMOOTH",
"957 1571 OFFCURVE",
"930 1615 OFFCURVE",
"927 1682 CURVE SMOOTH",
"926 1691 OFFCURVE",
"926 1700 OFFCURVE",
"926 1709 CURVE",
"833 1724 LINE"
);
}
);
width = 1959;
}
);
unicode = 0975;
},
{
glyphname = "ue-deva";
lastChange = "2014-12-12 09:48:33 +0000";
layers = (
{
components = (
{
name = "a-deva";
transform = "{1, 0, 0, 1, 0, 0}";
}
);
layerId = "C4389747-BECF-4D47-A11A-92B8AD605B66";
name = Bold;
paths = (
{
closed = 1;
nodes = (
"205 -29 LINE",
"255 -153 OFFCURVE",
"379 -274 OFFCURVE",
"572 -274 CURVE SMOOTH",
"744 -274 OFFCURVE",
"860 -185 OFFCURVE",
"934 -22 CURVE",
"799 53 LINE",
"757 -15 OFFCURVE",
"686 -92 OFFCURVE",
"558 -92 CURVE SMOOTH",
"428 -92 OFFCURVE",
"361 -28 OFFCURVE",
"317 48 CURVE"
);
}
);
width = 1399;
}
);
unicode = 0976;
},
{
glyphname = "uue-deva";
lastChange = "2014-12-12 09:48:33 +0000";
layers = (
{
components = (
{
name = "a-deva";
transform = "{1, 0, 0, 1, 0, 0}";
}
);
layerId = "C4389747-BECF-4D47-A11A-92B8AD605B66";
name = Bold;
paths = (
{
closed = 1;
nodes = (
"205 -29 LINE",
"255 -153 OFFCURVE",
"379 -274 OFFCURVE",
"572 -274 CURVE SMOOTH",
"744 -274 OFFCURVE",
"860 -185 OFFCURVE",
"934 -22 CURVE",
"799 53 LINE",
"757 -15 OFFCURVE",
"686 -92 OFFCURVE",
"558 -92 CURVE SMOOTH",
"428 -92 OFFCURVE",
"361 -28 OFFCURVE",
"317 48 CURVE"
);
},
{
closed = 1;
nodes = (
"221 -355 LINE",
"271 -478 OFFCURVE",
"395 -600 OFFCURVE",
"588 -600 CURVE SMOOTH",
"760 -600 OFFCURVE",
"876 -511 OFFCURVE",
"950 -348 CURVE",
"815 -273 LINE",
"773 -341 OFFCURVE",
"702 -417 OFFCURVE",
"574 -417 CURVE SMOOTH",
"444 -417 OFFCURVE",
"377 -353 OFFCURVE",
"333 -278 CURVE"
);
}
);
width = 1399;
}
);
unicode = 0977;
},
{
color = 7;
glyphname = "aaMatra-deva";
lastChange = "2015-01-07 12:49:38 +0000";
layers = (
{
anchors = (
{
name = bottom;
position = "{281, 27}";
},
{
name = top;
position = "{281, 1167}";
},
{
name = topcandra;
position = "{287, 1167}";
}
);
layerId = "C4389747-BECF-4D47-A11A-92B8AD605B66";
name = Bold;
paths = (
{
closed = 1;
nodes = (
"175 1208 LINE",
"175 0 LINE",
"385 0 LINE",
"385 1208 LINE"
);
},
{
closed = 1;
nodes = (
"-19 1287 LINE",
"-19 1104 LINE",
"580 1104 LINE",
"580 1287 LINE"
);
}
);
width = 561;
}
);
unicode = 093E;
},
{
glyphname = "iMatra-deva";
lastChange = "2015-01-16 09:14:57 +0000";
layers = (
{
anchors = (
{
name = imatra;
position = "{1479, 1407}";
},
{
name = top;
position = "{1271, 1461}";
},
{
name = topcandra;
position = "{1665, 1351}";
}
);
layerId = "C4389747-BECF-4D47-A11A-92B8AD605B66";
name = Bold;
paths = (
{
closed = 1;
nodes = (
"271 1808 OFFCURVE",
"68 1741 OFFCURVE",
"68 1524 CURVE SMOOTH",
"68 1403 OFFCURVE",
"130 1305 OFFCURVE",
"271 1197 CURVE",
"451 1204 LINE",
"311 1341 OFFCURVE",
"285 1398 OFFCURVE",
"285 1475 CURVE SMOOTH",
"285 1568 OFFCURVE",
"337 1614 OFFCURVE",
"516 1614 CURVE SMOOTH",
"850 1614 OFFCURVE",
"1130 1512 OFFCURVE",
"1442 1356 CURVE",
"1516 1477 LINE",
"1161 1695 OFFCURVE",
"821 1808 OFFCURVE",
"483 1808 CURVE SMOOTH"
);
},
{
closed = 1;
nodes = (
"175 1217 LINE",
"175 1 LINE",
"385 1 LINE",
"385 1217 LINE"
);
},
{
closed = 1;
nodes = (
"-19 1287 LINE",
"-19 1104 LINE",
"586 1104 LINE",
"586 1287 LINE"
);
}
);
width = 561;
}
);
unicode = 093F;
},
{
glyphname = "iiMatra-deva";
lastChange = "2014-12-17 12:08:02 +0000";
layers = (
{
anchors = (
{
name = iimatra;
position = "{-208, 1167}";
},
{
name = top;
position = "{426, 1167}";
},
{
name = topcandra;
position = "{586, 1219}";
}
);
layerId = "C4389747-BECF-4D47-A11A-92B8AD605B66";
name = Bold;
paths = (
{
closed = 1;
nodes = (
"365 1234 LINE",
"227 1610 OFFCURVE",
"38 1809 OFFCURVE",
"-201 1809 CURVE SMOOTH",
"-334 1809 OFFCURVE",
"-417 1729 OFFCURVE",
"-417 1609 CURVE SMOOTH",
"-417 1506 OFFCURVE",
"-364 1416 OFFCURVE",
"-268 1352 CURVE",
"-170 1446 LINE",
"-213 1488 OFFCURVE",
"-241 1518 OFFCURVE",
"-241 1563 CURVE SMOOTH",
"-241 1600 OFFCURVE",
"-220 1626 OFFCURVE",
"-176 1626 CURVE SMOOTH",
"-10 1626 OFFCURVE",
"163 1354 OFFCURVE",
"247 1126 CURVE"
);
},
{
closed = 1;
nodes = (
"386 1 LINE",
"386 1219 LINE",
"176 1219 LINE",
"176 1 LINE"
);
},
{
closed = 1;
nodes = (
"582 1104 LINE",
"582 1287 LINE",
"-19 1287 LINE",
"-19 1104 LINE"
);
}
);
width = 563;
}
);
unicode = 0940;
},
{
glyphname = "prishthaMatraE-deva";
lastChange = "2014-12-12 09:48:33 +0000";
layers = (
{
anchors = (
{
name = bottom;
position = "{281, 27}";
},
{
name = top;
position = "{281, 1167}";
}
);
layerId = "C4389747-BECF-4D47-A11A-92B8AD605B66";
name = Bold;
paths = (
{
closed = 1;
nodes = (
"176 1208 LINE",
"176 0 LINE",
"386 0 LINE",
"386 1208 LINE"
);
},
{
closed = 1;
nodes = (
"176 1287 LINE",
"176 1104 LINE",
"582 1104 LINE",
"582 1287 LINE"
);
}
);
width = 563;
}
);
unicode = 094E;
},
{
color = 7;
glyphname = "ooeMatra-deva";
lastChange = "2015-01-07 12:49:38 +0000";
layers = (
{
components = (
{
name = "aaMatra-deva";
transform = "{1, 0, 0, 1, 0, 0}";
}
);
layerId = "C4389747-BECF-4D47-A11A-92B8AD605B66";
name = Bold;
paths = (
{
closed = 1;
nodes = (
"176 1091 LINE",
"386 1091 LINE",
"386 1574 LINE",
"176 1574 LINE"
);
}
);
width = 561;
}
);
unicode = 093B;
},
{
color = 7;
glyphname = "awMatra-deva";
lastChange = "2015-01-07 12:49:38 +0000";
layers = (
{
components = (
{
name = "aaMatra-deva";
transform = "{1, 0, 0, 1, 0, 0}";
}
);
layerId = "C4389747-BECF-4D47-A11A-92B8AD605B66";
name = Bold;
paths = (
{
closed = 1;
nodes = (
"-450 1856 OFFCURVE",
"-464 1820 OFFCURVE",
"-464 1786 CURVE SMOOTH",
"-464 1711 OFFCURVE",
"-397 1641 OFFCURVE",
"-269 1620 CURVE SMOOTH",
"34 1574 LINE SMOOTH",
"175 1551 OFFCURVE",
"271 1526 OFFCURVE",
"271 1383 CURVE SMOOTH",
"271 1343 OFFCURVE",
"269 1308 OFFCURVE",
"239 1250 CURVE",
"304 1197 LINE",
"382 1298 OFFCURVE",
"411 1386 OFFCURVE",
"411 1469 CURVE SMOOTH",
"411 1616 OFFCURVE",
"303 1692 OFFCURVE",
"125 1720 CURVE SMOOTH",
"-164 1765 LINE SMOOTH",
"-296 1786 OFFCURVE",
"-328 1803 OFFCURVE",
"-333 1848 CURVE SMOOTH",
"-334 1855 OFFCURVE",
"-334 1863 OFFCURVE",
"-334 1872 CURVE",
"-417 1888 LINE"
);
},
{
closed = 1;
nodes = (
"-616 1686 OFFCURVE",
"-627 1646 OFFCURVE",
"-627 1608 CURVE SMOOTH",
"-627 1503 OFFCURVE",
"-548 1408 OFFCURVE",
"-368 1389 CURVE SMOOTH",
"22 1347 LINE SMOOTH",
"148 1332 OFFCURVE",
"176 1302 OFFCURVE",
"176 1233 CURVE SMOOTH",
"176 1210 OFFCURVE",
"172 1180 OFFCURVE",
"169 1143 CURVE",
"236 1119 LINE",
"254 1172 OFFCURVE",
"268 1228 OFFCURVE",
"268 1273 CURVE SMOOTH",
"268 1402 OFFCURVE",
"216 1464 OFFCURVE",
"16 1496 CURVE SMOOTH",
"-324 1549 LINE SMOOTH",
"-470 1571 OFFCURVE",
"-498 1615 OFFCURVE",
"-500 1682 CURVE SMOOTH",
"-501 1691 OFFCURVE",
"-501 1700 OFFCURVE",
"-501 1709 CURVE",
"-594 1724 LINE"
);
}
);
width = 561;
}
);
unicode = 094F;
},
{
glyphname = "iMatra-deva.0";
lastChange = "2015-01-16 09:15:41 +0000";
layers = (
{
anchors = (
{
name = imatra;
position = "{1259, 1416}";
},
{
name = topcandra;
position = "{1446, 1350}";
}
);
layerId = "C4389747-BECF-4D47-A11A-92B8AD605B66";
name = Bold;
paths = (
{
closed = 1;
nodes = (
"451 1204 LINE",
"311 1339 OFFCURVE",
"285 1396 OFFCURVE",
"285 1474 CURVE SMOOTH",
"285 1563 OFFCURVE",
"337 1614 OFFCURVE",
"498 1614 CURVE SMOOTH",
"741 1614 OFFCURVE",
"1000 1498 OFFCURVE",
"1222 1356 CURVE",
"1296 1477 LINE",
"1027 1684 OFFCURVE",
"718 1808 OFFCURVE",
"464 1808 CURVE SMOOTH",
"279 1808 OFFCURVE",
"68 1741 OFFCURVE",
"68 1523 CURVE SMOOTH",
"68 1403 OFFCURVE",
"130 1305 OFFCURVE",
"271 1197 CURVE"
);
},
{
closed = 1;
nodes = (
"385 1 LINE",
"385 1217 LINE",
"175 1217 LINE",
"175 1 LINE"
);
},
{
closed = 1;
nodes = (
"586 1104 LINE",
"586 1287 LINE",
"-19 1287 LINE",
"-19 1104 LINE"
);
}
);
width = 561;
}
);
},
{
glyphname = "iMatra-deva.01";
lastChange = "2015-01-16 09:15:48 +0000";
layers = (
{
anchors = (
{
name = imatra;
position = "{1368, 1407}";
},
{
name = top;
position = "{1186, 1438}";
},
{
name = topcandra;
position = "{1541, 1350}";
}
);
layerId = "C4389747-BECF-4D47-A11A-92B8AD605B66";
name = Bold;
paths = (
{
closed = 1;
nodes = (
"451 1204 LINE",
"311 1339 OFFCURVE",
"285 1398 OFFCURVE",
"285 1475 CURVE SMOOTH",
"285 1568 OFFCURVE",
"337 1614 OFFCURVE",
"516 1614 CURVE SMOOTH",
"792 1614 OFFCURVE",
"1066 1513 OFFCURVE",
"1332 1356 CURVE",
"1406 1477 LINE",
"1098 1697 OFFCURVE",
"763 1808 OFFCURVE",
"483 1808 CURVE SMOOTH",
"271 1808 OFFCURVE",
"68 1741 OFFCURVE",
"68 1524 CURVE SMOOTH",
"68 1403 OFFCURVE",
"130 1305 OFFCURVE",
"271 1197 CURVE"
);
},
{
closed = 1;
nodes = (
"385 1 LINE",
"385 1217 LINE",
"175 1217 LINE",
"175 1 LINE"
);
},
{
closed = 1;
nodes = (
"586 1104 LINE",
"586 1287 LINE",
"-19 1287 LINE",
"-19 1104 LINE"
);
}
);
width = 562;
}
);
},
{
glyphname = "iMatra-deva.02";
lastChange = "2015-01-16 09:15:58 +0000";
layers = (
{
anchors = (
{
name = imatra;
position = "{1589, 1419}";
},
{
name = top;
position = "{1375, 1438}";
},
{
name = topcandra;
position = "{1725, 1350}";
}
);
layerId = "C4389747-BECF-4D47-A11A-92B8AD605B66";
name = Bold;
paths = (
{
closed = 1;
nodes = (
"451 1204 LINE",
"310 1340 OFFCURVE",
"285 1398 OFFCURVE",
"285 1475 CURVE SMOOTH",
"285 1571 OFFCURVE",
"338 1614 OFFCURVE",
"579 1614 CURVE SMOOTH",
"947 1614 OFFCURVE",
"1243 1508 OFFCURVE",
"1552 1356 CURVE",
"1626 1477 LINE",
"1280 1688 OFFCURVE",
"929 1808 OFFCURVE",
"549 1808 CURVE SMOOTH",
"270 1808 OFFCURVE",
"68 1744 OFFCURVE",
"68 1524 CURVE SMOOTH",
"68 1403 OFFCURVE",
"130 1305 OFFCURVE",
"271 1197 CURVE"
);
},
{
closed = 1;
nodes = (
"385 1 LINE",
"385 1217 LINE",
"175 1217 LINE",
"175 1 LINE"
);
},
{
closed = 1;
nodes = (
"586 1104 LINE",
"586 1287 LINE",
"-19 1287 LINE",
"-19 1104 LINE"
);
}
);
width = 561;
}
);
},
{
glyphname = "iMatra-deva.03";
lastChange = "2015-01-16 09:16:12 +0000";
layers = (
{
anchors = (
{
name = imatra;
position = "{1692, 1407}";
},
{
name = top;
position = "{1475, 1438}";
},
{
name = topcandra;
position = "{1826, 1350}";
}
);
layerId = "C4389747-BECF-4D47-A11A-92B8AD605B66";
name = Bold;
paths = (
{
closed = 1;
nodes = (
"451 1204 LINE",
"310 1341 OFFCURVE",
"285 1402 OFFCURVE",
"285 1466 CURVE SMOOTH",
"285 1558 OFFCURVE",
"335 1614 OFFCURVE",
"597 1614 CURVE SMOOTH",
"944 1614 OFFCURVE",
"1312 1514 OFFCURVE",
"1662 1356 CURVE",
"1736 1477 LINE",
"1338 1703 OFFCURVE",
"903 1808 OFFCURVE",
"563 1808 CURVE SMOOTH",
"270 1808 OFFCURVE",
"68 1730 OFFCURVE",
"68 1521 CURVE SMOOTH",
"68 1404 OFFCURVE",
"131 1305 OFFCURVE",
"271 1197 CURVE"
);
},
{
closed = 1;
nodes = (
"385 1 LINE",
"385 1217 LINE",
"175 1217 LINE",
"175 1 LINE"
);
},
{
closed = 1;
nodes = (
"586 1104 LINE",
"586 1287 LINE",
"-19 1287 LINE",
"-19 1104 LINE"
);
}
);
width = 561;
}
);
},
{
glyphname = "iMatra-deva.05";
lastChange = "2015-01-16 09:16:19 +0000";
layers = (
{
anchors = (
{
name = imatra;
position = "{1810, 1407}";
},
{
name = top;
position = "{1589, 1438}";
},
{
name = topcandra;
position = "{1956, 1350}";
}
);
layerId = "C4389747-BECF-4D47-A11A-92B8AD605B66";
name = Bold;
paths = (
{
closed = 1;
nodes = (
"451 1204 LINE",
"314 1338 OFFCURVE",
"285 1400 OFFCURVE",
"285 1466 CURVE SMOOTH",
"285 1566 OFFCURVE",
"350 1614 OFFCURVE",
"632 1614 CURVE SMOOTH",
"1049 1614 OFFCURVE",
"1412 1507 OFFCURVE",
"1772 1356 CURVE",
"1846 1477 LINE",
"1475 1696 OFFCURVE",
"1002 1808 OFFCURVE",
"602 1808 CURVE SMOOTH",
"289 1808 OFFCURVE",
"68 1739 OFFCURVE",
"68 1521 CURVE SMOOTH",
"68 1404 OFFCURVE",
"131 1305 OFFCURVE",
"271 1197 CURVE"
);
},
{
closed = 1;
nodes = (
"385 1 LINE",
"385 1217 LINE",
"175 1217 LINE",
"175 1 LINE"
);
},
{
closed = 1;
nodes = (
"586 1104 LINE",
"586 1287 LINE",
"-19 1287 LINE",
"-19 1104 LINE"
);
}
);
width = 561;
}
);
},
{
glyphname = "iMatra-deva.08";
lastChange = "2015-01-16 09:16:28 +0000";
layers = (
{
anchors = (
{
name = imatra;
position = "{1919, 1406}";
},
{
name = top;
position = "{1715, 1451}";
},
{
name = topcandra;
position = "{2045, 1350}";
}
);
layerId = "C4389747-BECF-4D47-A11A-92B8AD605B66";
name = Bold;
paths = (
{
closed = 1;
nodes = (
"289 1808 OFFCURVE",
"68 1737 OFFCURVE",
"68 1520 CURVE SMOOTH",
"68 1404 OFFCURVE",
"131 1305 OFFCURVE",
"271 1197 CURVE",
"451 1204 LINE",
"314 1338 OFFCURVE",
"285 1400 OFFCURVE",
"285 1465 CURVE SMOOTH",
"285 1564 OFFCURVE",
"350 1614 OFFCURVE",
"635 1614 CURVE SMOOTH",
"1073 1614 OFFCURVE",
"1515 1495 OFFCURVE",
"1882 1356 CURVE",
"1956 1477 LINE",
"1578 1684 OFFCURVE",
"1024 1808 OFFCURVE",
"606 1808 CURVE SMOOTH"
);
},
{
closed = 1;
nodes = (
"175 1217 LINE",
"175 1 LINE",
"385 1 LINE",
"385 1217 LINE"
);
},
{
closed = 1;
nodes = (
"-19 1287 LINE",
"-19 1104 LINE",
"586 1104 LINE",
"586 1287 LINE"
);
}
);
width = 561;
}
);
},
{
glyphname = "iMatra-deva.10";
lastChange = "2015-01-16 09:16:37 +0000";
layers = (
{
anchors = (
{
name = imatra;
position = "{2026, 1407}";
},
{
name = top;
position = "{1801, 1438}";
},
{
name = topcandra;
position = "{2126, 1350}";
}
);
layerId = "C4389747-BECF-4D47-A11A-92B8AD605B66";
name = Bold;
paths = (
{
closed = 1;
nodes = (
"451 1204 LINE",
"314 1338 OFFCURVE",
"285 1400 OFFCURVE",
"285 1464 CURVE SMOOTH",
"285 1561 OFFCURVE",
"351 1614 OFFCURVE",
"664 1614 CURVE SMOOTH",
"1137 1614 OFFCURVE",
"1629 1493 OFFCURVE",
"1992 1356 CURVE",
"2066 1477 LINE",
"1685 1684 OFFCURVE",
"1082 1808 OFFCURVE",
"634 1808 CURVE SMOOTH",
"289 1808 OFFCURVE",
"68 1734 OFFCURVE",
"68 1520 CURVE SMOOTH",
"68 1404 OFFCURVE",
"131 1305 OFFCURVE",
"271 1197 CURVE"
);
},
{
closed = 1;
nodes = (
"385 1 LINE",
"385 1217 LINE",
"175 1217 LINE",
"175 1 LINE"
);
},
{
closed = 1;
nodes = (
"586 1104 LINE",
"586 1287 LINE",
"-19 1287 LINE",
"-19 1104 LINE"
);
}
);
width = 561;
}
);
},
{
glyphname = "iMatra-deva.15";
lastChange = "2015-01-16 09:16:45 +0000";
layers = (
{
anchors = (
{
name = imatra;
position = "{2132, 1406}";
},
{
name = top;
position = "{1894, 1438}";
},
{
name = topcandra;
position = "{2231, 1350}";
}
);
layerId = "C4389747-BECF-4D47-A11A-92B8AD605B66";
name = Bold;
paths = (
{
closed = 1;
nodes = (
"451 1204 LINE",
"314 1338 OFFCURVE",
"285 1400 OFFCURVE",
"285 1465 CURVE SMOOTH",
"285 1565 OFFCURVE",
"351 1614 OFFCURVE",
"684 1614 CURVE SMOOTH",
"1196 1614 OFFCURVE",
"1703 1497 OFFCURVE",
"2102 1356 CURVE",
"2176 1477 LINE",
"1768 1686 OFFCURVE",
"1145 1808 OFFCURVE",
"658 1808 CURVE SMOOTH",
"289 1808 OFFCURVE",
"68 1738 OFFCURVE",
"68 1520 CURVE SMOOTH",
"68 1404 OFFCURVE",
"131 1305 OFFCURVE",
"271 1197 CURVE"
);
},
{
closed = 1;
nodes = (
"385 1 LINE",
"385 1217 LINE",
"175 1217 LINE",
"175 1 LINE"
);
},
{
closed = 1;
nodes = (
"586 1104 LINE",
"586 1287 LINE",
"-19 1287 LINE",
"-19 1104 LINE"
);
}
);
width = 561;
}
);
},
{
glyphname = "iMatra-deva.20";
lastChange = "2015-01-16 09:16:51 +0000";
layers = (
{
anchors = (
{
name = imatra;
position = "{2248, 1406}";
},
{
name = top;
position = "{1998, 1438}";
},
{
name = topcandra;
position = "{2348, 1350}";
}
);
layerId = "C4389747-BECF-4D47-A11A-92B8AD605B66";
name = Bold;
paths = (
{
closed = 1;
nodes = (
"451 1204 LINE",
"320 1331 OFFCURVE",
"285 1398 OFFCURVE",
"285 1462 CURVE SMOOTH",
"285 1565 OFFCURVE",
"378 1614 OFFCURVE",
"707 1614 CURVE SMOOTH",
"1249 1614 OFFCURVE",
"1803 1481 OFFCURVE",
"2212 1356 CURVE",
"2286 1477 LINE",
"1877 1667 OFFCURVE",
"1204 1808 OFFCURVE",
"681 1808 CURVE SMOOTH",
"315 1808 OFFCURVE",
"68 1739 OFFCURVE",
"68 1518 CURVE SMOOTH",
"68 1408 OFFCURVE",
"129 1305 OFFCURVE",
"271 1197 CURVE"
);
},
{
closed = 1;
nodes = (
"385 1 LINE",
"385 1217 LINE",
"175 1217 LINE",
"175 1 LINE"
);
},
{
closed = 1;
nodes = (
"586 1104 LINE",
"586 1287 LINE",
"-19 1287 LINE",
"-19 1104 LINE"
);
}
);
width = 561;
}
);
},
{
glyphname = "iMatra-deva.25";
lastChange = "2015-01-16 09:16:55 +0000";
layers = (
{
anchors = (
{
name = imatra;
position = "{2350, 1407}";
},
{
name = top;
position = "{2121, 1438}";
},
{
name = topcandra;
position = "{2454, 1350}";
}
);
layerId = "C4389747-BECF-4D47-A11A-92B8AD605B66";
name = Bold;
paths = (
{
closed = 1;
nodes = (
"451 1204 LINE",
"327 1325 OFFCURVE",
"285 1397 OFFCURVE",
"285 1458 CURVE SMOOTH",
"285 1551 OFFCURVE",
"378 1614 OFFCURVE",
"767 1614 CURVE SMOOTH",
"1340 1614 OFFCURVE",
"1915 1478 OFFCURVE",
"2322 1356 CURVE",
"2396 1477 LINE",
"1981 1666 OFFCURVE",
"1285 1808 OFFCURVE",
"746 1808 CURVE SMOOTH",
"322 1808 OFFCURVE",
"68 1720 OFFCURVE",
"68 1513 CURVE SMOOTH",
"68 1409 OFFCURVE",
"133 1302 OFFCURVE",
"271 1197 CURVE"
);
},
{
closed = 1;
nodes = (
"385 1 LINE",
"385 1217 LINE",
"175 1217 LINE",
"175 1 LINE"
);
},
{
closed = 1;
nodes = (
"586 1104 LINE",
"586 1287 LINE",
"-19 1287 LINE",
"-19 1104 LINE"
);
}
);
width = 561;
}
);
},
{
glyphname = "iMatra-deva.30";
lastChange = "2015-01-16 09:17:00 +0000";
layers = (
{
anchors = (
{
name = imatra;
position = "{2467, 1407}";
},
{
name = top;
position = "{2241, 1438}";
},
{
name = topcandra;
position = "{2593, 1350}";
}
);
layerId = "C4389747-BECF-4D47-A11A-92B8AD605B66";
name = Bold;
paths = (
{
closed = 1;
nodes = (
"451 1204 LINE",
"327 1325 OFFCURVE",
"285 1397 OFFCURVE",
"285 1458 CURVE SMOOTH",
"285 1551 OFFCURVE",
"378 1614 OFFCURVE",
"769 1614 CURVE SMOOTH",
"1398 1614 OFFCURVE",
"2023 1478 OFFCURVE",
"2432 1356 CURVE",
"2506 1477 LINE",
"2088 1667 OFFCURVE",
"1342 1808 OFFCURVE",
"748 1808 CURVE SMOOTH",
"323 1808 OFFCURVE",
"68 1720 OFFCURVE",
"68 1513 CURVE SMOOTH",
"68 1409 OFFCURVE",
"133 1302 OFFCURVE",
"271 1197 CURVE"
);
},
{
closed = 1;
nodes = (
"385 1 LINE",
"385 1217 LINE",
"175 1217 LINE",
"175 1 LINE"
);
},
{
closed = 1;
nodes = (
"586 1104 LINE",
"586 1287 LINE",
"-19 1287 LINE",
"-19 1104 LINE"
);
}
);
width = 561;
}
);
},
